<svg width="12" height="24" viewBox="0 0 12 24" fill="none" xmlns="http://www.w3.org/2000/svg">
<path d="M6.86397 1.99994C6.77607 1.8484 6.6499 1.72261 6.49809 1.63517C6.34628 1.54773 6.17416 1.50171 5.99897 1.50171C5.82379 1.50171 5.65167 1.54773 5.49986 1.63517C5.34805 1.72261 5.22188 1.8484 5.13398 1.99994L1.13397 8.99994C1.04625 9.15188 1.00005 9.32423 1 9.49968C0.999955 9.67513 1.04607 9.8475 1.13372 9.99949C1.22137 10.1515 1.34746 10.2777 1.49933 10.3656C1.65121 10.4534 1.82353 10.4998 1.99897 10.4999H9.99897C10.1744 10.4998 10.3467 10.4534 10.4986 10.3656C10.6505 10.2777 10.7766 10.1515 10.8642 9.99949C10.9519 9.8475 10.998 9.67513 10.9979 9.49968C10.9979 9.32423 10.9517 9.15188 10.864 8.99994L6.86397 1.99994Z" stroke="#969696" stroke-linecap="round" stroke-linejoin="round"/>
<path d="M6.86397 22.0001C6.77607 22.1516 6.6499 22.2774 6.49809 22.3648C6.34628 22.4523 6.17416 22.4983 5.99897 22.4983C5.82379 22.4983 5.65167 22.4523 5.49986 22.3648C5.34805 22.2774 5.22188 22.1516 5.13398 22.0001L1.13397 15.0001C1.04625 14.8481 1.00005 14.6758 1 14.5003C0.999955 14.3249 1.04607 14.1525 1.13372 14.0005C1.22137 13.8485 1.34746 13.7223 1.49933 13.6344C1.65121 13.5466 1.82353 13.5002 1.99897 13.5001H9.99897C10.1744 13.5002 10.3467 13.5466 10.4986 13.6344C10.6505 13.7223 10.7766 13.8485 10.8642 14.0005C10.9519 14.1525 10.998 14.3249 10.9979 14.5003C10.9979 14.6758 10.9517 14.8481 10.864 15.0001L6.86397 22.0001Z" stroke="#969696" stroke-linecap="round" stroke-linejoin="round"/>
</svg>
