<svg width="24" height="24" viewBox="0 0 24 24" fill="none" xmlns="http://www.w3.org/2000/svg">
<path d="M22.9868 5.452C22.9588 5.275 22.6748 3.685 21.5228 2.524C20.3658 1.392 18.7698 1.112 18.5918 1.084C18.3548 1.045 18.1128 1.095 17.9098 1.221C17.8388 1.265 16.7958 1.918 14.7368 3.659C15.7958 4.033 17.1648 4.682 18.2748 5.768C19.3888 6.858 20.0548 8.199 20.4368 9.239C22.1568 7.229 22.8038 6.211 22.8468 6.141C22.9748 5.936 23.0248 5.691 22.9868 5.452Z" fill="#BBBBBB"/>
<path d="M12.9499 5.22302C11.8769 6.19102 10.6279 7.36702 9.1979 8.78702C3.1349 14.807 1.5449 17.214 1.4799 17.313C1.3889 17.453 1.3339 17.614 1.3209 17.78L1.0019 21.851C0.979898 22.143 1.0849 22.429 1.2919 22.636C1.4799 22.824 1.7349 22.929 1.9999 22.929C2.0249 22.929 2.0509 22.929 2.0769 22.926L6.1779 22.61C6.3429 22.597 6.5019 22.544 6.6409 22.455C6.7409 22.391 9.1639 20.812 15.2259 14.793C16.6879 13.341 17.8939 12.077 18.8809 10.996C18.7299 10.347 18.2029 8.49502 16.8759 7.19802C15.5299 5.88102 13.5939 5.36502 12.9499 5.22302Z" fill="#BBBBBB"/>
</svg>
