<svg width="166" height="26" viewBox="0 0 166 26" fill="none" xmlns="http://www.w3.org/2000/svg">
<path d="M1.58523 18V4.90909H6.00852C7.03551 4.90909 7.875 5.09446 8.52699 5.4652C9.18324 5.83168 9.66903 6.32812 9.98438 6.95455C10.2997 7.58097 10.4574 8.27983 10.4574 9.05114C10.4574 9.82244 10.2997 10.5234 9.98438 11.1541C9.6733 11.7848 9.19176 12.2876 8.53977 12.6626C7.88778 13.0334 7.05256 13.2188 6.03409 13.2188H2.86364V11.8125H5.98295C6.68608 11.8125 7.25071 11.6911 7.67685 11.4482C8.10298 11.2053 8.41193 10.8771 8.60369 10.4638C8.79972 10.0462 8.89773 9.57528 8.89773 9.05114C8.89773 8.52699 8.79972 8.05824 8.60369 7.64489C8.41193 7.23153 8.10085 6.90767 7.67045 6.6733C7.24006 6.43466 6.66903 6.31534 5.95739 6.31534H3.17045V18H1.58523ZM16.6896 18.2045C15.8033 18.2045 15.0256 17.9936 14.3565 17.5717C13.6918 17.1499 13.1719 16.5597 12.7969 15.8011C12.4261 15.0426 12.2408 14.1562 12.2408 13.142C12.2408 12.1193 12.4261 11.2266 12.7969 10.4638C13.1719 9.70099 13.6918 9.10866 14.3565 8.68679C15.0256 8.26491 15.8033 8.05398 16.6896 8.05398C17.576 8.05398 18.3516 8.26491 19.0163 8.68679C19.6854 9.10866 20.2053 9.70099 20.576 10.4638C20.951 11.2266 21.1385 12.1193 21.1385 13.142C21.1385 14.1562 20.951 15.0426 20.576 15.8011C20.2053 16.5597 19.6854 17.1499 19.0163 17.5717C18.3516 17.9936 17.576 18.2045 16.6896 18.2045ZM16.6896 16.8494C17.3629 16.8494 17.9169 16.6768 18.3516 16.3317C18.7862 15.9865 19.108 15.5327 19.3168 14.9702C19.5256 14.4077 19.63 13.7983 19.63 13.142C19.63 12.4858 19.5256 11.8743 19.3168 11.3075C19.108 10.7408 18.7862 10.2827 18.3516 9.93324C17.9169 9.58381 17.3629 9.40909 16.6896 9.40909C16.0163 9.40909 15.4624 9.58381 15.0277 9.93324C14.593 10.2827 14.2713 10.7408 14.0625 11.3075C13.8537 11.8743 13.7493 12.4858 13.7493 13.142C13.7493 13.7983 13.8537 14.4077 14.0625 14.9702C14.2713 15.5327 14.593 15.9865 15.0277 16.3317C15.4624 16.6768 16.0163 16.8494 16.6896 16.8494ZM25.3317 18L22.3402 8.18182H23.9254L26.0476 15.6989H26.1499L28.2464 8.18182H29.8572L31.9283 15.6733H32.0305L34.1527 8.18182H35.7379L32.7464 18H31.2635L29.1158 10.4574H28.9624L26.8146 18H25.3317ZM41.5147 18.2045C40.5687 18.2045 39.7527 17.9957 39.0666 17.5781C38.3848 17.1562 37.8585 16.5682 37.4877 15.8139C37.1213 15.0554 36.938 14.1733 36.938 13.1676C36.938 12.1619 37.1213 11.2756 37.4877 10.5085C37.8585 9.73722 38.3741 9.13636 39.0346 8.70597C39.6994 8.27131 40.475 8.05398 41.3613 8.05398C41.8727 8.05398 42.3777 8.1392 42.8762 8.30966C43.3748 8.48011 43.8287 8.7571 44.2377 9.14062C44.6468 9.51989 44.9728 10.0227 45.2157 10.6491C45.4586 11.2756 45.5801 12.0469 45.5801 12.9631V13.6023H38.0119V12.2983H44.046C44.046 11.7443 43.9352 11.25 43.7136 10.8153C43.4963 10.3807 43.1852 10.0376 42.7804 9.78622C42.3798 9.5348 41.9068 9.40909 41.3613 9.40909C40.7605 9.40909 40.2406 9.55824 39.8017 9.85653C39.367 10.1506 39.0325 10.5341 38.7981 11.0071C38.5637 11.4801 38.4466 11.9872 38.4466 12.5284V13.3977C38.4466 14.1392 38.5744 14.7678 38.8301 15.2834C39.09 15.7947 39.4501 16.1847 39.9103 16.4531C40.3706 16.7173 40.9054 16.8494 41.5147 16.8494C41.911 16.8494 42.269 16.794 42.5886 16.6832C42.9125 16.5682 43.1916 16.3977 43.426 16.1719C43.6603 15.9418 43.8414 15.6562 43.9693 15.3153L45.4267 15.7244C45.2733 16.2188 45.0154 16.6534 44.6532 17.0284C44.291 17.3991 43.8436 17.6889 43.3109 17.8977C42.7782 18.1023 42.1795 18.2045 41.5147 18.2045ZM47.8748 18V8.18182H49.3322V9.66477H49.4345C49.6135 9.17898 49.9373 8.7848 50.4061 8.48224C50.8748 8.17969 51.4032 8.02841 51.9913 8.02841C52.1021 8.02841 52.2406 8.03054 52.4068 8.0348C52.573 8.03906 52.6987 8.04545 52.7839 8.05398V9.58807C52.7328 9.57528 52.6156 9.55611 52.4324 9.53054C52.2534 9.50071 52.0637 9.4858 51.8635 9.4858C51.3862 9.4858 50.9601 9.58594 50.585 9.78622C50.2143 9.98224 49.9203 10.255 49.7029 10.6044C49.4899 10.9496 49.3833 11.3437 49.3833 11.7869V18H47.8748ZM58.3897 18.2045C57.4437 18.2045 56.6277 17.9957 55.9416 17.5781C55.2598 17.1562 54.7335 16.5682 54.3627 15.8139C53.9963 15.0554 53.813 14.1733 53.813 13.1676C53.813 12.1619 53.9963 11.2756 54.3627 10.5085C54.7335 9.73722 55.2491 9.13636 55.9096 8.70597C56.5744 8.27131 57.35 8.05398 58.2363 8.05398C58.7477 8.05398 59.2527 8.1392 59.7512 8.30966C60.2498 8.48011 60.7037 8.7571 61.1127 9.14062C61.5218 9.51989 61.8478 10.0227 62.0907 10.6491C62.3336 11.2756 62.4551 12.0469 62.4551 12.9631V13.6023H54.8869V12.2983H60.921C60.921 11.7443 60.8102 11.25 60.5886 10.8153C60.3713 10.3807 60.0602 10.0376 59.6554 9.78622C59.2548 9.5348 58.7818 9.40909 58.2363 9.40909C57.6355 9.40909 57.1156 9.55824 56.6767 9.85653C56.242 10.1506 55.9075 10.5341 55.6731 11.0071C55.4387 11.4801 55.3216 11.9872 55.3216 12.5284V13.3977C55.3216 14.1392 55.4494 14.7678 55.7051 15.2834C55.965 15.7947 56.3251 16.1847 56.7853 16.4531C57.2456 16.7173 57.7804 16.8494 58.3897 16.8494C58.786 16.8494 59.144 16.794 59.4636 16.6832C59.7875 16.5682 60.0666 16.3977 60.301 16.1719C60.5353 15.9418 60.7164 15.6562 60.8443 15.3153L62.3017 15.7244C62.1483 16.2188 61.8904 16.6534 61.5282 17.0284C61.166 17.3991 60.7186 17.6889 60.1859 17.8977C59.6532 18.1023 59.0545 18.2045 58.3897 18.2045ZM68.4572 18.2045C67.639 18.2045 66.9167 17.9979 66.2903 17.5845C65.6639 17.1669 65.1738 16.5788 64.8201 15.8203C64.4664 15.0575 64.2896 14.1562 64.2896 13.1165C64.2896 12.0852 64.4664 11.1903 64.8201 10.4318C65.1738 9.6733 65.666 9.08736 66.2967 8.67401C66.9274 8.26065 67.6561 8.05398 68.4828 8.05398C69.122 8.05398 69.627 8.16051 69.9977 8.37358C70.3727 8.58239 70.6582 8.82102 70.8542 9.08949C71.0545 9.35369 71.2101 9.57102 71.3208 9.74148H71.4487V4.90909H72.9572V18H71.4998V16.4915H71.3208C71.2101 16.6705 71.0524 16.8963 70.8478 17.169C70.6433 17.4375 70.3514 17.6783 69.9721 17.8913C69.5929 18.1001 69.0879 18.2045 68.4572 18.2045ZM68.6618 16.8494C69.2669 16.8494 69.7782 16.6918 70.1958 16.3764C70.6135 16.0568 70.9309 15.6158 71.1483 15.0533C71.3656 14.4865 71.4743 13.8324 71.4743 13.0909C71.4743 12.358 71.3677 11.7166 71.1547 11.1669C70.9416 10.6129 70.6262 10.1825 70.2086 9.87571C69.791 9.56463 69.2754 9.40909 68.6618 9.40909C68.0225 9.40909 67.4899 9.57315 67.0637 9.90128C66.6419 10.2251 66.3244 10.6662 66.1113 11.2244C65.9025 11.7784 65.7981 12.4006 65.7981 13.0909C65.7981 13.7898 65.9047 14.4247 66.1177 14.9957C66.335 15.5625 66.6547 16.0142 67.0765 16.3509C67.5027 16.6832 68.0311 16.8494 68.6618 16.8494ZM81.1966 18V4.90909H82.7051V9.74148H82.8329C82.9437 9.57102 83.0971 9.35369 83.2931 9.08949C83.4934 8.82102 83.7789 8.58239 84.1497 8.37358C84.5247 8.16051 85.0318 8.05398 85.671 8.05398C86.4977 8.05398 87.2264 8.26065 87.8571 8.67401C88.4877 9.08736 88.9799 9.6733 89.3336 10.4318C89.6873 11.1903 89.8642 12.0852 89.8642 13.1165C89.8642 14.1562 89.6873 15.0575 89.3336 15.8203C88.9799 16.5788 88.4899 17.1669 87.8635 17.5845C87.237 17.9979 86.5147 18.2045 85.6966 18.2045C85.0659 18.2045 84.5609 18.1001 84.1816 17.8913C83.8024 17.6783 83.5105 17.4375 83.3059 17.169C83.1014 16.8963 82.9437 16.6705 82.8329 16.4915H82.6539V18H81.1966ZM82.6795 13.0909C82.6795 13.8324 82.7882 14.4865 83.0055 15.0533C83.2228 15.6158 83.5403 16.0568 83.9579 16.3764C84.3755 16.6918 84.8869 16.8494 85.492 16.8494C86.1227 16.8494 86.649 16.6832 87.0708 16.3509C87.497 16.0142 87.8166 15.5625 88.0297 14.9957C88.247 14.4247 88.3556 13.7898 88.3556 13.0909C88.3556 12.4006 88.2491 11.7784 88.036 11.2244C87.8272 10.6662 87.5098 10.2251 87.0836 9.90128C86.6618 9.57315 86.1312 9.40909 85.492 9.40909C84.8784 9.40909 84.3627 9.56463 83.9451 9.87571C83.5275 10.1825 83.2122 10.6129 82.9991 11.1669C82.786 11.7166 82.6795 12.358 82.6795 13.0909ZM92.7917 21.6818C92.536 21.6818 92.3081 21.6605 92.1078 21.6179C91.9075 21.5795 91.769 21.5412 91.6923 21.5028L92.0758 20.1733C92.4423 20.267 92.7662 20.3011 93.0474 20.2756C93.3287 20.25 93.5779 20.1243 93.7953 19.8984C94.0169 19.6768 94.2193 19.3168 94.4025 18.8182L94.6838 18.0511L91.0531 8.18182H92.6895L95.3997 16.0057H95.502L98.2122 8.18182H99.8485L95.6809 19.4318C95.4934 19.9389 95.2612 20.3587 94.9842 20.6911C94.7072 21.0277 94.3855 21.277 94.019 21.4389C93.6568 21.6009 93.2477 21.6818 92.7917 21.6818Z" fill="#757281"/>
<path d="M157.885 1.87378H159.6V21.3542H156.605V7.2163L153.556 10.0551V5.90877L157.886 1.87378H157.885Z" fill="#F91673"/>
<path d="M137.213 22.1411C135.906 22.1411 134.853 21.7615 134.055 21.0001C133.147 20.1093 132.694 18.8951 132.694 17.3542V14.8219H135.689V17.3542C135.689 18.0223 135.826 18.4857 136.098 18.7456C136.334 18.9682 136.705 19.0796 137.214 19.0796C137.724 19.0796 138.113 18.9682 138.331 18.7456C138.603 18.5048 138.739 18.0404 138.739 17.3542V16.1294C138.739 15.2758 138.403 14.5345 137.732 13.9036C137.586 13.7742 137.205 13.5324 136.588 13.1803C135.735 12.7169 135.108 12.3087 134.709 11.9555C134.056 11.3617 133.557 10.6851 133.212 9.92371C132.867 9.16337 132.694 8.34683 132.694 7.47514V7.00218C132.694 5.46242 133.147 4.24715 134.055 3.35637C134.854 2.59603 135.906 2.21533 137.213 2.21533C138.52 2.21533 139.572 2.59603 140.371 3.35637C141.278 4.24715 141.732 5.46242 141.732 7.00218V8.69996H138.737V7.00218C138.737 6.31607 138.601 5.8516 138.329 5.61088C138.111 5.38818 137.738 5.27684 137.212 5.27684C136.686 5.27684 136.332 5.38818 136.096 5.61088C135.824 5.87069 135.687 6.3341 135.687 7.00218V7.47514C135.687 8.3288 136.023 9.06157 136.695 9.67344C136.876 9.82191 137.23 10.0446 137.756 10.3415C138.7 10.8611 139.353 11.2874 139.716 11.6215C141.059 12.8463 141.731 14.3489 141.731 16.1294V17.3542C141.731 18.894 141.277 20.1093 140.37 21.0001C139.571 21.7615 138.519 22.1411 137.212 22.1411H137.213Z" fill="#9933FF"/>
<path d="M152.516 22.5313V25.5928H152.135C150.864 25.5928 149.811 25.2121 148.977 24.4517C148.36 23.8579 147.951 23.088 147.751 22.1421H147.588C146.971 22.1421 146.39 22.0403 145.845 21.8356C145.301 21.632 144.828 21.3446 144.429 20.9724C143.521 20.1198 143.068 18.913 143.068 17.3552V7.00316C143.068 5.42628 143.522 4.21101 144.429 3.35735C145.227 2.59701 146.28 2.21631 147.587 2.21631C148.894 2.21631 149.947 2.59701 150.745 3.35735C151.652 4.21101 152.106 5.42628 152.106 7.00316V17.3552C152.106 18.9141 151.652 20.1198 150.745 20.9724L150.636 21.0838C150.672 21.6225 150.799 21.9926 151.017 22.1972C151.253 22.4199 151.625 22.5313 152.134 22.5313H152.515H152.516ZM147.587 19.0806C148.113 19.0806 148.486 18.9692 148.704 18.7465C148.976 18.4867 149.112 18.0233 149.112 17.3552V7.00316C149.112 6.31705 148.976 5.85258 148.704 5.61185C148.486 5.38916 148.113 5.27781 147.587 5.27781C147.061 5.27781 146.707 5.38916 146.471 5.61185C146.199 5.87166 146.062 6.33508 146.062 7.00316V17.3552C146.062 18.0053 146.199 18.4687 146.471 18.7465C146.707 18.9692 147.079 19.0806 147.587 19.0806Z" fill="#9933FF"/>
<path d="M119.365 22.1315C119.825 21.4337 123.847 15.1559 123.186 9.5355C123.166 9.49944 123.134 9.47081 123.096 9.45596C123.032 9.42627 122.963 9.41036 122.894 9.41142C122.833 9.41142 122.774 9.42097 122.717 9.439C122.645 9.46127 122.577 9.49414 122.515 9.5355C120.299 10.3011 119.216 10.6638 118.696 10.8324C118.134 11.0159 118.095 11.018 118.095 11.018C118.092 10.9819 118.067 10.6649 118.045 10.1983C118.024 9.74122 118.004 9.03815 118.024 8.28417C118.036 7.54928 118.104 6.81651 118.226 6.09223C118.282 5.77092 118.365 5.4549 118.472 5.14737C118.558 4.89287 118.685 4.65321 118.847 4.44006C118.994 4.24812 119.176 4.08693 119.384 3.96498C119.539 3.87802 119.712 3.83136 119.889 3.8303C120.065 3.83242 120.237 3.8759 120.394 3.95649C120.539 4.03073 120.673 4.1251 120.794 4.23539C120.928 4.35628 121.049 4.49202 121.153 4.64048L120.771 6.51323C120.771 6.51323 120.952 6.43688 121.211 6.29265C121.363 6.20782 121.512 6.11768 121.655 6.02224C121.829 5.90665 121.996 5.78258 122.157 5.64896C122.517 5.35946 122.818 5.00527 123.049 4.60443C123.295 4.17495 123.393 3.67548 123.329 3.18449C123.277 2.92574 123.152 2.68714 122.969 2.49732C122.88 2.39658 122.784 2.30326 122.681 2.2163L122.58 2.13359C122.544 2.10496 122.51 2.08057 122.48 2.0583L122.489 2.06042C122.423 2.00633 122.361 1.95861 122.307 1.91726C126.741 2.06042 129.403 4.23115 129.403 4.23115L129.287 5.89181H129.283C129.252 6.34992 129.047 8.57579 127.856 11.4963C127.094 13.3584 126.098 15.1145 124.893 16.7243C124.542 17.193 124.17 17.6564 123.784 18.1018C123.378 18.5705 122.946 19.0318 122.502 19.474C122.036 19.9374 121.543 20.3913 121.036 20.825C120.506 21.2778 119.947 21.719 119.374 22.1378C119.371 22.1357 119.369 22.1336 119.366 22.1315H119.365ZM119.029 21.8791C118.327 21.3361 117.655 20.755 117.017 20.1389C115.952 19.1166 114.971 18.0095 114.083 16.8282C113.548 16.1145 113.049 15.3743 112.591 14.6097C112.346 14.2004 112.111 13.7815 111.894 13.3648C111.666 12.9257 111.45 12.4772 111.252 12.0297C111.045 11.562 110.852 11.0827 110.679 10.6065C110.5 10.1092 110.335 9.60124 110.194 9.09647C110.046 8.57049 109.916 8.03391 109.811 7.50156C109.699 6.94801 109.611 6.38279 109.545 5.82288L109.343 4.21524C109.343 4.21524 112.702 1.85893 117.289 1.90029C117.338 1.89181 117.388 1.88226 117.437 1.87378C117.413 1.88226 117.387 1.89181 117.363 1.90029H117.375C117.328 1.91726 117.281 1.93422 117.236 1.95013L117.194 1.9671C117.2 1.97876 117.169 2.00209 117.113 2.04663C116.634 2.4093 116.299 2.9321 116.169 3.52065C116.169 3.52065 116.158 3.59382 116.136 3.7232C116.035 4.32447 115.724 6.15268 115.572 8.17601C115.379 10.7412 115.511 12.6235 115.962 13.7688C115.967 13.8112 115.99 13.8494 116.025 13.8727C116.057 13.896 116.093 13.913 116.132 13.9226C116.191 13.9374 116.252 13.9448 116.312 13.9438C116.385 13.9438 116.458 13.9363 116.531 13.9247C118.38 13.2428 119.339 12.9056 119.818 12.7433C120.338 12.5673 120.42 12.5525 120.42 12.5525C120.422 12.5769 120.445 12.8059 120.453 13.2089C120.458 13.4581 120.456 13.7253 120.449 14.0021C120.439 14.3489 120.42 14.7115 120.392 15.0806C120.312 16.0668 120.181 17.0477 119.996 18.0201C119.748 19.3234 119.425 20.6118 119.028 21.878L119.029 21.8791Z" fill="#F91673"/>
</svg>
