<svg width="63" height="26" viewBox="0 0 63 26" fill="none" xmlns="http://www.w3.org/2000/svg">
<path d="M54.8847 1.87402H56.6002V21.3544H53.6052V7.21655L50.5562 10.0554V5.90902L54.8858 1.87402H54.8847Z" fill="#F91673"/>
<path d="M34.2134 22.1411C32.9064 22.1411 31.8533 21.7615 31.0553 21.0001C30.1473 20.1093 29.6943 18.8951 29.6943 17.3542V14.8219H32.6894V17.3542C32.6894 18.0223 32.8259 18.4857 33.0979 18.7456C33.3339 18.9682 33.7054 19.0796 34.2144 19.0796C34.7235 19.0796 35.113 18.9682 35.331 18.7456C35.603 18.5048 35.7395 18.0404 35.7395 17.3542V16.1294C35.7395 15.2758 35.4029 14.5345 34.732 13.9036C34.5859 13.7742 34.2049 13.5324 33.5879 13.1803C32.7349 12.7169 32.1084 12.3087 31.7094 11.9555C31.0564 11.3617 30.5569 10.6851 30.2119 9.92371C29.8668 9.16337 29.6943 8.34683 29.6943 7.47514V7.00218C29.6943 5.46242 30.1473 4.24715 31.0553 3.35637C31.8544 2.59603 32.9064 2.21533 34.2134 2.21533C35.5204 2.21533 36.5724 2.59603 37.3714 3.35637C38.2784 4.24715 38.7324 5.46242 38.7324 7.00218V8.69996H35.7374V7.00218C35.7374 6.31607 35.6009 5.8516 35.3289 5.61088C35.1108 5.38818 34.7383 5.27684 34.2123 5.27684C33.6863 5.27684 33.3318 5.38818 33.0958 5.61088C32.8238 5.87069 32.6873 6.3341 32.6873 7.00218V7.47514C32.6873 8.3288 33.0228 9.06157 33.6948 9.67344C33.8758 9.82191 34.2303 10.0446 34.7563 10.3415C35.7003 10.8611 36.3533 11.2874 36.7163 11.6215C38.0593 12.8463 38.7314 14.3489 38.7314 16.1294V17.3542C38.7314 18.894 38.2774 20.1093 37.3704 21.0001C36.5713 21.7615 35.5194 22.1411 34.2123 22.1411H34.2134Z" fill="#9933FF"/>
<path d="M49.516 22.5313V25.5928H49.135C47.864 25.5928 46.8109 25.2121 45.977 24.4517C45.36 23.8579 44.9515 23.088 44.7514 22.1421H44.5885C43.9715 22.1421 43.3904 22.0403 42.8454 21.8356C42.3014 21.632 41.8284 21.3446 41.4294 20.9724C40.5213 20.1198 40.0684 18.913 40.0684 17.3552V7.00316C40.0684 5.42628 40.5224 4.21101 41.4294 3.35735C42.2273 2.59701 43.2804 2.21631 44.5874 2.21631C45.8944 2.21631 46.9475 2.59701 47.7455 3.35735C48.6524 4.21101 49.1065 5.42628 49.1065 7.00316V17.3552C49.1065 18.9141 48.6524 20.1198 47.7455 20.9724L47.6364 21.0838C47.6724 21.6225 47.7994 21.9926 48.0174 22.1972C48.2534 22.4199 48.6249 22.5313 49.134 22.5313H49.515H49.516ZM44.5874 19.0806C45.1134 19.0806 45.4859 18.9692 45.7039 18.7465C45.9759 18.4867 46.1125 18.0233 46.1125 17.3552V7.00316C46.1125 6.31705 45.9759 5.85258 45.7039 5.61185C45.4859 5.38916 45.1134 5.27781 44.5874 5.27781C44.0614 5.27781 43.7069 5.38916 43.4709 5.61185C43.1989 5.87166 43.0624 6.33508 43.0624 7.00316V17.3552C43.0624 18.0053 43.1989 18.4687 43.4709 18.7465C43.7069 18.9692 44.0794 19.0806 44.5874 19.0806Z" fill="#9933FF"/>
<path d="M16.3651 22.1317C16.8255 21.4339 20.8471 15.1561 20.1857 9.53574C20.1656 9.49969 20.1338 9.47105 20.0957 9.45621C20.0322 9.42652 19.9634 9.41061 19.8936 9.41167C19.8332 9.41167 19.774 9.42121 19.7168 9.43924C19.6449 9.46151 19.5771 9.49438 19.5147 9.53574C17.2986 10.3014 16.2159 10.6641 15.6963 10.8327C15.1343 11.0161 15.0951 11.0182 15.0951 11.0182C15.092 10.9822 15.0666 10.6651 15.0454 10.1985C15.0242 9.74147 15.0041 9.03839 15.0242 8.28442C15.0359 7.54953 15.1036 6.81676 15.2264 6.09247C15.2824 5.77116 15.365 5.45515 15.4719 5.14762C15.5576 4.89311 15.6846 4.65345 15.8465 4.4403C15.9936 4.24836 16.1757 4.08717 16.3842 3.96522C16.5387 3.87826 16.7122 3.83161 16.889 3.83054C17.0647 3.83267 17.2372 3.87614 17.3938 3.95674C17.5388 4.03097 17.6732 4.12535 17.7939 4.23564C17.9283 4.35653 18.0489 4.49226 18.1526 4.64073L17.7706 6.51347C17.7706 6.51347 17.9515 6.43712 18.2108 6.2929C18.3632 6.20806 18.5125 6.11793 18.6553 6.02249C18.8289 5.9069 18.9961 5.78282 19.157 5.64921C19.5168 5.35971 19.8184 5.00552 20.0491 4.60467C20.2947 4.17519 20.3931 3.67572 20.3285 3.18473C20.2767 2.92599 20.1518 2.68738 19.9687 2.49757C19.8798 2.39682 19.7835 2.3035 19.6809 2.21655L19.5803 2.13383C19.5443 2.1052 19.5105 2.08081 19.4798 2.05854L19.4893 2.06066C19.4226 2.00658 19.3612 1.95886 19.3073 1.9175C23.7406 2.06066 26.4033 4.23139 26.4033 4.23139L26.2869 5.89205H26.2827C26.252 6.35016 26.0467 8.57604 24.8561 11.4965C24.0941 13.3586 23.0982 15.1147 21.8927 16.7245C21.5424 17.1932 21.1699 17.6566 20.7836 18.102C20.3783 18.5707 19.9465 19.032 19.502 19.4742C19.0363 19.9376 18.5431 20.3915 18.0362 20.8252C17.506 21.2781 16.9472 21.7192 16.3736 22.1381C16.3715 22.136 16.3693 22.1338 16.3662 22.1317H16.3651ZM16.0286 21.8793C15.3269 21.3364 14.6549 20.7553 14.0167 20.1391C12.952 19.1169 11.9709 18.0098 11.083 16.8284C10.5475 16.1147 10.049 15.3746 9.59077 14.61C9.3463 14.2006 9.11135 13.7818 8.8944 13.365C8.6658 12.926 8.4499 12.4774 8.25199 12.0299C8.04456 11.5623 7.85195 11.0829 7.67944 10.6068C7.49952 10.1094 7.33548 9.60149 7.19367 9.09672C7.0455 8.57074 6.91639 8.03415 6.81055 7.50181C6.69943 6.94825 6.61053 6.38304 6.54491 5.82312L6.34277 4.21549C6.34277 4.21549 9.7019 1.85918 14.2887 1.90053C14.3384 1.89205 14.3882 1.88251 14.4368 1.87402C14.4125 1.88251 14.3871 1.89205 14.3628 1.90053H14.3755C14.3278 1.9175 14.2813 1.93447 14.2358 1.95038L14.1945 1.96734C14.1998 1.97901 14.1691 2.00234 14.113 2.04688C13.6336 2.40955 13.2991 2.93235 13.169 3.5209C13.169 3.5209 13.1584 3.59407 13.1362 3.72344C13.0346 4.32471 12.7245 6.15292 12.5721 8.17625C12.3795 10.7415 12.5107 12.6238 12.9615 13.769C12.9668 13.8115 12.9901 13.8496 13.025 13.873C13.0568 13.8963 13.0928 13.9133 13.1319 13.9228C13.1912 13.9376 13.2515 13.9451 13.3118 13.944C13.3849 13.944 13.4579 13.9366 13.5309 13.9249C15.3798 13.2431 16.3387 12.9058 16.8181 12.7436C17.3377 12.5676 17.4203 12.5527 17.4203 12.5527C17.4224 12.5771 17.4446 12.8062 17.4531 13.2091C17.4584 13.4583 17.4562 13.7256 17.4488 14.0023C17.4393 14.3491 17.4203 14.7118 17.3917 15.0808C17.3123 16.067 17.1811 17.0479 16.9959 18.0204C16.7482 19.3237 16.4254 20.6121 16.0275 21.8783L16.0286 21.8793Z" fill="#F91673"/>
</svg>
