<svg width="92" height="39" viewBox="0 0 92 39" fill="none" xmlns="http://www.w3.org/2000/svg">
<path d="M7.26782 20.0328C8.33177 20.0328 9.10627 19.8528 9.59131 19.493C10.0763 19.1331 10.3189 18.6246 10.3189 17.9674C10.3189 17.5763 10.2328 17.2399 10.0607 16.9582C9.90423 16.6766 9.66954 16.4263 9.35661 16.2072C9.05933 15.9725 8.69164 15.7613 8.25354 15.5735C7.81544 15.3701 7.31476 15.1745 6.75149 14.9868C6.18822 14.7834 5.64059 14.5643 5.10862 14.3296C4.59229 14.0793 4.13072 13.7742 3.72391 13.4143C3.33275 13.0545 3.012 12.6242 2.76166 12.1235C2.52696 11.6228 2.40961 11.0204 2.40961 10.3163C2.40961 8.84558 2.91812 7.69557 3.93514 6.86632C4.95215 6.02141 6.33686 5.59896 8.08925 5.59896C9.10627 5.59896 10.0059 5.71631 10.7883 5.951C11.5862 6.17005 12.2121 6.41257 12.6658 6.67856L11.7505 9.07246C11.2185 8.77517 10.6318 8.5483 9.99029 8.39184C9.36443 8.23538 8.71511 8.15714 8.04231 8.15714C7.24435 8.15714 6.61849 8.32143 6.16475 8.65C5.72665 8.97858 5.5076 9.44015 5.5076 10.0347C5.5076 10.3946 5.57801 10.7075 5.71883 10.9735C5.87529 11.2238 6.08652 11.4507 6.3525 11.6541C6.63414 11.8575 6.95489 12.0453 7.31476 12.2174C7.69027 12.3895 8.09708 12.5538 8.53518 12.7102C9.30185 12.9919 9.98247 13.2813 10.577 13.5786C11.1872 13.8603 11.6957 14.2045 12.1026 14.6113C12.525 15.0024 12.8458 15.4718 13.0648 16.0195C13.2839 16.5514 13.3934 17.2008 13.3934 17.9674C13.3934 19.4382 12.8692 20.5804 11.8209 21.394C10.7883 22.192 9.27056 22.5909 7.26782 22.5909C6.59502 22.5909 5.97699 22.544 5.41372 22.4501C4.8661 22.3719 4.37324 22.2702 3.93514 22.145C3.51268 22.0198 3.14499 21.8947 2.83207 21.7695C2.51914 21.6287 2.2688 21.5035 2.08104 21.394L2.94942 18.9766C3.37187 19.2113 3.94296 19.446 4.66269 19.6807C5.38243 19.9154 6.2508 20.0328 7.26782 20.0328ZM15.7178 6.7255L18.5576 6.25611V9.9643H22.9229V12.3347H18.5576V17.3337C18.5576 18.3195 18.7141 19.0236 19.027 19.446C19.3399 19.8685 19.8719 20.0797 20.6229 20.0797C21.1393 20.0797 21.593 20.0249 21.9842 19.9154C22.391 19.8059 22.7117 19.7042 22.9464 19.6103L23.4158 21.8634C23.0872 22.0042 22.657 22.145 22.125 22.2858C21.593 22.4423 20.9671 22.5205 20.2474 22.5205C19.3712 22.5205 18.6358 22.4032 18.0413 22.1685C17.4624 21.9338 17.0008 21.5974 16.6566 21.1593C16.3123 20.7055 16.0698 20.1657 15.929 19.5399C15.7882 18.8984 15.7178 18.1708 15.7178 17.3572V6.7255ZM29.9866 20.244C30.8628 20.244 31.5277 20.197 31.9815 20.1032V16.9582C31.825 16.9113 31.5981 16.8644 31.3009 16.8174C31.0036 16.7705 30.675 16.747 30.3151 16.747C30.0022 16.747 29.6815 16.7705 29.3529 16.8174C29.0399 16.8644 28.7505 16.9504 28.4845 17.0756C28.2342 17.2008 28.0308 17.3807 27.8743 17.6154C27.7178 17.8344 27.6396 18.1161 27.6396 18.4603C27.6396 19.1331 27.8508 19.6025 28.2733 19.8685C28.6957 20.1188 29.2668 20.244 29.9866 20.244ZM29.7519 9.6592C30.6906 9.6592 31.4808 9.77654 32.1223 10.0112C32.7638 10.2459 33.2723 10.5745 33.6478 10.997C34.039 11.4194 34.3128 11.9357 34.4692 12.546C34.6414 13.1405 34.7274 13.7977 34.7274 14.5174V21.9573C34.2893 22.0511 33.6243 22.1607 32.7325 22.2858C31.8563 22.4266 30.8628 22.4971 29.7519 22.4971C29.0165 22.4971 28.3437 22.4266 27.7335 22.2858C27.1233 22.145 26.5991 21.9181 26.161 21.6052C25.7386 21.2923 25.4022 20.8855 25.1518 20.3848C24.9171 19.8841 24.7998 19.2661 24.7998 18.5307C24.7998 17.8266 24.9328 17.232 25.1988 16.747C25.4804 16.262 25.8559 15.8708 26.3253 15.5735C26.7947 15.2606 27.3345 15.0416 27.9447 14.9164C28.5706 14.7756 29.2199 14.7052 29.8927 14.7052C30.2056 14.7052 30.5342 14.7286 30.8784 14.7756C31.2226 14.8069 31.5903 14.8694 31.9815 14.9633V14.4939C31.9815 14.1654 31.9424 13.8524 31.8641 13.5551C31.7859 13.2579 31.6451 12.9997 31.4417 12.7807C31.2539 12.546 30.9957 12.366 30.6672 12.2408C30.3542 12.1157 29.9553 12.0531 29.4702 12.0531C28.8131 12.0531 28.2107 12.1 27.6631 12.1939C27.1154 12.2878 26.6695 12.3973 26.3253 12.5225L25.9733 10.2225C26.3331 10.0973 26.8573 9.97212 27.5457 9.84695C28.2342 9.72178 28.9695 9.6592 29.7519 9.6592ZM37.5245 16.1133C37.5245 15.2058 37.6653 14.3609 37.947 13.5786C38.2286 12.7807 38.6276 12.0922 39.1439 11.5133C39.6759 10.9344 40.3174 10.4806 41.0684 10.1521C41.8194 9.82348 42.6643 9.6592 43.6031 9.6592C44.761 9.6592 45.8562 9.87042 46.8889 10.2929L46.2787 12.6164C45.9501 12.4755 45.5746 12.3582 45.1521 12.2643C44.7453 12.1704 44.3072 12.1235 43.8378 12.1235C42.7269 12.1235 41.882 12.4755 41.3031 13.1796C40.7242 13.8681 40.4347 14.846 40.4347 16.1133C40.4347 17.3337 40.7085 18.3038 41.2562 19.0236C41.8038 19.7276 42.7269 20.0797 44.0256 20.0797C44.5106 20.0797 44.9878 20.0328 45.4572 19.9389C45.9266 19.845 46.3334 19.7276 46.6776 19.5868L47.0766 21.9338C46.7637 22.0903 46.2865 22.2311 45.645 22.3562C45.0191 22.4814 44.3698 22.544 43.697 22.544C42.6487 22.544 41.7334 22.3875 40.9511 22.0746C40.1844 21.746 39.5429 21.3001 39.0266 20.7368C38.5259 20.1579 38.1504 19.4773 37.9 18.695C37.6497 17.897 37.5245 17.0365 37.5245 16.1133ZM52.1151 14.7521C52.4749 14.3766 52.8583 13.9776 53.2651 13.5551C53.6719 13.117 54.0709 12.6868 54.462 12.2643C54.8532 11.8262 55.2209 11.4116 55.5651 11.0204C55.925 10.6136 56.2301 10.2616 56.4804 9.9643H59.8366C59.0542 10.8405 58.225 11.748 57.3488 12.6868C56.4882 13.6256 55.6199 14.5409 54.7437 15.4327C55.2131 15.8239 55.7059 16.3011 56.2222 16.8644C56.7386 17.412 57.2393 17.9987 57.7243 18.6246C58.2093 19.2504 58.6631 19.8763 59.0855 20.5021C59.508 21.128 59.86 21.7069 60.1417 22.2389H56.8559C56.5743 21.7539 56.2457 21.2453 55.8702 20.7134C55.5103 20.1814 55.1192 19.6651 54.6967 19.1644C54.2743 18.6637 53.844 18.1943 53.4059 17.7562C52.9678 17.3025 52.5375 16.9191 52.1151 16.6062V22.2389H49.2752V4.49589L52.1151 4.0265V14.7521ZM67.2478 4.0265C67.8424 4.0265 68.3431 4.07344 68.7499 4.16731C69.1723 4.26119 69.5009 4.35507 69.7356 4.44895L69.2897 6.74897C69.0706 6.67074 68.8046 6.60033 68.4917 6.53774C68.1944 6.47516 67.8658 6.44386 67.506 6.44386C66.5672 6.44386 65.9179 6.69421 65.558 7.19489C65.2138 7.69557 65.0417 8.3449 65.0417 9.14287V9.9643H69.5478V12.3347H65.0417V22.2389H62.2019V9.09593C62.2019 7.49999 62.6165 6.25611 63.4457 5.36426C64.275 4.47242 65.5424 4.0265 67.2478 4.0265ZM76.002 22.4736C75.1571 22.4579 74.453 22.3641 73.8897 22.192C73.3421 22.0198 72.904 21.7773 72.5754 21.4644C72.2468 21.1358 72.0121 20.7368 71.8713 20.2674C71.7461 19.7824 71.6836 19.2348 71.6836 18.6246V4.49589L74.5234 4.0265V18.0848C74.5234 18.429 74.5469 18.7185 74.5938 18.9532C74.6564 19.1878 74.7581 19.3912 74.8989 19.5634C75.0397 19.7198 75.2275 19.845 75.4622 19.9389C75.7125 20.0171 76.0254 20.0797 76.4009 20.1266L76.002 22.4736ZM89.805 16.0899C89.805 17.0599 89.6642 17.944 89.3826 18.7419C89.1009 19.5399 88.7019 20.2205 88.1856 20.7838C87.6693 21.347 87.0434 21.7851 86.308 22.0981C85.5883 22.411 84.7903 22.5675 83.9141 22.5675C83.038 22.5675 82.24 22.411 81.5203 22.0981C80.8005 21.7851 80.1825 21.347 79.6662 20.7838C79.1498 20.2205 78.743 19.5399 78.4457 18.7419C78.1641 17.944 78.0233 17.0599 78.0233 16.0899C78.0233 15.1198 78.1641 14.2436 78.4457 13.4613C78.743 12.6633 79.1498 11.9827 79.6662 11.4194C80.1981 10.8561 80.824 10.4259 81.5437 10.1286C82.2635 9.81566 83.0536 9.6592 83.9141 9.6592C84.7747 9.6592 85.5648 9.81566 86.2846 10.1286C87.02 10.4259 87.6458 10.8561 88.1621 11.4194C88.6785 11.9827 89.0775 12.6633 89.3591 13.4613C89.6564 14.2436 89.805 15.1198 89.805 16.0899ZM86.8948 16.0899C86.8948 14.8694 86.6288 13.9072 86.0968 13.2031C85.5805 12.4834 84.8529 12.1235 83.9141 12.1235C82.9754 12.1235 82.24 12.4834 81.708 13.2031C81.1917 13.9072 80.9335 14.8694 80.9335 16.0899C80.9335 17.3259 81.1917 18.3038 81.708 19.0236C82.24 19.7433 82.9754 20.1032 83.9141 20.1032C84.8529 20.1032 85.5805 19.7433 86.0968 19.0236C86.6288 18.3038 86.8948 17.3259 86.8948 16.0899Z" fill="#202020"/>
<path d="M4.05191 36.3631C3.64879 36.3631 3.28156 36.2969 2.95022 36.1643C2.61889 36.0318 2.33449 35.8385 2.09703 35.5845C1.85958 35.3305 1.67458 35.0185 1.54205 34.6485C1.41504 34.273 1.35153 33.845 1.35153 33.3646C1.35153 32.8841 1.42332 32.4589 1.5669 32.0889C1.716 31.7134 1.9148 31.3986 2.1633 31.1446C2.4118 30.8906 2.70172 30.6973 3.03306 30.5648C3.36439 30.4322 3.71782 30.366 4.09333 30.366C4.33079 30.366 4.54339 30.3825 4.73115 30.4157C4.92443 30.4488 5.0901 30.4875 5.22815 30.5316C5.37173 30.5758 5.4877 30.62 5.57605 30.6642C5.66441 30.7084 5.72516 30.7415 5.75829 30.7636L5.52635 31.4262C5.47665 31.3931 5.40486 31.3572 5.31099 31.3186C5.21711 31.2799 5.10942 31.2413 4.98793 31.2026C4.87197 31.1639 4.74219 31.1336 4.59862 31.1115C4.46056 31.0839 4.31974 31.0701 4.17616 31.0701C3.87244 31.0701 3.59909 31.1225 3.35611 31.2274C3.11313 31.3324 2.90604 31.4842 2.73485 31.683C2.56366 31.8818 2.43113 32.1248 2.33725 32.412C2.2489 32.6936 2.20472 33.0111 2.20472 33.3646C2.20472 33.7069 2.24337 34.0189 2.32069 34.3006C2.40352 34.5822 2.52501 34.8252 2.68515 35.0295C2.8453 35.2283 3.0441 35.3829 3.28156 35.4934C3.52454 35.6038 3.80617 35.6591 4.12646 35.6591C4.49645 35.6591 4.80294 35.6204 5.04592 35.5431C5.2889 35.4658 5.47113 35.3967 5.59262 35.336L5.79971 35.9987C5.76105 36.0263 5.69202 36.0622 5.59262 36.1064C5.49322 36.145 5.36897 36.1837 5.21987 36.2223C5.07077 36.261 4.89682 36.2941 4.69802 36.3217C4.49921 36.3493 4.28385 36.3631 4.05191 36.3631ZM10.3512 34.0852C10.3512 34.4276 10.3015 34.7368 10.2021 35.013C10.1027 35.2891 9.96185 35.5265 9.77961 35.7253C9.6029 35.9241 9.39029 36.0787 9.14179 36.1892C8.89329 36.2941 8.6227 36.3466 8.33002 36.3466C8.03734 36.3466 7.76675 36.2941 7.51825 36.1892C7.26975 36.0787 7.05438 35.9241 6.87214 35.7253C6.69543 35.5265 6.55738 35.2891 6.45797 35.013C6.35857 34.7368 6.30887 34.4276 6.30887 34.0852C6.30887 33.7484 6.35857 33.4419 6.45797 33.1658C6.55738 32.8841 6.69543 32.6439 6.87214 32.4451C7.05438 32.2463 7.26975 32.0944 7.51825 31.9895C7.76675 31.8791 8.03734 31.8238 8.33002 31.8238C8.6227 31.8238 8.89329 31.8791 9.14179 31.9895C9.39029 32.0944 9.6029 32.2463 9.77961 32.4451C9.96185 32.6439 10.1027 32.8841 10.2021 33.1658C10.3015 33.4419 10.3512 33.7484 10.3512 34.0852ZM9.54768 34.0852C9.54768 33.5993 9.43723 33.2155 9.21634 32.9338C9.00097 32.6467 8.70553 32.5031 8.33002 32.5031C7.95451 32.5031 7.6563 32.6467 7.43541 32.9338C7.22005 33.2155 7.11236 33.5993 7.11236 34.0852C7.11236 34.5712 7.22005 34.9577 7.43541 35.2449C7.6563 35.5265 7.95451 35.6673 8.33002 35.6673C8.70553 35.6673 9.00097 35.5265 9.21634 35.2449C9.43723 34.9577 9.54768 34.5712 9.54768 34.0852ZM11.435 32.0558C11.6117 32.0116 11.8436 31.9647 12.1308 31.915C12.4235 31.8653 12.7603 31.8404 13.1414 31.8404C13.4175 31.8404 13.6494 31.8791 13.8372 31.9564C14.0249 32.0282 14.1823 32.1359 14.3093 32.2794C14.348 32.2518 14.4087 32.2132 14.4916 32.1635C14.5744 32.1138 14.6766 32.0668 14.798 32.0227C14.9195 31.973 15.0548 31.9315 15.2039 31.8984C15.353 31.8597 15.5132 31.8404 15.6844 31.8404C16.0157 31.8404 16.2863 31.8901 16.4961 31.9895C16.706 32.0834 16.8689 32.2187 16.9849 32.3954C17.1063 32.5721 17.1864 32.782 17.2251 33.0249C17.2693 33.2679 17.2913 33.533 17.2913 33.8201V36.2389H16.521V33.9858C16.521 33.7318 16.5072 33.5137 16.4796 33.3314C16.4575 33.1492 16.4105 32.9973 16.3388 32.8758C16.2725 32.7543 16.1786 32.666 16.0571 32.6108C15.9412 32.55 15.7893 32.5197 15.6015 32.5197C15.342 32.5197 15.1266 32.5555 14.9554 32.6273C14.7898 32.6936 14.6766 32.7543 14.6158 32.8096C14.66 32.9532 14.6931 33.1105 14.7152 33.2817C14.7373 33.4529 14.7483 33.6324 14.7483 33.8201V36.2389H13.978V33.9858C13.978 33.7318 13.9642 33.5137 13.9366 33.3314C13.909 33.1492 13.8593 32.9973 13.7875 32.8758C13.7212 32.7543 13.6273 32.666 13.5058 32.6108C13.3899 32.55 13.2408 32.5197 13.0585 32.5197C12.9812 32.5197 12.8984 32.5224 12.81 32.5279C12.7217 32.5335 12.6361 32.5417 12.5532 32.5528C12.4759 32.5583 12.4041 32.5666 12.3379 32.5776C12.2716 32.5887 12.2274 32.597 12.2053 32.6025V36.2389H11.435V32.0558ZM21.56 34.0935C21.56 33.591 21.4358 33.2044 21.1872 32.9338C20.9387 32.6632 20.6074 32.5279 20.1932 32.5279C19.9613 32.5279 19.7791 32.5362 19.6465 32.5528C19.5195 32.5694 19.4174 32.5887 19.3401 32.6108V35.3277C19.4339 35.405 19.5692 35.4796 19.7459 35.5514C19.9227 35.6232 20.1159 35.6591 20.3258 35.6591C20.5467 35.6591 20.7344 35.6204 20.889 35.5431C21.0492 35.4603 21.179 35.3498 21.2784 35.2118C21.3778 35.0682 21.4496 34.9025 21.4937 34.7147C21.5379 34.5215 21.56 34.3144 21.56 34.0935ZM22.3635 34.0935C22.3635 34.4193 22.3193 34.7203 22.231 34.9964C22.1481 35.2725 22.0239 35.51 21.8582 35.7088C21.6925 35.9076 21.4882 36.0622 21.2452 36.1726C21.0078 36.2831 20.7344 36.3383 20.4252 36.3383C20.1767 36.3383 19.9558 36.3052 19.7625 36.2389C19.5748 36.1726 19.4339 36.1091 19.3401 36.0484V37.7713H18.5697V32.0641C18.7519 32.0199 18.9783 31.973 19.2489 31.9233C19.5251 31.868 19.8426 31.8404 20.2015 31.8404C20.5329 31.8404 20.8311 31.8929 21.0961 31.9978C21.3612 32.1027 21.5876 32.2518 21.7754 32.4451C21.9631 32.6384 22.1067 32.8758 22.2061 33.1575C22.311 33.4336 22.3635 33.7456 22.3635 34.0935ZM24.7397 36.3217C24.2648 36.3107 23.9279 36.2085 23.7291 36.0152C23.5303 35.822 23.4309 35.521 23.4309 35.1124V29.9435L24.2013 29.811V34.9881C24.2013 35.1151 24.2123 35.22 24.2344 35.3029C24.2565 35.3857 24.2924 35.452 24.3421 35.5017C24.3918 35.5514 24.4581 35.59 24.5409 35.6176C24.6238 35.6397 24.7259 35.6591 24.8474 35.6756L24.7397 36.3217ZM26.4829 36.2389H25.7125V31.9315H26.4829V36.2389ZM26.0935 31.1529C25.9555 31.1529 25.8367 31.1087 25.7373 31.0204C25.6435 30.9265 25.5965 30.8022 25.5965 30.6476C25.5965 30.493 25.6435 30.3715 25.7373 30.2831C25.8367 30.1893 25.9555 30.1423 26.0935 30.1423C26.2316 30.1423 26.3476 30.1893 26.4414 30.2831C26.5408 30.3715 26.5905 30.493 26.5905 30.6476C26.5905 30.8022 26.5408 30.9265 26.4414 31.0204C26.3476 31.1087 26.2316 31.1529 26.0935 31.1529ZM29.2655 35.6839C29.4477 35.6839 29.6079 35.6811 29.7459 35.6756C29.8895 35.6646 30.0082 35.648 30.1021 35.6259V34.342C30.0469 34.3144 29.9558 34.2923 29.8288 34.2757C29.7073 34.2536 29.5582 34.2426 29.3815 34.2426C29.2655 34.2426 29.1412 34.2509 29.0087 34.2674C28.8817 34.284 28.763 34.3199 28.6525 34.3751C28.5476 34.4248 28.4592 34.4966 28.3874 34.5905C28.3157 34.6789 28.2798 34.7976 28.2798 34.9467C28.2798 35.2228 28.3681 35.4161 28.5448 35.5265C28.7215 35.6314 28.9618 35.6839 29.2655 35.6839ZM29.1992 31.8238C29.5085 31.8238 29.768 31.8653 29.9779 31.9481C30.1932 32.0254 30.3644 32.1386 30.4914 32.2877C30.624 32.4313 30.7178 32.6052 30.7731 32.8096C30.8283 33.0084 30.8559 33.2293 30.8559 33.4722V36.1643C30.7896 36.1754 30.6958 36.192 30.5743 36.214C30.4583 36.2306 30.3258 36.2472 30.1767 36.2637C30.0276 36.2803 29.8647 36.2941 29.6879 36.3052C29.5167 36.3217 29.3456 36.33 29.1744 36.33C28.9314 36.33 28.7077 36.3052 28.5034 36.2555C28.2991 36.2058 28.1224 36.1284 27.9733 36.0235C27.8242 35.9131 27.7082 35.7695 27.6254 35.5928C27.5425 35.4161 27.5011 35.2035 27.5011 34.955C27.5011 34.7175 27.5481 34.5132 27.6419 34.342C27.7413 34.1708 27.8739 34.0328 28.0395 33.9278C28.2052 33.8229 28.3985 33.7456 28.6194 33.6959C28.8403 33.6462 29.0722 33.6213 29.3152 33.6213C29.3925 33.6213 29.4726 33.6269 29.5554 33.6379C29.6382 33.6434 29.7156 33.6545 29.7873 33.671C29.8647 33.6821 29.9309 33.6931 29.9861 33.7042C30.0414 33.7152 30.08 33.7235 30.1021 33.729V33.5137C30.1021 33.3866 30.0883 33.2624 30.0607 33.1409C30.0331 33.0139 29.9834 32.9035 29.9116 32.8096C29.8398 32.7102 29.7404 32.6329 29.6134 32.5776C29.4919 32.5169 29.3318 32.4865 29.133 32.4865C28.8789 32.4865 28.6553 32.5058 28.462 32.5445C28.2742 32.5776 28.1334 32.6135 28.0395 32.6522L27.9484 32.0144C28.0478 31.9702 28.2135 31.9288 28.4454 31.8901C28.6774 31.8459 28.9286 31.8238 29.1992 31.8238ZM32.1354 32.0558C32.3121 32.0116 32.5468 31.9647 32.8394 31.915C33.1321 31.8653 33.469 31.8404 33.85 31.8404C34.1924 31.8404 34.4768 31.8901 34.7032 31.9895C34.9296 32.0834 35.1091 32.2187 35.2416 32.3954C35.3797 32.5666 35.4763 32.7737 35.5315 33.0167C35.5868 33.2596 35.6144 33.5275 35.6144 33.8201V36.2389H34.844V33.9858C34.844 33.7207 34.8247 33.4943 34.786 33.3066C34.7529 33.1188 34.6949 32.967 34.6121 32.851C34.5293 32.735 34.4188 32.6522 34.2807 32.6025C34.1427 32.5473 33.9715 32.5197 33.7672 32.5197C33.6843 32.5197 33.5988 32.5224 33.5104 32.5279C33.422 32.5335 33.3364 32.5417 33.2536 32.5528C33.1763 32.5583 33.1045 32.5666 33.0382 32.5776C32.9775 32.5887 32.9333 32.597 32.9057 32.6025V36.2389H32.1354V32.0558ZM38.7639 36.3383C38.416 36.3383 38.1095 36.2831 37.8444 36.1726C37.5849 36.0622 37.364 35.9076 37.1817 35.7088C37.005 35.51 36.8725 35.2753 36.7841 35.0047C36.6958 34.7286 36.6516 34.4248 36.6516 34.0935C36.6516 33.7622 36.6985 33.4584 36.7924 33.1823C36.8918 32.9062 37.0299 32.6688 37.2066 32.47C37.3833 32.2656 37.5987 32.1082 37.8527 31.9978C38.1122 31.8818 38.3994 31.8238 38.7142 31.8238C38.9074 31.8238 39.1007 31.8404 39.294 31.8735C39.4873 31.9067 39.6723 31.9591 39.849 32.0309L39.675 32.6853C39.5591 32.6301 39.4238 32.5859 39.2692 32.5528C39.1201 32.5197 38.9599 32.5031 38.7887 32.5031C38.358 32.5031 38.0267 32.6384 37.7947 32.909C37.5683 33.1796 37.4551 33.5744 37.4551 34.0935C37.4551 34.3254 37.4799 34.538 37.5296 34.7313C37.5849 34.9246 37.6677 35.0903 37.7781 35.2283C37.8941 35.3664 38.0405 35.4741 38.2172 35.5514C38.3939 35.6232 38.6092 35.6591 38.8633 35.6591C39.0676 35.6591 39.2526 35.6397 39.4183 35.6011C39.5839 35.5624 39.7137 35.521 39.8076 35.4768L39.9153 36.1229C39.8711 36.1505 39.8076 36.1781 39.7247 36.2058C39.6419 36.2278 39.548 36.2472 39.4431 36.2637C39.3382 36.2858 39.225 36.3024 39.1035 36.3134C38.9875 36.33 38.8743 36.3383 38.7639 36.3383ZM40.5021 34.0935C40.5021 33.7125 40.5573 33.3811 40.6678 33.0995C40.7782 32.8123 40.9245 32.5749 41.1068 32.3871C41.289 32.1994 41.4989 32.0585 41.7363 31.9647C41.9738 31.8708 42.2167 31.8238 42.4652 31.8238C43.0451 31.8238 43.4896 32.0061 43.7989 32.3706C44.1081 32.7295 44.2627 33.279 44.2627 34.0189C44.2627 34.0521 44.2627 34.0963 44.2627 34.1515C44.2627 34.2012 44.26 34.2481 44.2545 34.2923H41.3056C41.3387 34.7396 41.4685 35.0792 41.6949 35.3112C41.9213 35.5431 42.2747 35.6591 42.7552 35.6591C43.0258 35.6591 43.2522 35.637 43.4344 35.5928C43.6222 35.5431 43.763 35.4961 43.8569 35.452L43.9645 36.0981C43.8707 36.1478 43.705 36.2002 43.4675 36.2555C43.2356 36.3107 42.9705 36.3383 42.6723 36.3383C42.2968 36.3383 41.971 36.2831 41.6949 36.1726C41.4243 36.0567 41.2006 35.8993 41.0239 35.7005C40.8472 35.5017 40.7147 35.267 40.6263 34.9964C40.5435 34.7203 40.5021 34.4193 40.5021 34.0935ZM43.4593 33.671C43.4648 33.3231 43.3764 33.0387 43.1942 32.8179C43.0175 32.5914 42.7717 32.4782 42.457 32.4782C42.2803 32.4782 42.1229 32.5141 41.9848 32.5859C41.8523 32.6522 41.7391 32.7405 41.6452 32.851C41.5513 32.9614 41.4768 33.0884 41.4215 33.232C41.3718 33.3756 41.3387 33.5219 41.3221 33.671H43.4593ZM51.1714 36.2389C51.0775 35.9904 50.9892 35.7474 50.9063 35.51C50.8235 35.267 50.7379 35.0212 50.6496 34.7727H48.0486L47.5267 36.2389H46.6901C46.911 35.6314 47.1181 35.0709 47.3113 34.5574C47.5046 34.0383 47.6924 33.5468 47.8746 33.0829C48.0624 32.6191 48.2474 32.1773 48.4296 31.7576C48.6118 31.3324 48.8024 30.9127 49.0012 30.4985H49.7384C49.9372 30.9127 50.1277 31.3324 50.3099 31.7576C50.4922 32.1773 50.6744 32.6191 50.8566 33.0829C51.0444 33.5468 51.2349 34.0383 51.4282 34.5574C51.6215 35.0709 51.8286 35.6314 52.0494 36.2389H51.1714ZM50.4176 34.1101C50.2409 33.6296 50.0642 33.1658 49.8875 32.7185C49.7163 32.2656 49.5368 31.8321 49.3491 31.418C49.1558 31.8321 48.9708 32.2656 48.7941 32.7185C48.6229 33.1658 48.4517 33.6296 48.2805 34.1101H50.4176ZM56.0871 36.1146C55.9104 36.1588 55.6757 36.2058 55.383 36.2555C55.0958 36.3052 54.7617 36.33 54.3807 36.33C54.0494 36.33 53.7705 36.2831 53.5441 36.1892C53.3177 36.0898 53.1354 35.9517 52.9974 35.775C52.8593 35.5983 52.7599 35.3912 52.6992 35.1538C52.6384 34.9108 52.6081 34.643 52.6081 34.3503V31.9315H53.3784V34.1846C53.3784 34.7092 53.4612 35.0847 53.6269 35.3112C53.7926 35.5376 54.0715 35.6508 54.4635 35.6508C54.5464 35.6508 54.632 35.648 54.7203 35.6425C54.8087 35.637 54.8915 35.6314 54.9688 35.6259C55.0461 35.6149 55.1152 35.6066 55.1759 35.6011C55.2422 35.59 55.2891 35.579 55.3167 35.5679V31.9315H56.0871V36.1146ZM58.1349 31.9315H59.7667V32.5776H58.1349V34.5656C58.1349 34.781 58.1514 34.9605 58.1846 35.1041C58.2177 35.2421 58.2674 35.3526 58.3337 35.4354C58.3999 35.5127 58.4828 35.5679 58.5822 35.6011C58.6816 35.6342 58.7976 35.6508 58.9301 35.6508C59.162 35.6508 59.347 35.6259 59.4851 35.5762C59.6287 35.521 59.7281 35.4823 59.7833 35.4603L59.9324 36.0981C59.8551 36.1367 59.7198 36.1837 59.5265 36.2389C59.3332 36.2996 59.1123 36.33 58.8638 36.33C58.5711 36.33 58.3282 36.2941 58.1349 36.2223C57.9471 36.145 57.7953 36.0318 57.6793 35.8827C57.5633 35.7336 57.4805 35.5514 57.4308 35.336C57.3866 35.1151 57.3645 34.8611 57.3645 34.5739V30.7304L58.1349 30.5979V31.9315ZM64.4358 34.0852C64.4358 34.4276 64.3861 34.7368 64.2867 35.013C64.1873 35.2891 64.0465 35.5265 63.8643 35.7253C63.6876 35.9241 63.4749 36.0787 63.2264 36.1892C62.9779 36.2941 62.7074 36.3466 62.4147 36.3466C62.122 36.3466 61.8514 36.2941 61.6029 36.1892C61.3544 36.0787 61.139 35.9241 60.9568 35.7253C60.7801 35.5265 60.642 35.2891 60.5426 35.013C60.4432 34.7368 60.3935 34.4276 60.3935 34.0852C60.3935 33.7484 60.4432 33.4419 60.5426 33.1658C60.642 32.8841 60.7801 32.6439 60.9568 32.4451C61.139 32.2463 61.3544 32.0944 61.6029 31.9895C61.8514 31.8791 62.122 31.8238 62.4147 31.8238C62.7074 31.8238 62.9779 31.8791 63.2264 31.9895C63.4749 32.0944 63.6876 32.2463 63.8643 32.4451C64.0465 32.6439 64.1873 32.8841 64.2867 33.1658C64.3861 33.4419 64.4358 33.7484 64.4358 34.0852ZM63.6323 34.0852C63.6323 33.5993 63.5219 33.2155 63.301 32.9338C63.0856 32.6467 62.7902 32.5031 62.4147 32.5031C62.0392 32.5031 61.741 32.6467 61.5201 32.9338C61.3047 33.2155 61.197 33.5993 61.197 34.0852C61.197 34.5712 61.3047 34.9577 61.5201 35.2449C61.741 35.5265 62.0392 35.6673 62.4147 35.6673C62.7902 35.6673 63.0856 35.5265 63.301 35.2449C63.5219 34.9577 63.6323 34.5712 63.6323 34.0852ZM65.5196 32.0558C65.6964 32.0116 65.9283 31.9647 66.2154 31.915C66.5081 31.8653 66.845 31.8404 67.226 31.8404C67.5021 31.8404 67.7341 31.8791 67.9218 31.9564C68.1096 32.0282 68.267 32.1359 68.394 32.2794C68.4326 32.2518 68.4934 32.2132 68.5762 32.1635C68.659 32.1138 68.7612 32.0668 68.8827 32.0227C69.0042 31.973 69.1395 31.9315 69.2886 31.8984C69.4377 31.8597 69.5978 31.8404 69.769 31.8404C70.1004 31.8404 70.3709 31.8901 70.5808 31.9895C70.7906 32.0834 70.9535 32.2187 71.0695 32.3954C71.191 32.5721 71.2711 32.782 71.3097 33.0249C71.3539 33.2679 71.376 33.533 71.376 33.8201V36.2389H70.6056V33.9858C70.6056 33.7318 70.5918 33.5137 70.5642 33.3314C70.5421 33.1492 70.4952 32.9973 70.4234 32.8758C70.3571 32.7543 70.2633 32.666 70.1418 32.6108C70.0258 32.55 69.8739 32.5197 69.6862 32.5197C69.4266 32.5197 69.2113 32.5555 69.0401 32.6273C68.8744 32.6936 68.7612 32.7543 68.7005 32.8096C68.7446 32.9532 68.7778 33.1105 68.7999 33.2817C68.822 33.4529 68.833 33.6324 68.833 33.8201V36.2389H68.0626V33.9858C68.0626 33.7318 68.0488 33.5137 68.0212 33.3314C67.9936 33.1492 67.9439 32.9973 67.8721 32.8758C67.8059 32.7543 67.712 32.666 67.5905 32.6108C67.4745 32.55 67.3254 32.5197 67.1432 32.5197C67.0659 32.5197 66.983 32.5224 66.8947 32.5279C66.8063 32.5335 66.7207 32.5417 66.6379 32.5528C66.5606 32.5583 66.4888 32.5666 66.4225 32.5776C66.3563 32.5887 66.3121 32.597 66.29 32.6025V36.2389H65.5196V32.0558ZM74.1122 35.6839C74.2945 35.6839 74.4546 35.6811 74.5927 35.6756C74.7362 35.6646 74.855 35.648 74.9489 35.6259V34.342C74.8936 34.3144 74.8025 34.2923 74.6755 34.2757C74.554 34.2536 74.4049 34.2426 74.2282 34.2426C74.1122 34.2426 73.988 34.2509 73.8554 34.2674C73.7284 34.284 73.6097 34.3199 73.4993 34.3751C73.3943 34.4248 73.306 34.4966 73.2342 34.5905C73.1624 34.6789 73.1265 34.7976 73.1265 34.9467C73.1265 35.2228 73.2149 35.4161 73.3916 35.5265C73.5683 35.6314 73.8085 35.6839 74.1122 35.6839ZM74.046 31.8238C74.3552 31.8238 74.6148 31.8653 74.8246 31.9481C75.04 32.0254 75.2112 32.1386 75.3382 32.2877C75.4707 32.4313 75.5646 32.6052 75.6198 32.8096C75.675 33.0084 75.7026 33.2293 75.7026 33.4722V36.1643C75.6364 36.1754 75.5425 36.192 75.421 36.214C75.305 36.2306 75.1725 36.2472 75.0234 36.2637C74.8743 36.2803 74.7114 36.2941 74.5347 36.3052C74.3635 36.3217 74.1923 36.33 74.0211 36.33C73.7781 36.33 73.5545 36.3052 73.3502 36.2555C73.1458 36.2058 72.9691 36.1284 72.82 36.0235C72.6709 35.9131 72.555 35.7695 72.4721 35.5928C72.3893 35.4161 72.3479 35.2035 72.3479 34.955C72.3479 34.7175 72.3948 34.5132 72.4887 34.342C72.5881 34.1708 72.7206 34.0328 72.8863 33.9278C73.052 33.8229 73.2452 33.7456 73.4661 33.6959C73.687 33.6462 73.919 33.6213 74.1619 33.6213C74.2392 33.6213 74.3193 33.6269 74.4021 33.6379C74.485 33.6434 74.5623 33.6545 74.6341 33.671C74.7114 33.6821 74.7777 33.6931 74.8329 33.7042C74.8881 33.7152 74.9268 33.7235 74.9489 33.729V33.5137C74.9489 33.3866 74.935 33.2624 74.9074 33.1409C74.8798 33.0139 74.8301 32.9035 74.7583 32.8096C74.6865 32.7102 74.5871 32.6329 74.4601 32.5776C74.3386 32.5169 74.1785 32.4865 73.9797 32.4865C73.7257 32.4865 73.502 32.5058 73.3087 32.5445C73.121 32.5776 72.9802 32.6135 72.8863 32.6522L72.7952 32.0144C72.8946 31.9702 73.0602 31.9288 73.2922 31.8901C73.5241 31.8459 73.7754 31.8238 74.046 31.8238ZM77.7027 31.9315H79.3346V32.5776H77.7027V34.5656C77.7027 34.781 77.7193 34.9605 77.7524 35.1041C77.7856 35.2421 77.8353 35.3526 77.9015 35.4354C77.9678 35.5127 78.0506 35.5679 78.15 35.6011C78.2494 35.6342 78.3654 35.6508 78.4979 35.6508C78.7299 35.6508 78.9149 35.6259 79.0529 35.5762C79.1965 35.521 79.2959 35.4823 79.3511 35.4603L79.5002 36.0981C79.4229 36.1367 79.2876 36.1837 79.0944 36.2389C78.9011 36.2996 78.6802 36.33 78.4317 36.33C78.139 36.33 77.896 36.2941 77.7027 36.2223C77.515 36.145 77.3631 36.0318 77.2472 35.8827C77.1312 35.7336 77.0484 35.5514 76.9987 35.336C76.9545 35.1151 76.9324 34.8611 76.9324 34.5739V30.7304L77.7027 30.5979V31.9315ZM79.9937 34.0935C79.9937 33.7125 80.049 33.3811 80.1594 33.0995C80.2699 32.8123 80.4162 32.5749 80.5984 32.3871C80.7807 32.1994 80.9905 32.0585 81.228 31.9647C81.4654 31.8708 81.7084 31.8238 81.9569 31.8238C82.5367 31.8238 82.9813 32.0061 83.2905 32.3706C83.5998 32.7295 83.7544 33.279 83.7544 34.0189C83.7544 34.0521 83.7544 34.0963 83.7544 34.1515C83.7544 34.2012 83.7516 34.2481 83.7461 34.2923H80.7972C80.8304 34.7396 80.9601 35.0792 81.1866 35.3112C81.413 35.5431 81.7664 35.6591 82.2468 35.6591C82.5174 35.6591 82.7438 35.637 82.9261 35.5928C83.1138 35.5431 83.2546 35.4961 83.3485 35.452L83.4562 36.0981C83.3623 36.1478 83.1967 36.2002 82.9592 36.2555C82.7273 36.3107 82.4622 36.3383 82.164 36.3383C81.7885 36.3383 81.4627 36.2831 81.1866 36.1726C80.916 36.0567 80.6923 35.8993 80.5156 35.7005C80.3389 35.5017 80.2064 35.267 80.118 34.9964C80.0352 34.7203 79.9937 34.4193 79.9937 34.0935ZM82.9509 33.671C82.9564 33.3231 82.8681 33.0387 82.6858 32.8179C82.5091 32.5914 82.2634 32.4782 81.9486 32.4782C81.7719 32.4782 81.6145 32.5141 81.4765 32.5859C81.3439 32.6522 81.2307 32.7405 81.1369 32.851C81.043 32.9614 80.9684 33.0884 80.9132 33.232C80.8635 33.3756 80.8304 33.5219 80.8138 33.671H82.9509ZM87.6442 32.8427C87.5503 32.7654 87.4151 32.6908 87.2383 32.6191C87.0616 32.5473 86.8684 32.5114 86.6585 32.5114C86.4376 32.5114 86.2471 32.5528 86.087 32.6356C85.9323 32.7129 85.8053 32.8234 85.7059 32.967C85.6065 33.105 85.5347 33.2707 85.4905 33.464C85.4464 33.6572 85.4243 33.8643 85.4243 34.0852C85.4243 34.5877 85.5485 34.9771 85.797 35.2532C86.0455 35.5238 86.3769 35.6591 86.791 35.6591C87.0009 35.6591 87.1748 35.6508 87.3129 35.6342C87.4565 35.6121 87.5669 35.59 87.6442 35.5679V32.8427ZM87.6442 29.9435L88.4146 29.811V36.1146C88.2379 36.1643 88.0115 36.214 87.7353 36.2637C87.4592 36.3134 87.1417 36.3383 86.7828 36.3383C86.4514 36.3383 86.1532 36.2858 85.8882 36.1809C85.6231 36.076 85.3967 35.9269 85.2089 35.7336C85.0212 35.5403 84.8748 35.3056 84.7699 35.0295C84.6705 34.7479 84.6208 34.4331 84.6208 34.0852C84.6208 33.7539 84.6622 33.4502 84.745 33.174C84.8334 32.8979 84.9604 32.6605 85.1261 32.4617C85.2917 32.2629 85.4933 32.1082 85.7308 31.9978C85.9737 31.8874 86.2499 31.8321 86.5591 31.8321C86.8076 31.8321 87.0257 31.8653 87.2135 31.9315C87.4068 31.9978 87.5503 32.0613 87.6442 32.1221V29.9435Z" fill="#202020"/>
<path d="M4.05191 36.3631C3.64879 36.3631 3.28156 36.2969 2.95022 36.1643C2.61889 36.0318 2.33449 35.8385 2.09703 35.5845C1.85958 35.3305 1.67458 35.0185 1.54205 34.6485C1.41504 34.273 1.35153 33.845 1.35153 33.3646C1.35153 32.8841 1.42332 32.4589 1.5669 32.0889C1.716 31.7134 1.9148 31.3986 2.1633 31.1446C2.4118 30.8906 2.70172 30.6973 3.03306 30.5648C3.36439 30.4322 3.71782 30.366 4.09333 30.366C4.33079 30.366 4.54339 30.3825 4.73115 30.4157C4.92443 30.4488 5.0901 30.4875 5.22815 30.5316C5.37173 30.5758 5.4877 30.62 5.57605 30.6642C5.66441 30.7084 5.72516 30.7415 5.75829 30.7636L5.52635 31.4262C5.47665 31.3931 5.40486 31.3572 5.31099 31.3186C5.21711 31.2799 5.10942 31.2413 4.98793 31.2026C4.87197 31.1639 4.74219 31.1336 4.59862 31.1115C4.46056 31.0839 4.31974 31.0701 4.17616 31.0701C3.87244 31.0701 3.59909 31.1225 3.35611 31.2274C3.11313 31.3324 2.90604 31.4842 2.73485 31.683C2.56366 31.8818 2.43113 32.1248 2.33725 32.412C2.2489 32.6936 2.20472 33.0111 2.20472 33.3646C2.20472 33.7069 2.24337 34.0189 2.32069 34.3006C2.40352 34.5822 2.52501 34.8252 2.68515 35.0295C2.8453 35.2283 3.0441 35.3829 3.28156 35.4934C3.52454 35.6038 3.80617 35.6591 4.12646 35.6591C4.49645 35.6591 4.80294 35.6204 5.04592 35.5431C5.2889 35.4658 5.47113 35.3967 5.59262 35.336L5.79971 35.9987C5.76105 36.0263 5.69202 36.0622 5.59262 36.1064C5.49322 36.145 5.36897 36.1837 5.21987 36.2223C5.07077 36.261 4.89682 36.2941 4.69802 36.3217C4.49921 36.3493 4.28385 36.3631 4.05191 36.3631ZM10.3512 34.0852C10.3512 34.4276 10.3015 34.7368 10.2021 35.013C10.1027 35.2891 9.96185 35.5265 9.77961 35.7253C9.6029 35.9241 9.39029 36.0787 9.14179 36.1892C8.89329 36.2941 8.6227 36.3466 8.33002 36.3466C8.03734 36.3466 7.76675 36.2941 7.51825 36.1892C7.26975 36.0787 7.05438 35.9241 6.87214 35.7253C6.69543 35.5265 6.55738 35.2891 6.45797 35.013C6.35857 34.7368 6.30887 34.4276 6.30887 34.0852C6.30887 33.7484 6.35857 33.4419 6.45797 33.1658C6.55738 32.8841 6.69543 32.6439 6.87214 32.4451C7.05438 32.2463 7.26975 32.0944 7.51825 31.9895C7.76675 31.8791 8.03734 31.8238 8.33002 31.8238C8.6227 31.8238 8.89329 31.8791 9.14179 31.9895C9.39029 32.0944 9.6029 32.2463 9.77961 32.4451C9.96185 32.6439 10.1027 32.8841 10.2021 33.1658C10.3015 33.4419 10.3512 33.7484 10.3512 34.0852ZM9.54768 34.0852C9.54768 33.5993 9.43723 33.2155 9.21634 32.9338C9.00097 32.6467 8.70553 32.5031 8.33002 32.5031C7.95451 32.5031 7.6563 32.6467 7.43541 32.9338C7.22005 33.2155 7.11236 33.5993 7.11236 34.0852C7.11236 34.5712 7.22005 34.9577 7.43541 35.2449C7.6563 35.5265 7.95451 35.6673 8.33002 35.6673C8.70553 35.6673 9.00097 35.5265 9.21634 35.2449C9.43723 34.9577 9.54768 34.5712 9.54768 34.0852ZM11.435 32.0558C11.6117 32.0116 11.8436 31.9647 12.1308 31.915C12.4235 31.8653 12.7603 31.8404 13.1414 31.8404C13.4175 31.8404 13.6494 31.8791 13.8372 31.9564C14.0249 32.0282 14.1823 32.1359 14.3093 32.2794C14.348 32.2518 14.4087 32.2132 14.4916 32.1635C14.5744 32.1138 14.6766 32.0668 14.798 32.0227C14.9195 31.973 15.0548 31.9315 15.2039 31.8984C15.353 31.8597 15.5132 31.8404 15.6844 31.8404C16.0157 31.8404 16.2863 31.8901 16.4961 31.9895C16.706 32.0834 16.8689 32.2187 16.9849 32.3954C17.1063 32.5721 17.1864 32.782 17.2251 33.0249C17.2693 33.2679 17.2913 33.533 17.2913 33.8201V36.2389H16.521V33.9858C16.521 33.7318 16.5072 33.5137 16.4796 33.3314C16.4575 33.1492 16.4105 32.9973 16.3388 32.8758C16.2725 32.7543 16.1786 32.666 16.0571 32.6108C15.9412 32.55 15.7893 32.5197 15.6015 32.5197C15.342 32.5197 15.1266 32.5555 14.9554 32.6273C14.7898 32.6936 14.6766 32.7543 14.6158 32.8096C14.66 32.9532 14.6931 33.1105 14.7152 33.2817C14.7373 33.4529 14.7483 33.6324 14.7483 33.8201V36.2389H13.978V33.9858C13.978 33.7318 13.9642 33.5137 13.9366 33.3314C13.909 33.1492 13.8593 32.9973 13.7875 32.8758C13.7212 32.7543 13.6273 32.666 13.5058 32.6108C13.3899 32.55 13.2408 32.5197 13.0585 32.5197C12.9812 32.5197 12.8984 32.5224 12.81 32.5279C12.7217 32.5335 12.6361 32.5417 12.5532 32.5528C12.4759 32.5583 12.4041 32.5666 12.3379 32.5776C12.2716 32.5887 12.2274 32.597 12.2053 32.6025V36.2389H11.435V32.0558ZM21.56 34.0935C21.56 33.591 21.4358 33.2044 21.1872 32.9338C20.9387 32.6632 20.6074 32.5279 20.1932 32.5279C19.9613 32.5279 19.7791 32.5362 19.6465 32.5528C19.5195 32.5694 19.4174 32.5887 19.3401 32.6108V35.3277C19.4339 35.405 19.5692 35.4796 19.7459 35.5514C19.9227 35.6232 20.1159 35.6591 20.3258 35.6591C20.5467 35.6591 20.7344 35.6204 20.889 35.5431C21.0492 35.4603 21.179 35.3498 21.2784 35.2118C21.3778 35.0682 21.4496 34.9025 21.4937 34.7147C21.5379 34.5215 21.56 34.3144 21.56 34.0935ZM22.3635 34.0935C22.3635 34.4193 22.3193 34.7203 22.231 34.9964C22.1481 35.2725 22.0239 35.51 21.8582 35.7088C21.6925 35.9076 21.4882 36.0622 21.2452 36.1726C21.0078 36.2831 20.7344 36.3383 20.4252 36.3383C20.1767 36.3383 19.9558 36.3052 19.7625 36.2389C19.5748 36.1726 19.4339 36.1091 19.3401 36.0484V37.7713H18.5697V32.0641C18.7519 32.0199 18.9783 31.973 19.2489 31.9233C19.5251 31.868 19.8426 31.8404 20.2015 31.8404C20.5329 31.8404 20.8311 31.8929 21.0961 31.9978C21.3612 32.1027 21.5876 32.2518 21.7754 32.4451C21.9631 32.6384 22.1067 32.8758 22.2061 33.1575C22.311 33.4336 22.3635 33.7456 22.3635 34.0935ZM24.7397 36.3217C24.2648 36.3107 23.9279 36.2085 23.7291 36.0152C23.5303 35.822 23.4309 35.521 23.4309 35.1124V29.9435L24.2013 29.811V34.9881C24.2013 35.1151 24.2123 35.22 24.2344 35.3029C24.2565 35.3857 24.2924 35.452 24.3421 35.5017C24.3918 35.5514 24.4581 35.59 24.5409 35.6176C24.6238 35.6397 24.7259 35.6591 24.8474 35.6756L24.7397 36.3217ZM26.4829 36.2389H25.7125V31.9315H26.4829V36.2389ZM26.0935 31.1529C25.9555 31.1529 25.8367 31.1087 25.7373 31.0204C25.6435 30.9265 25.5965 30.8022 25.5965 30.6476C25.5965 30.493 25.6435 30.3715 25.7373 30.2831C25.8367 30.1893 25.9555 30.1423 26.0935 30.1423C26.2316 30.1423 26.3476 30.1893 26.4414 30.2831C26.5408 30.3715 26.5905 30.493 26.5905 30.6476C26.5905 30.8022 26.5408 30.9265 26.4414 31.0204C26.3476 31.1087 26.2316 31.1529 26.0935 31.1529ZM29.2655 35.6839C29.4477 35.6839 29.6079 35.6811 29.7459 35.6756C29.8895 35.6646 30.0082 35.648 30.1021 35.6259V34.342C30.0469 34.3144 29.9558 34.2923 29.8288 34.2757C29.7073 34.2536 29.5582 34.2426 29.3815 34.2426C29.2655 34.2426 29.1412 34.2509 29.0087 34.2674C28.8817 34.284 28.763 34.3199 28.6525 34.3751C28.5476 34.4248 28.4592 34.4966 28.3874 34.5905C28.3157 34.6789 28.2798 34.7976 28.2798 34.9467C28.2798 35.2228 28.3681 35.4161 28.5448 35.5265C28.7215 35.6314 28.9618 35.6839 29.2655 35.6839ZM29.1992 31.8238C29.5085 31.8238 29.768 31.8653 29.9779 31.9481C30.1932 32.0254 30.3644 32.1386 30.4914 32.2877C30.624 32.4313 30.7178 32.6052 30.7731 32.8096C30.8283 33.0084 30.8559 33.2293 30.8559 33.4722V36.1643C30.7896 36.1754 30.6958 36.192 30.5743 36.214C30.4583 36.2306 30.3258 36.2472 30.1767 36.2637C30.0276 36.2803 29.8647 36.2941 29.6879 36.3052C29.5167 36.3217 29.3456 36.33 29.1744 36.33C28.9314 36.33 28.7077 36.3052 28.5034 36.2555C28.2991 36.2058 28.1224 36.1284 27.9733 36.0235C27.8242 35.9131 27.7082 35.7695 27.6254 35.5928C27.5425 35.4161 27.5011 35.2035 27.5011 34.955C27.5011 34.7175 27.5481 34.5132 27.6419 34.342C27.7413 34.1708 27.8739 34.0328 28.0395 33.9278C28.2052 33.8229 28.3985 33.7456 28.6194 33.6959C28.8403 33.6462 29.0722 33.6213 29.3152 33.6213C29.3925 33.6213 29.4726 33.6269 29.5554 33.6379C29.6382 33.6434 29.7156 33.6545 29.7873 33.671C29.8647 33.6821 29.9309 33.6931 29.9861 33.7042C30.0414 33.7152 30.08 33.7235 30.1021 33.729V33.5137C30.1021 33.3866 30.0883 33.2624 30.0607 33.1409C30.0331 33.0139 29.9834 32.9035 29.9116 32.8096C29.8398 32.7102 29.7404 32.6329 29.6134 32.5776C29.4919 32.5169 29.3318 32.4865 29.133 32.4865C28.8789 32.4865 28.6553 32.5058 28.462 32.5445C28.2742 32.5776 28.1334 32.6135 28.0395 32.6522L27.9484 32.0144C28.0478 31.9702 28.2135 31.9288 28.4454 31.8901C28.6774 31.8459 28.9286 31.8238 29.1992 31.8238ZM32.1354 32.0558C32.3121 32.0116 32.5468 31.9647 32.8394 31.915C33.1321 31.8653 33.469 31.8404 33.85 31.8404C34.1924 31.8404 34.4768 31.8901 34.7032 31.9895C34.9296 32.0834 35.1091 32.2187 35.2416 32.3954C35.3797 32.5666 35.4763 32.7737 35.5315 33.0167C35.5868 33.2596 35.6144 33.5275 35.6144 33.8201V36.2389H34.844V33.9858C34.844 33.7207 34.8247 33.4943 34.786 33.3066C34.7529 33.1188 34.6949 32.967 34.6121 32.851C34.5293 32.735 34.4188 32.6522 34.2807 32.6025C34.1427 32.5473 33.9715 32.5197 33.7672 32.5197C33.6843 32.5197 33.5988 32.5224 33.5104 32.5279C33.422 32.5335 33.3364 32.5417 33.2536 32.5528C33.1763 32.5583 33.1045 32.5666 33.0382 32.5776C32.9775 32.5887 32.9333 32.597 32.9057 32.6025V36.2389H32.1354V32.0558ZM38.7639 36.3383C38.416 36.3383 38.1095 36.2831 37.8444 36.1726C37.5849 36.0622 37.364 35.9076 37.1817 35.7088C37.005 35.51 36.8725 35.2753 36.7841 35.0047C36.6958 34.7286 36.6516 34.4248 36.6516 34.0935C36.6516 33.7622 36.6985 33.4584 36.7924 33.1823C36.8918 32.9062 37.0299 32.6688 37.2066 32.47C37.3833 32.2656 37.5987 32.1082 37.8527 31.9978C38.1122 31.8818 38.3994 31.8238 38.7142 31.8238C38.9074 31.8238 39.1007 31.8404 39.294 31.8735C39.4873 31.9067 39.6723 31.9591 39.849 32.0309L39.675 32.6853C39.5591 32.6301 39.4238 32.5859 39.2692 32.5528C39.1201 32.5197 38.9599 32.5031 38.7887 32.5031C38.358 32.5031 38.0267 32.6384 37.7947 32.909C37.5683 33.1796 37.4551 33.5744 37.4551 34.0935C37.4551 34.3254 37.4799 34.538 37.5296 34.7313C37.5849 34.9246 37.6677 35.0903 37.7781 35.2283C37.8941 35.3664 38.0405 35.4741 38.2172 35.5514C38.3939 35.6232 38.6092 35.6591 38.8633 35.6591C39.0676 35.6591 39.2526 35.6397 39.4183 35.6011C39.5839 35.5624 39.7137 35.521 39.8076 35.4768L39.9153 36.1229C39.8711 36.1505 39.8076 36.1781 39.7247 36.2058C39.6419 36.2278 39.548 36.2472 39.4431 36.2637C39.3382 36.2858 39.225 36.3024 39.1035 36.3134C38.9875 36.33 38.8743 36.3383 38.7639 36.3383ZM40.5021 34.0935C40.5021 33.7125 40.5573 33.3811 40.6678 33.0995C40.7782 32.8123 40.9245 32.5749 41.1068 32.3871C41.289 32.1994 41.4989 32.0585 41.7363 31.9647C41.9738 31.8708 42.2167 31.8238 42.4652 31.8238C43.0451 31.8238 43.4896 32.0061 43.7989 32.3706C44.1081 32.7295 44.2627 33.279 44.2627 34.0189C44.2627 34.0521 44.2627 34.0963 44.2627 34.1515C44.2627 34.2012 44.26 34.2481 44.2545 34.2923H41.3056C41.3387 34.7396 41.4685 35.0792 41.6949 35.3112C41.9213 35.5431 42.2747 35.6591 42.7552 35.6591C43.0258 35.6591 43.2522 35.637 43.4344 35.5928C43.6222 35.5431 43.763 35.4961 43.8569 35.452L43.9645 36.0981C43.8707 36.1478 43.705 36.2002 43.4675 36.2555C43.2356 36.3107 42.9705 36.3383 42.6723 36.3383C42.2968 36.3383 41.971 36.2831 41.6949 36.1726C41.4243 36.0567 41.2006 35.8993 41.0239 35.7005C40.8472 35.5017 40.7147 35.267 40.6263 34.9964C40.5435 34.7203 40.5021 34.4193 40.5021 34.0935ZM43.4593 33.671C43.4648 33.3231 43.3764 33.0387 43.1942 32.8179C43.0175 32.5914 42.7717 32.4782 42.457 32.4782C42.2803 32.4782 42.1229 32.5141 41.9848 32.5859C41.8523 32.6522 41.7391 32.7405 41.6452 32.851C41.5513 32.9614 41.4768 33.0884 41.4215 33.232C41.3718 33.3756 41.3387 33.5219 41.3221 33.671H43.4593ZM51.1714 36.2389C51.0775 35.9904 50.9892 35.7474 50.9063 35.51C50.8235 35.267 50.7379 35.0212 50.6496 34.7727H48.0486L47.5267 36.2389H46.6901C46.911 35.6314 47.1181 35.0709 47.3113 34.5574C47.5046 34.0383 47.6924 33.5468 47.8746 33.0829C48.0624 32.6191 48.2474 32.1773 48.4296 31.7576C48.6118 31.3324 48.8024 30.9127 49.0012 30.4985H49.7384C49.9372 30.9127 50.1277 31.3324 50.3099 31.7576C50.4922 32.1773 50.6744 32.6191 50.8566 33.0829C51.0444 33.5468 51.2349 34.0383 51.4282 34.5574C51.6215 35.0709 51.8286 35.6314 52.0494 36.2389H51.1714ZM50.4176 34.1101C50.2409 33.6296 50.0642 33.1658 49.8875 32.7185C49.7163 32.2656 49.5368 31.8321 49.3491 31.418C49.1558 31.8321 48.9708 32.2656 48.7941 32.7185C48.6229 33.1658 48.4517 33.6296 48.2805 34.1101H50.4176ZM56.0871 36.1146C55.9104 36.1588 55.6757 36.2058 55.383 36.2555C55.0958 36.3052 54.7617 36.33 54.3807 36.33C54.0494 36.33 53.7705 36.2831 53.5441 36.1892C53.3177 36.0898 53.1354 35.9517 52.9974 35.775C52.8593 35.5983 52.7599 35.3912 52.6992 35.1538C52.6384 34.9108 52.6081 34.643 52.6081 34.3503V31.9315H53.3784V34.1846C53.3784 34.7092 53.4612 35.0847 53.6269 35.3112C53.7926 35.5376 54.0715 35.6508 54.4635 35.6508C54.5464 35.6508 54.632 35.648 54.7203 35.6425C54.8087 35.637 54.8915 35.6314 54.9688 35.6259C55.0461 35.6149 55.1152 35.6066 55.1759 35.6011C55.2422 35.59 55.2891 35.579 55.3167 35.5679V31.9315H56.0871V36.1146ZM58.1349 31.9315H59.7667V32.5776H58.1349V34.5656C58.1349 34.781 58.1514 34.9605 58.1846 35.1041C58.2177 35.2421 58.2674 35.3526 58.3337 35.4354C58.3999 35.5127 58.4828 35.5679 58.5822 35.6011C58.6816 35.6342 58.7976 35.6508 58.9301 35.6508C59.162 35.6508 59.347 35.6259 59.4851 35.5762C59.6287 35.521 59.7281 35.4823 59.7833 35.4603L59.9324 36.0981C59.8551 36.1367 59.7198 36.1837 59.5265 36.2389C59.3332 36.2996 59.1123 36.33 58.8638 36.33C58.5711 36.33 58.3282 36.2941 58.1349 36.2223C57.9471 36.145 57.7953 36.0318 57.6793 35.8827C57.5633 35.7336 57.4805 35.5514 57.4308 35.336C57.3866 35.1151 57.3645 34.8611 57.3645 34.5739V30.7304L58.1349 30.5979V31.9315ZM64.4358 34.0852C64.4358 34.4276 64.3861 34.7368 64.2867 35.013C64.1873 35.2891 64.0465 35.5265 63.8643 35.7253C63.6876 35.9241 63.4749 36.0787 63.2264 36.1892C62.9779 36.2941 62.7074 36.3466 62.4147 36.3466C62.122 36.3466 61.8514 36.2941 61.6029 36.1892C61.3544 36.0787 61.139 35.9241 60.9568 35.7253C60.7801 35.5265 60.642 35.2891 60.5426 35.013C60.4432 34.7368 60.3935 34.4276 60.3935 34.0852C60.3935 33.7484 60.4432 33.4419 60.5426 33.1658C60.642 32.8841 60.7801 32.6439 60.9568 32.4451C61.139 32.2463 61.3544 32.0944 61.6029 31.9895C61.8514 31.8791 62.122 31.8238 62.4147 31.8238C62.7074 31.8238 62.9779 31.8791 63.2264 31.9895C63.4749 32.0944 63.6876 32.2463 63.8643 32.4451C64.0465 32.6439 64.1873 32.8841 64.2867 33.1658C64.3861 33.4419 64.4358 33.7484 64.4358 34.0852ZM63.6323 34.0852C63.6323 33.5993 63.5219 33.2155 63.301 32.9338C63.0856 32.6467 62.7902 32.5031 62.4147 32.5031C62.0392 32.5031 61.741 32.6467 61.5201 32.9338C61.3047 33.2155 61.197 33.5993 61.197 34.0852C61.197 34.5712 61.3047 34.9577 61.5201 35.2449C61.741 35.5265 62.0392 35.6673 62.4147 35.6673C62.7902 35.6673 63.0856 35.5265 63.301 35.2449C63.5219 34.9577 63.6323 34.5712 63.6323 34.0852ZM65.5196 32.0558C65.6964 32.0116 65.9283 31.9647 66.2154 31.915C66.5081 31.8653 66.845 31.8404 67.226 31.8404C67.5021 31.8404 67.7341 31.8791 67.9218 31.9564C68.1096 32.0282 68.267 32.1359 68.394 32.2794C68.4326 32.2518 68.4934 32.2132 68.5762 32.1635C68.659 32.1138 68.7612 32.0668 68.8827 32.0227C69.0042 31.973 69.1395 31.9315 69.2886 31.8984C69.4377 31.8597 69.5978 31.8404 69.769 31.8404C70.1004 31.8404 70.3709 31.8901 70.5808 31.9895C70.7906 32.0834 70.9535 32.2187 71.0695 32.3954C71.191 32.5721 71.2711 32.782 71.3097 33.0249C71.3539 33.2679 71.376 33.533 71.376 33.8201V36.2389H70.6056V33.9858C70.6056 33.7318 70.5918 33.5137 70.5642 33.3314C70.5421 33.1492 70.4952 32.9973 70.4234 32.8758C70.3571 32.7543 70.2633 32.666 70.1418 32.6108C70.0258 32.55 69.8739 32.5197 69.6862 32.5197C69.4266 32.5197 69.2113 32.5555 69.0401 32.6273C68.8744 32.6936 68.7612 32.7543 68.7005 32.8096C68.7446 32.9532 68.7778 33.1105 68.7999 33.2817C68.822 33.4529 68.833 33.6324 68.833 33.8201V36.2389H68.0626V33.9858C68.0626 33.7318 68.0488 33.5137 68.0212 33.3314C67.9936 33.1492 67.9439 32.9973 67.8721 32.8758C67.8059 32.7543 67.712 32.666 67.5905 32.6108C67.4745 32.55 67.3254 32.5197 67.1432 32.5197C67.0659 32.5197 66.983 32.5224 66.8947 32.5279C66.8063 32.5335 66.7207 32.5417 66.6379 32.5528C66.5606 32.5583 66.4888 32.5666 66.4225 32.5776C66.3563 32.5887 66.3121 32.597 66.29 32.6025V36.2389H65.5196V32.0558ZM74.1122 35.6839C74.2945 35.6839 74.4546 35.6811 74.5927 35.6756C74.7362 35.6646 74.855 35.648 74.9489 35.6259V34.342C74.8936 34.3144 74.8025 34.2923 74.6755 34.2757C74.554 34.2536 74.4049 34.2426 74.2282 34.2426C74.1122 34.2426 73.988 34.2509 73.8554 34.2674C73.7284 34.284 73.6097 34.3199 73.4993 34.3751C73.3943 34.4248 73.306 34.4966 73.2342 34.5905C73.1624 34.6789 73.1265 34.7976 73.1265 34.9467C73.1265 35.2228 73.2149 35.4161 73.3916 35.5265C73.5683 35.6314 73.8085 35.6839 74.1122 35.6839ZM74.046 31.8238C74.3552 31.8238 74.6148 31.8653 74.8246 31.9481C75.04 32.0254 75.2112 32.1386 75.3382 32.2877C75.4707 32.4313 75.5646 32.6052 75.6198 32.8096C75.675 33.0084 75.7026 33.2293 75.7026 33.4722V36.1643C75.6364 36.1754 75.5425 36.192 75.421 36.214C75.305 36.2306 75.1725 36.2472 75.0234 36.2637C74.8743 36.2803 74.7114 36.2941 74.5347 36.3052C74.3635 36.3217 74.1923 36.33 74.0211 36.33C73.7781 36.33 73.5545 36.3052 73.3502 36.2555C73.1458 36.2058 72.9691 36.1284 72.82 36.0235C72.6709 35.9131 72.555 35.7695 72.4721 35.5928C72.3893 35.4161 72.3479 35.2035 72.3479 34.955C72.3479 34.7175 72.3948 34.5132 72.4887 34.342C72.5881 34.1708 72.7206 34.0328 72.8863 33.9278C73.052 33.8229 73.2452 33.7456 73.4661 33.6959C73.687 33.6462 73.919 33.6213 74.1619 33.6213C74.2392 33.6213 74.3193 33.6269 74.4021 33.6379C74.485 33.6434 74.5623 33.6545 74.6341 33.671C74.7114 33.6821 74.7777 33.6931 74.8329 33.7042C74.8881 33.7152 74.9268 33.7235 74.9489 33.729V33.5137C74.9489 33.3866 74.935 33.2624 74.9074 33.1409C74.8798 33.0139 74.8301 32.9035 74.7583 32.8096C74.6865 32.7102 74.5871 32.6329 74.4601 32.5776C74.3386 32.5169 74.1785 32.4865 73.9797 32.4865C73.7257 32.4865 73.502 32.5058 73.3087 32.5445C73.121 32.5776 72.9802 32.6135 72.8863 32.6522L72.7952 32.0144C72.8946 31.9702 73.0602 31.9288 73.2922 31.8901C73.5241 31.8459 73.7754 31.8238 74.046 31.8238ZM77.7027 31.9315H79.3346V32.5776H77.7027V34.5656C77.7027 34.781 77.7193 34.9605 77.7524 35.1041C77.7856 35.2421 77.8353 35.3526 77.9015 35.4354C77.9678 35.5127 78.0506 35.5679 78.15 35.6011C78.2494 35.6342 78.3654 35.6508 78.4979 35.6508C78.7299 35.6508 78.9149 35.6259 79.0529 35.5762C79.1965 35.521 79.2959 35.4823 79.3511 35.4603L79.5002 36.0981C79.4229 36.1367 79.2876 36.1837 79.0944 36.2389C78.9011 36.2996 78.6802 36.33 78.4317 36.33C78.139 36.33 77.896 36.2941 77.7027 36.2223C77.515 36.145 77.3631 36.0318 77.2472 35.8827C77.1312 35.7336 77.0484 35.5514 76.9987 35.336C76.9545 35.1151 76.9324 34.8611 76.9324 34.5739V30.7304L77.7027 30.5979V31.9315ZM79.9937 34.0935C79.9937 33.7125 80.049 33.3811 80.1594 33.0995C80.2699 32.8123 80.4162 32.5749 80.5984 32.3871C80.7807 32.1994 80.9905 32.0585 81.228 31.9647C81.4654 31.8708 81.7084 31.8238 81.9569 31.8238C82.5367 31.8238 82.9813 32.0061 83.2905 32.3706C83.5998 32.7295 83.7544 33.279 83.7544 34.0189C83.7544 34.0521 83.7544 34.0963 83.7544 34.1515C83.7544 34.2012 83.7516 34.2481 83.7461 34.2923H80.7972C80.8304 34.7396 80.9601 35.0792 81.1866 35.3112C81.413 35.5431 81.7664 35.6591 82.2468 35.6591C82.5174 35.6591 82.7438 35.637 82.9261 35.5928C83.1138 35.5431 83.2546 35.4961 83.3485 35.452L83.4562 36.0981C83.3623 36.1478 83.1967 36.2002 82.9592 36.2555C82.7273 36.3107 82.4622 36.3383 82.164 36.3383C81.7885 36.3383 81.4627 36.2831 81.1866 36.1726C80.916 36.0567 80.6923 35.8993 80.5156 35.7005C80.3389 35.5017 80.2064 35.267 80.118 34.9964C80.0352 34.7203 79.9937 34.4193 79.9937 34.0935ZM82.9509 33.671C82.9564 33.3231 82.8681 33.0387 82.6858 32.8179C82.5091 32.5914 82.2634 32.4782 81.9486 32.4782C81.7719 32.4782 81.6145 32.5141 81.4765 32.5859C81.3439 32.6522 81.2307 32.7405 81.1369 32.851C81.043 32.9614 80.9684 33.0884 80.9132 33.232C80.8635 33.3756 80.8304 33.5219 80.8138 33.671H82.9509ZM87.6442 32.8427C87.5503 32.7654 87.4151 32.6908 87.2383 32.6191C87.0616 32.5473 86.8684 32.5114 86.6585 32.5114C86.4376 32.5114 86.2471 32.5528 86.087 32.6356C85.9323 32.7129 85.8053 32.8234 85.7059 32.967C85.6065 33.105 85.5347 33.2707 85.4905 33.464C85.4464 33.6572 85.4243 33.8643 85.4243 34.0852C85.4243 34.5877 85.5485 34.9771 85.797 35.2532C86.0455 35.5238 86.3769 35.6591 86.791 35.6591C87.0009 35.6591 87.1748 35.6508 87.3129 35.6342C87.4565 35.6121 87.5669 35.59 87.6442 35.5679V32.8427ZM87.6442 29.9435L88.4146 29.811V36.1146C88.2379 36.1643 88.0115 36.214 87.7353 36.2637C87.4592 36.3134 87.1417 36.3383 86.7828 36.3383C86.4514 36.3383 86.1532 36.2858 85.8882 36.1809C85.6231 36.076 85.3967 35.9269 85.2089 35.7336C85.0212 35.5403 84.8748 35.3056 84.7699 35.0295C84.6705 34.7479 84.6208 34.4331 84.6208 34.0852C84.6208 33.7539 84.6622 33.4502 84.745 33.174C84.8334 32.8979 84.9604 32.6605 85.1261 32.4617C85.2917 32.2629 85.4933 32.1082 85.7308 31.9978C85.9737 31.8874 86.2499 31.8321 86.5591 31.8321C86.8076 31.8321 87.0257 31.8653 87.2135 31.9315C87.4068 31.9978 87.5503 32.0613 87.6442 32.1221V29.9435Z" fill="#202020"/>
<path d="M4.05191 36.3631C3.64879 36.3631 3.28156 36.2969 2.95022 36.1643C2.61889 36.0318 2.33449 35.8385 2.09703 35.5845C1.85958 35.3305 1.67458 35.0185 1.54205 34.6485C1.41504 34.273 1.35153 33.845 1.35153 33.3646C1.35153 32.8841 1.42332 32.4589 1.5669 32.0889C1.716 31.7134 1.9148 31.3986 2.1633 31.1446C2.4118 30.8906 2.70172 30.6973 3.03306 30.5648C3.36439 30.4322 3.71782 30.366 4.09333 30.366C4.33079 30.366 4.54339 30.3825 4.73115 30.4157C4.92443 30.4488 5.0901 30.4875 5.22815 30.5316C5.37173 30.5758 5.4877 30.62 5.57605 30.6642C5.66441 30.7084 5.72516 30.7415 5.75829 30.7636L5.52635 31.4262C5.47665 31.3931 5.40486 31.3572 5.31099 31.3186C5.21711 31.2799 5.10942 31.2413 4.98793 31.2026C4.87197 31.1639 4.74219 31.1336 4.59862 31.1115C4.46056 31.0839 4.31974 31.0701 4.17616 31.0701C3.87244 31.0701 3.59909 31.1225 3.35611 31.2274C3.11313 31.3324 2.90604 31.4842 2.73485 31.683C2.56366 31.8818 2.43113 32.1248 2.33725 32.412C2.2489 32.6936 2.20472 33.0111 2.20472 33.3646C2.20472 33.7069 2.24337 34.0189 2.32069 34.3006C2.40352 34.5822 2.52501 34.8252 2.68515 35.0295C2.8453 35.2283 3.0441 35.3829 3.28156 35.4934C3.52454 35.6038 3.80617 35.6591 4.12646 35.6591C4.49645 35.6591 4.80294 35.6204 5.04592 35.5431C5.2889 35.4658 5.47113 35.3967 5.59262 35.336L5.79971 35.9987C5.76105 36.0263 5.69202 36.0622 5.59262 36.1064C5.49322 36.145 5.36897 36.1837 5.21987 36.2223C5.07077 36.261 4.89682 36.2941 4.69802 36.3217C4.49921 36.3493 4.28385 36.3631 4.05191 36.3631ZM10.3512 34.0852C10.3512 34.4276 10.3015 34.7368 10.2021 35.013C10.1027 35.2891 9.96185 35.5265 9.77961 35.7253C9.6029 35.9241 9.39029 36.0787 9.14179 36.1892C8.89329 36.2941 8.6227 36.3466 8.33002 36.3466C8.03734 36.3466 7.76675 36.2941 7.51825 36.1892C7.26975 36.0787 7.05438 35.9241 6.87214 35.7253C6.69543 35.5265 6.55738 35.2891 6.45797 35.013C6.35857 34.7368 6.30887 34.4276 6.30887 34.0852C6.30887 33.7484 6.35857 33.4419 6.45797 33.1658C6.55738 32.8841 6.69543 32.6439 6.87214 32.4451C7.05438 32.2463 7.26975 32.0944 7.51825 31.9895C7.76675 31.8791 8.03734 31.8238 8.33002 31.8238C8.6227 31.8238 8.89329 31.8791 9.14179 31.9895C9.39029 32.0944 9.6029 32.2463 9.77961 32.4451C9.96185 32.6439 10.1027 32.8841 10.2021 33.1658C10.3015 33.4419 10.3512 33.7484 10.3512 34.0852ZM9.54768 34.0852C9.54768 33.5993 9.43723 33.2155 9.21634 32.9338C9.00097 32.6467 8.70553 32.5031 8.33002 32.5031C7.95451 32.5031 7.6563 32.6467 7.43541 32.9338C7.22005 33.2155 7.11236 33.5993 7.11236 34.0852C7.11236 34.5712 7.22005 34.9577 7.43541 35.2449C7.6563 35.5265 7.95451 35.6673 8.33002 35.6673C8.70553 35.6673 9.00097 35.5265 9.21634 35.2449C9.43723 34.9577 9.54768 34.5712 9.54768 34.0852ZM11.435 32.0558C11.6117 32.0116 11.8436 31.9647 12.1308 31.915C12.4235 31.8653 12.7603 31.8404 13.1414 31.8404C13.4175 31.8404 13.6494 31.8791 13.8372 31.9564C14.0249 32.0282 14.1823 32.1359 14.3093 32.2794C14.348 32.2518 14.4087 32.2132 14.4916 32.1635C14.5744 32.1138 14.6766 32.0668 14.798 32.0227C14.9195 31.973 15.0548 31.9315 15.2039 31.8984C15.353 31.8597 15.5132 31.8404 15.6844 31.8404C16.0157 31.8404 16.2863 31.8901 16.4961 31.9895C16.706 32.0834 16.8689 32.2187 16.9849 32.3954C17.1063 32.5721 17.1864 32.782 17.2251 33.0249C17.2693 33.2679 17.2913 33.533 17.2913 33.8201V36.2389H16.521V33.9858C16.521 33.7318 16.5072 33.5137 16.4796 33.3314C16.4575 33.1492 16.4105 32.9973 16.3388 32.8758C16.2725 32.7543 16.1786 32.666 16.0571 32.6108C15.9412 32.55 15.7893 32.5197 15.6015 32.5197C15.342 32.5197 15.1266 32.5555 14.9554 32.6273C14.7898 32.6936 14.6766 32.7543 14.6158 32.8096C14.66 32.9532 14.6931 33.1105 14.7152 33.2817C14.7373 33.4529 14.7483 33.6324 14.7483 33.8201V36.2389H13.978V33.9858C13.978 33.7318 13.9642 33.5137 13.9366 33.3314C13.909 33.1492 13.8593 32.9973 13.7875 32.8758C13.7212 32.7543 13.6273 32.666 13.5058 32.6108C13.3899 32.55 13.2408 32.5197 13.0585 32.5197C12.9812 32.5197 12.8984 32.5224 12.81 32.5279C12.7217 32.5335 12.6361 32.5417 12.5532 32.5528C12.4759 32.5583 12.4041 32.5666 12.3379 32.5776C12.2716 32.5887 12.2274 32.597 12.2053 32.6025V36.2389H11.435V32.0558ZM21.56 34.0935C21.56 33.591 21.4358 33.2044 21.1872 32.9338C20.9387 32.6632 20.6074 32.5279 20.1932 32.5279C19.9613 32.5279 19.7791 32.5362 19.6465 32.5528C19.5195 32.5694 19.4174 32.5887 19.3401 32.6108V35.3277C19.4339 35.405 19.5692 35.4796 19.7459 35.5514C19.9227 35.6232 20.1159 35.6591 20.3258 35.6591C20.5467 35.6591 20.7344 35.6204 20.889 35.5431C21.0492 35.4603 21.179 35.3498 21.2784 35.2118C21.3778 35.0682 21.4496 34.9025 21.4937 34.7147C21.5379 34.5215 21.56 34.3144 21.56 34.0935ZM22.3635 34.0935C22.3635 34.4193 22.3193 34.7203 22.231 34.9964C22.1481 35.2725 22.0239 35.51 21.8582 35.7088C21.6925 35.9076 21.4882 36.0622 21.2452 36.1726C21.0078 36.2831 20.7344 36.3383 20.4252 36.3383C20.1767 36.3383 19.9558 36.3052 19.7625 36.2389C19.5748 36.1726 19.4339 36.1091 19.3401 36.0484V37.7713H18.5697V32.0641C18.7519 32.0199 18.9783 31.973 19.2489 31.9233C19.5251 31.868 19.8426 31.8404 20.2015 31.8404C20.5329 31.8404 20.8311 31.8929 21.0961 31.9978C21.3612 32.1027 21.5876 32.2518 21.7754 32.4451C21.9631 32.6384 22.1067 32.8758 22.2061 33.1575C22.311 33.4336 22.3635 33.7456 22.3635 34.0935ZM24.7397 36.3217C24.2648 36.3107 23.9279 36.2085 23.7291 36.0152C23.5303 35.822 23.4309 35.521 23.4309 35.1124V29.9435L24.2013 29.811V34.9881C24.2013 35.1151 24.2123 35.22 24.2344 35.3029C24.2565 35.3857 24.2924 35.452 24.3421 35.5017C24.3918 35.5514 24.4581 35.59 24.5409 35.6176C24.6238 35.6397 24.7259 35.6591 24.8474 35.6756L24.7397 36.3217ZM26.4829 36.2389H25.7125V31.9315H26.4829V36.2389ZM26.0935 31.1529C25.9555 31.1529 25.8367 31.1087 25.7373 31.0204C25.6435 30.9265 25.5965 30.8022 25.5965 30.6476C25.5965 30.493 25.6435 30.3715 25.7373 30.2831C25.8367 30.1893 25.9555 30.1423 26.0935 30.1423C26.2316 30.1423 26.3476 30.1893 26.4414 30.2831C26.5408 30.3715 26.5905 30.493 26.5905 30.6476C26.5905 30.8022 26.5408 30.9265 26.4414 31.0204C26.3476 31.1087 26.2316 31.1529 26.0935 31.1529ZM29.2655 35.6839C29.4477 35.6839 29.6079 35.6811 29.7459 35.6756C29.8895 35.6646 30.0082 35.648 30.1021 35.6259V34.342C30.0469 34.3144 29.9558 34.2923 29.8288 34.2757C29.7073 34.2536 29.5582 34.2426 29.3815 34.2426C29.2655 34.2426 29.1412 34.2509 29.0087 34.2674C28.8817 34.284 28.763 34.3199 28.6525 34.3751C28.5476 34.4248 28.4592 34.4966 28.3874 34.5905C28.3157 34.6789 28.2798 34.7976 28.2798 34.9467C28.2798 35.2228 28.3681 35.4161 28.5448 35.5265C28.7215 35.6314 28.9618 35.6839 29.2655 35.6839ZM29.1992 31.8238C29.5085 31.8238 29.768 31.8653 29.9779 31.9481C30.1932 32.0254 30.3644 32.1386 30.4914 32.2877C30.624 32.4313 30.7178 32.6052 30.7731 32.8096C30.8283 33.0084 30.8559 33.2293 30.8559 33.4722V36.1643C30.7896 36.1754 30.6958 36.192 30.5743 36.214C30.4583 36.2306 30.3258 36.2472 30.1767 36.2637C30.0276 36.2803 29.8647 36.2941 29.6879 36.3052C29.5167 36.3217 29.3456 36.33 29.1744 36.33C28.9314 36.33 28.7077 36.3052 28.5034 36.2555C28.2991 36.2058 28.1224 36.1284 27.9733 36.0235C27.8242 35.9131 27.7082 35.7695 27.6254 35.5928C27.5425 35.4161 27.5011 35.2035 27.5011 34.955C27.5011 34.7175 27.5481 34.5132 27.6419 34.342C27.7413 34.1708 27.8739 34.0328 28.0395 33.9278C28.2052 33.8229 28.3985 33.7456 28.6194 33.6959C28.8403 33.6462 29.0722 33.6213 29.3152 33.6213C29.3925 33.6213 29.4726 33.6269 29.5554 33.6379C29.6382 33.6434 29.7156 33.6545 29.7873 33.671C29.8647 33.6821 29.9309 33.6931 29.9861 33.7042C30.0414 33.7152 30.08 33.7235 30.1021 33.729V33.5137C30.1021 33.3866 30.0883 33.2624 30.0607 33.1409C30.0331 33.0139 29.9834 32.9035 29.9116 32.8096C29.8398 32.7102 29.7404 32.6329 29.6134 32.5776C29.4919 32.5169 29.3318 32.4865 29.133 32.4865C28.8789 32.4865 28.6553 32.5058 28.462 32.5445C28.2742 32.5776 28.1334 32.6135 28.0395 32.6522L27.9484 32.0144C28.0478 31.9702 28.2135 31.9288 28.4454 31.8901C28.6774 31.8459 28.9286 31.8238 29.1992 31.8238ZM32.1354 32.0558C32.3121 32.0116 32.5468 31.9647 32.8394 31.915C33.1321 31.8653 33.469 31.8404 33.85 31.8404C34.1924 31.8404 34.4768 31.8901 34.7032 31.9895C34.9296 32.0834 35.1091 32.2187 35.2416 32.3954C35.3797 32.5666 35.4763 32.7737 35.5315 33.0167C35.5868 33.2596 35.6144 33.5275 35.6144 33.8201V36.2389H34.844V33.9858C34.844 33.7207 34.8247 33.4943 34.786 33.3066C34.7529 33.1188 34.6949 32.967 34.6121 32.851C34.5293 32.735 34.4188 32.6522 34.2807 32.6025C34.1427 32.5473 33.9715 32.5197 33.7672 32.5197C33.6843 32.5197 33.5988 32.5224 33.5104 32.5279C33.422 32.5335 33.3364 32.5417 33.2536 32.5528C33.1763 32.5583 33.1045 32.5666 33.0382 32.5776C32.9775 32.5887 32.9333 32.597 32.9057 32.6025V36.2389H32.1354V32.0558ZM38.7639 36.3383C38.416 36.3383 38.1095 36.2831 37.8444 36.1726C37.5849 36.0622 37.364 35.9076 37.1817 35.7088C37.005 35.51 36.8725 35.2753 36.7841 35.0047C36.6958 34.7286 36.6516 34.4248 36.6516 34.0935C36.6516 33.7622 36.6985 33.4584 36.7924 33.1823C36.8918 32.9062 37.0299 32.6688 37.2066 32.47C37.3833 32.2656 37.5987 32.1082 37.8527 31.9978C38.1122 31.8818 38.3994 31.8238 38.7142 31.8238C38.9074 31.8238 39.1007 31.8404 39.294 31.8735C39.4873 31.9067 39.6723 31.9591 39.849 32.0309L39.675 32.6853C39.5591 32.6301 39.4238 32.5859 39.2692 32.5528C39.1201 32.5197 38.9599 32.5031 38.7887 32.5031C38.358 32.5031 38.0267 32.6384 37.7947 32.909C37.5683 33.1796 37.4551 33.5744 37.4551 34.0935C37.4551 34.3254 37.4799 34.538 37.5296 34.7313C37.5849 34.9246 37.6677 35.0903 37.7781 35.2283C37.8941 35.3664 38.0405 35.4741 38.2172 35.5514C38.3939 35.6232 38.6092 35.6591 38.8633 35.6591C39.0676 35.6591 39.2526 35.6397 39.4183 35.6011C39.5839 35.5624 39.7137 35.521 39.8076 35.4768L39.9153 36.1229C39.8711 36.1505 39.8076 36.1781 39.7247 36.2058C39.6419 36.2278 39.548 36.2472 39.4431 36.2637C39.3382 36.2858 39.225 36.3024 39.1035 36.3134C38.9875 36.33 38.8743 36.3383 38.7639 36.3383ZM40.5021 34.0935C40.5021 33.7125 40.5573 33.3811 40.6678 33.0995C40.7782 32.8123 40.9245 32.5749 41.1068 32.3871C41.289 32.1994 41.4989 32.0585 41.7363 31.9647C41.9738 31.8708 42.2167 31.8238 42.4652 31.8238C43.0451 31.8238 43.4896 32.0061 43.7989 32.3706C44.1081 32.7295 44.2627 33.279 44.2627 34.0189C44.2627 34.0521 44.2627 34.0963 44.2627 34.1515C44.2627 34.2012 44.26 34.2481 44.2545 34.2923H41.3056C41.3387 34.7396 41.4685 35.0792 41.6949 35.3112C41.9213 35.5431 42.2747 35.6591 42.7552 35.6591C43.0258 35.6591 43.2522 35.637 43.4344 35.5928C43.6222 35.5431 43.763 35.4961 43.8569 35.452L43.9645 36.0981C43.8707 36.1478 43.705 36.2002 43.4675 36.2555C43.2356 36.3107 42.9705 36.3383 42.6723 36.3383C42.2968 36.3383 41.971 36.2831 41.6949 36.1726C41.4243 36.0567 41.2006 35.8993 41.0239 35.7005C40.8472 35.5017 40.7147 35.267 40.6263 34.9964C40.5435 34.7203 40.5021 34.4193 40.5021 34.0935ZM43.4593 33.671C43.4648 33.3231 43.3764 33.0387 43.1942 32.8179C43.0175 32.5914 42.7717 32.4782 42.457 32.4782C42.2803 32.4782 42.1229 32.5141 41.9848 32.5859C41.8523 32.6522 41.7391 32.7405 41.6452 32.851C41.5513 32.9614 41.4768 33.0884 41.4215 33.232C41.3718 33.3756 41.3387 33.5219 41.3221 33.671H43.4593ZM51.1714 36.2389C51.0775 35.9904 50.9892 35.7474 50.9063 35.51C50.8235 35.267 50.7379 35.0212 50.6496 34.7727H48.0486L47.5267 36.2389H46.6901C46.911 35.6314 47.1181 35.0709 47.3113 34.5574C47.5046 34.0383 47.6924 33.5468 47.8746 33.0829C48.0624 32.6191 48.2474 32.1773 48.4296 31.7576C48.6118 31.3324 48.8024 30.9127 49.0012 30.4985H49.7384C49.9372 30.9127 50.1277 31.3324 50.3099 31.7576C50.4922 32.1773 50.6744 32.6191 50.8566 33.0829C51.0444 33.5468 51.2349 34.0383 51.4282 34.5574C51.6215 35.0709 51.8286 35.6314 52.0494 36.2389H51.1714ZM50.4176 34.1101C50.2409 33.6296 50.0642 33.1658 49.8875 32.7185C49.7163 32.2656 49.5368 31.8321 49.3491 31.418C49.1558 31.8321 48.9708 32.2656 48.7941 32.7185C48.6229 33.1658 48.4517 33.6296 48.2805 34.1101H50.4176ZM56.0871 36.1146C55.9104 36.1588 55.6757 36.2058 55.383 36.2555C55.0958 36.3052 54.7617 36.33 54.3807 36.33C54.0494 36.33 53.7705 36.2831 53.5441 36.1892C53.3177 36.0898 53.1354 35.9517 52.9974 35.775C52.8593 35.5983 52.7599 35.3912 52.6992 35.1538C52.6384 34.9108 52.6081 34.643 52.6081 34.3503V31.9315H53.3784V34.1846C53.3784 34.7092 53.4612 35.0847 53.6269 35.3112C53.7926 35.5376 54.0715 35.6508 54.4635 35.6508C54.5464 35.6508 54.632 35.648 54.7203 35.6425C54.8087 35.637 54.8915 35.6314 54.9688 35.6259C55.0461 35.6149 55.1152 35.6066 55.1759 35.6011C55.2422 35.59 55.2891 35.579 55.3167 35.5679V31.9315H56.0871V36.1146ZM58.1349 31.9315H59.7667V32.5776H58.1349V34.5656C58.1349 34.781 58.1514 34.9605 58.1846 35.1041C58.2177 35.2421 58.2674 35.3526 58.3337 35.4354C58.3999 35.5127 58.4828 35.5679 58.5822 35.6011C58.6816 35.6342 58.7976 35.6508 58.9301 35.6508C59.162 35.6508 59.347 35.6259 59.4851 35.5762C59.6287 35.521 59.7281 35.4823 59.7833 35.4603L59.9324 36.0981C59.8551 36.1367 59.7198 36.1837 59.5265 36.2389C59.3332 36.2996 59.1123 36.33 58.8638 36.33C58.5711 36.33 58.3282 36.2941 58.1349 36.2223C57.9471 36.145 57.7953 36.0318 57.6793 35.8827C57.5633 35.7336 57.4805 35.5514 57.4308 35.336C57.3866 35.1151 57.3645 34.8611 57.3645 34.5739V30.7304L58.1349 30.5979V31.9315ZM64.4358 34.0852C64.4358 34.4276 64.3861 34.7368 64.2867 35.013C64.1873 35.2891 64.0465 35.5265 63.8643 35.7253C63.6876 35.9241 63.4749 36.0787 63.2264 36.1892C62.9779 36.2941 62.7074 36.3466 62.4147 36.3466C62.122 36.3466 61.8514 36.2941 61.6029 36.1892C61.3544 36.0787 61.139 35.9241 60.9568 35.7253C60.7801 35.5265 60.642 35.2891 60.5426 35.013C60.4432 34.7368 60.3935 34.4276 60.3935 34.0852C60.3935 33.7484 60.4432 33.4419 60.5426 33.1658C60.642 32.8841 60.7801 32.6439 60.9568 32.4451C61.139 32.2463 61.3544 32.0944 61.6029 31.9895C61.8514 31.8791 62.122 31.8238 62.4147 31.8238C62.7074 31.8238 62.9779 31.8791 63.2264 31.9895C63.4749 32.0944 63.6876 32.2463 63.8643 32.4451C64.0465 32.6439 64.1873 32.8841 64.2867 33.1658C64.3861 33.4419 64.4358 33.7484 64.4358 34.0852ZM63.6323 34.0852C63.6323 33.5993 63.5219 33.2155 63.301 32.9338C63.0856 32.6467 62.7902 32.5031 62.4147 32.5031C62.0392 32.5031 61.741 32.6467 61.5201 32.9338C61.3047 33.2155 61.197 33.5993 61.197 34.0852C61.197 34.5712 61.3047 34.9577 61.5201 35.2449C61.741 35.5265 62.0392 35.6673 62.4147 35.6673C62.7902 35.6673 63.0856 35.5265 63.301 35.2449C63.5219 34.9577 63.6323 34.5712 63.6323 34.0852ZM65.5196 32.0558C65.6964 32.0116 65.9283 31.9647 66.2154 31.915C66.5081 31.8653 66.845 31.8404 67.226 31.8404C67.5021 31.8404 67.7341 31.8791 67.9218 31.9564C68.1096 32.0282 68.267 32.1359 68.394 32.2794C68.4326 32.2518 68.4934 32.2132 68.5762 32.1635C68.659 32.1138 68.7612 32.0668 68.8827 32.0227C69.0042 31.973 69.1395 31.9315 69.2886 31.8984C69.4377 31.8597 69.5978 31.8404 69.769 31.8404C70.1004 31.8404 70.3709 31.8901 70.5808 31.9895C70.7906 32.0834 70.9535 32.2187 71.0695 32.3954C71.191 32.5721 71.2711 32.782 71.3097 33.0249C71.3539 33.2679 71.376 33.533 71.376 33.8201V36.2389H70.6056V33.9858C70.6056 33.7318 70.5918 33.5137 70.5642 33.3314C70.5421 33.1492 70.4952 32.9973 70.4234 32.8758C70.3571 32.7543 70.2633 32.666 70.1418 32.6108C70.0258 32.55 69.8739 32.5197 69.6862 32.5197C69.4266 32.5197 69.2113 32.5555 69.0401 32.6273C68.8744 32.6936 68.7612 32.7543 68.7005 32.8096C68.7446 32.9532 68.7778 33.1105 68.7999 33.2817C68.822 33.4529 68.833 33.6324 68.833 33.8201V36.2389H68.0626V33.9858C68.0626 33.7318 68.0488 33.5137 68.0212 33.3314C67.9936 33.1492 67.9439 32.9973 67.8721 32.8758C67.8059 32.7543 67.712 32.666 67.5905 32.6108C67.4745 32.55 67.3254 32.5197 67.1432 32.5197C67.0659 32.5197 66.983 32.5224 66.8947 32.5279C66.8063 32.5335 66.7207 32.5417 66.6379 32.5528C66.5606 32.5583 66.4888 32.5666 66.4225 32.5776C66.3563 32.5887 66.3121 32.597 66.29 32.6025V36.2389H65.5196V32.0558ZM74.1122 35.6839C74.2945 35.6839 74.4546 35.6811 74.5927 35.6756C74.7362 35.6646 74.855 35.648 74.9489 35.6259V34.342C74.8936 34.3144 74.8025 34.2923 74.6755 34.2757C74.554 34.2536 74.4049 34.2426 74.2282 34.2426C74.1122 34.2426 73.988 34.2509 73.8554 34.2674C73.7284 34.284 73.6097 34.3199 73.4993 34.3751C73.3943 34.4248 73.306 34.4966 73.2342 34.5905C73.1624 34.6789 73.1265 34.7976 73.1265 34.9467C73.1265 35.2228 73.2149 35.4161 73.3916 35.5265C73.5683 35.6314 73.8085 35.6839 74.1122 35.6839ZM74.046 31.8238C74.3552 31.8238 74.6148 31.8653 74.8246 31.9481C75.04 32.0254 75.2112 32.1386 75.3382 32.2877C75.4707 32.4313 75.5646 32.6052 75.6198 32.8096C75.675 33.0084 75.7026 33.2293 75.7026 33.4722V36.1643C75.6364 36.1754 75.5425 36.192 75.421 36.214C75.305 36.2306 75.1725 36.2472 75.0234 36.2637C74.8743 36.2803 74.7114 36.2941 74.5347 36.3052C74.3635 36.3217 74.1923 36.33 74.0211 36.33C73.7781 36.33 73.5545 36.3052 73.3502 36.2555C73.1458 36.2058 72.9691 36.1284 72.82 36.0235C72.6709 35.9131 72.555 35.7695 72.4721 35.5928C72.3893 35.4161 72.3479 35.2035 72.3479 34.955C72.3479 34.7175 72.3948 34.5132 72.4887 34.342C72.5881 34.1708 72.7206 34.0328 72.8863 33.9278C73.052 33.8229 73.2452 33.7456 73.4661 33.6959C73.687 33.6462 73.919 33.6213 74.1619 33.6213C74.2392 33.6213 74.3193 33.6269 74.4021 33.6379C74.485 33.6434 74.5623 33.6545 74.6341 33.671C74.7114 33.6821 74.7777 33.6931 74.8329 33.7042C74.8881 33.7152 74.9268 33.7235 74.9489 33.729V33.5137C74.9489 33.3866 74.935 33.2624 74.9074 33.1409C74.8798 33.0139 74.8301 32.9035 74.7583 32.8096C74.6865 32.7102 74.5871 32.6329 74.4601 32.5776C74.3386 32.5169 74.1785 32.4865 73.9797 32.4865C73.7257 32.4865 73.502 32.5058 73.3087 32.5445C73.121 32.5776 72.9802 32.6135 72.8863 32.6522L72.7952 32.0144C72.8946 31.9702 73.0602 31.9288 73.2922 31.8901C73.5241 31.8459 73.7754 31.8238 74.046 31.8238ZM77.7027 31.9315H79.3346V32.5776H77.7027V34.5656C77.7027 34.781 77.7193 34.9605 77.7524 35.1041C77.7856 35.2421 77.8353 35.3526 77.9015 35.4354C77.9678 35.5127 78.0506 35.5679 78.15 35.6011C78.2494 35.6342 78.3654 35.6508 78.4979 35.6508C78.7299 35.6508 78.9149 35.6259 79.0529 35.5762C79.1965 35.521 79.2959 35.4823 79.3511 35.4603L79.5002 36.0981C79.4229 36.1367 79.2876 36.1837 79.0944 36.2389C78.9011 36.2996 78.6802 36.33 78.4317 36.33C78.139 36.33 77.896 36.2941 77.7027 36.2223C77.515 36.145 77.3631 36.0318 77.2472 35.8827C77.1312 35.7336 77.0484 35.5514 76.9987 35.336C76.9545 35.1151 76.9324 34.8611 76.9324 34.5739V30.7304L77.7027 30.5979V31.9315ZM79.9937 34.0935C79.9937 33.7125 80.049 33.3811 80.1594 33.0995C80.2699 32.8123 80.4162 32.5749 80.5984 32.3871C80.7807 32.1994 80.9905 32.0585 81.228 31.9647C81.4654 31.8708 81.7084 31.8238 81.9569 31.8238C82.5367 31.8238 82.9813 32.0061 83.2905 32.3706C83.5998 32.7295 83.7544 33.279 83.7544 34.0189C83.7544 34.0521 83.7544 34.0963 83.7544 34.1515C83.7544 34.2012 83.7516 34.2481 83.7461 34.2923H80.7972C80.8304 34.7396 80.9601 35.0792 81.1866 35.3112C81.413 35.5431 81.7664 35.6591 82.2468 35.6591C82.5174 35.6591 82.7438 35.637 82.9261 35.5928C83.1138 35.5431 83.2546 35.4961 83.3485 35.452L83.4562 36.0981C83.3623 36.1478 83.1967 36.2002 82.9592 36.2555C82.7273 36.3107 82.4622 36.3383 82.164 36.3383C81.7885 36.3383 81.4627 36.2831 81.1866 36.1726C80.916 36.0567 80.6923 35.8993 80.5156 35.7005C80.3389 35.5017 80.2064 35.267 80.118 34.9964C80.0352 34.7203 79.9937 34.4193 79.9937 34.0935ZM82.9509 33.671C82.9564 33.3231 82.8681 33.0387 82.6858 32.8179C82.5091 32.5914 82.2634 32.4782 81.9486 32.4782C81.7719 32.4782 81.6145 32.5141 81.4765 32.5859C81.3439 32.6522 81.2307 32.7405 81.1369 32.851C81.043 32.9614 80.9684 33.0884 80.9132 33.232C80.8635 33.3756 80.8304 33.5219 80.8138 33.671H82.9509ZM87.6442 32.8427C87.5503 32.7654 87.4151 32.6908 87.2383 32.6191C87.0616 32.5473 86.8684 32.5114 86.6585 32.5114C86.4376 32.5114 86.2471 32.5528 86.087 32.6356C85.9323 32.7129 85.8053 32.8234 85.7059 32.967C85.6065 33.105 85.5347 33.2707 85.4905 33.464C85.4464 33.6572 85.4243 33.8643 85.4243 34.0852C85.4243 34.5877 85.5485 34.9771 85.797 35.2532C86.0455 35.5238 86.3769 35.6591 86.791 35.6591C87.0009 35.6591 87.1748 35.6508 87.3129 35.6342C87.4565 35.6121 87.5669 35.59 87.6442 35.5679V32.8427ZM87.6442 29.9435L88.4146 29.811V36.1146C88.2379 36.1643 88.0115 36.214 87.7353 36.2637C87.4592 36.3134 87.1417 36.3383 86.7828 36.3383C86.4514 36.3383 86.1532 36.2858 85.8882 36.1809C85.6231 36.076 85.3967 35.9269 85.2089 35.7336C85.0212 35.5403 84.8748 35.3056 84.7699 35.0295C84.6705 34.7479 84.6208 34.4331 84.6208 34.0852C84.6208 33.7539 84.6622 33.4502 84.745 33.174C84.8334 32.8979 84.9604 32.6605 85.1261 32.4617C85.2917 32.2629 85.4933 32.1082 85.7308 31.9978C85.9737 31.8874 86.2499 31.8321 86.5591 31.8321C86.8076 31.8321 87.0257 31.8653 87.2135 31.9315C87.4068 31.9978 87.5503 32.0613 87.6442 32.1221V29.9435Z" fill="#202020"/>
</svg>
