<svg width="194" height="52" viewBox="0 0 194 52" fill="none" xmlns="http://www.w3.org/2000/svg">
<g clip-path="url(#clip0_442_2138)">
<path d="M61.7538 25.5669C63.3459 25.5669 64.5049 25.2976 65.2307 24.7591C65.9565 24.2206 66.3194 23.4597 66.3194 22.4763C66.3194 21.891 66.1907 21.3876 65.9331 20.9662C65.699 20.5447 65.3478 20.1701 64.8795 19.8423C64.4347 19.4911 63.8844 19.1751 63.2289 18.8941C62.5733 18.5897 61.8241 18.2971 60.9812 18.0161C60.1383 17.7117 59.3188 17.3839 58.5228 17.0327C57.7502 16.6581 57.0595 16.2016 56.4507 15.6631C55.8654 15.1245 55.3854 14.4807 55.0108 13.7315C54.6596 12.9822 54.484 12.0808 54.484 11.0272C54.484 8.82637 55.2449 7.10549 56.7668 5.86458C58.2887 4.60026 60.3607 3.9681 62.983 3.9681C64.5049 3.9681 65.8512 4.14371 67.0218 4.49491C68.2159 4.82269 69.1524 5.1856 69.8314 5.58362L68.4617 9.16586C67.6657 8.72101 66.7877 8.38151 65.8277 8.14738C64.8912 7.91325 63.9196 7.79618 62.9128 7.79618C61.7187 7.79618 60.7822 8.04202 60.1032 8.5337C59.4476 9.02538 59.1198 9.71607 59.1198 10.6058C59.1198 11.1443 59.2252 11.6126 59.4359 12.0106C59.67 12.3852 59.9861 12.7247 60.3842 13.0291C60.8056 13.3334 61.2856 13.6144 61.8241 13.8719C62.386 14.1295 62.9947 14.3753 63.6503 14.6095C64.7976 15.0309 65.816 15.464 66.7057 15.9089C67.6189 16.3303 68.3798 16.8454 68.9885 17.4542C69.6207 18.0395 70.1007 18.7419 70.4285 19.5614C70.7563 20.3574 70.9201 21.3291 70.9201 22.4763C70.9201 24.6772 70.1358 26.3864 68.5671 27.6038C67.0218 28.7979 64.7507 29.395 61.7538 29.395C60.7471 29.395 59.8222 29.3247 58.9794 29.1842C58.1599 29.0672 57.4224 28.915 56.7668 28.7277C56.1346 28.5404 55.5844 28.3531 55.1162 28.1658C54.6479 27.955 54.2733 27.7677 53.9923 27.6038L55.2918 23.9865C55.9239 24.3377 56.7785 24.6889 57.8555 25.0401C58.9325 25.3913 60.232 25.5669 61.7538 25.5669ZM74.3984 5.65386L78.6479 4.95146V10.5004H85.1802V14.0475H78.6479V21.5281C78.6479 23.0031 78.882 24.0567 79.3503 24.6889C79.8186 25.321 80.6146 25.6371 81.7385 25.6371C82.5111 25.6371 83.1901 25.5552 83.7754 25.3913C84.3842 25.2274 84.8641 25.0752 85.2153 24.9347L85.9177 28.3062C85.4261 28.517 84.7822 28.7277 83.9861 28.9384C83.1901 29.1725 82.2536 29.2896 81.1765 29.2896C79.8654 29.2896 78.765 29.114 77.8753 28.7628C77.009 28.4116 76.3183 27.9082 75.8032 27.2526C75.2881 26.5737 74.9252 25.7659 74.7145 24.8294C74.5038 23.8694 74.3984 22.7807 74.3984 21.5632V5.65386ZM95.7502 25.883C97.0614 25.883 98.0564 25.8127 98.7354 25.6722V20.9662C98.5013 20.8959 98.1618 20.8257 97.717 20.7555C97.2721 20.6852 96.7804 20.6501 96.2419 20.6501C95.7736 20.6501 95.2937 20.6852 94.802 20.7555C94.3337 20.8257 93.9006 20.9545 93.5026 21.1418C93.1279 21.3291 92.8236 21.5983 92.5894 21.9495C92.3553 22.2773 92.2382 22.6988 92.2382 23.2138C92.2382 24.2206 92.5543 24.923 93.1865 25.321C93.8186 25.6957 94.6732 25.883 95.7502 25.883ZM95.399 10.0439C96.8038 10.0439 97.9862 10.2195 98.9462 10.5707C99.9061 10.9219 100.667 11.4135 101.229 12.0457C101.814 12.6779 102.224 13.4505 102.458 14.3636C102.716 15.2533 102.844 16.2367 102.844 17.3137V28.4467C102.189 28.5872 101.194 28.7511 99.8593 28.9384C98.5481 29.1491 97.0614 29.2545 95.399 29.2545C94.2986 29.2545 93.2918 29.1491 92.3787 28.9384C91.4656 28.7277 90.6813 28.3882 90.0257 27.9199C89.3935 27.4517 88.8901 26.8429 88.5155 26.0937C88.1643 25.3445 87.9887 24.4196 87.9887 23.3192C87.9887 22.2656 88.1877 21.3759 88.5858 20.6501C89.0072 19.9243 89.5691 19.3389 90.2715 18.8941C90.9739 18.4258 91.7817 18.098 92.6948 17.9107C93.6313 17.7 94.603 17.5947 95.6098 17.5947C96.078 17.5947 96.5697 17.6298 97.0848 17.7C97.5999 17.7468 98.1501 17.8405 98.7354 17.981V17.2786C98.7354 16.7869 98.6769 16.3186 98.5598 15.8738C98.4428 15.4289 98.232 15.0426 97.9277 14.7148C97.6467 14.3636 97.2604 14.0944 96.7687 13.9071C96.3004 13.7198 95.7034 13.6261 94.9776 13.6261C93.9942 13.6261 93.0928 13.6963 92.2734 13.8368C91.4539 13.9773 90.7866 14.1412 90.2715 14.3285L89.7447 10.8867C90.2832 10.6994 91.0676 10.5121 92.0978 10.3248C93.1279 10.1375 94.2284 10.0439 95.399 10.0439ZM107.03 19.7019C107.03 18.3439 107.241 17.0796 107.662 15.9089C108.084 14.7148 108.681 13.6846 109.453 12.8183C110.249 11.952 111.209 11.2731 112.333 10.7814C113.457 10.2897 114.721 10.0439 116.126 10.0439C117.859 10.0439 119.498 10.3599 121.043 10.9921L120.13 14.469C119.638 14.2583 119.076 14.0827 118.444 13.9422C117.835 13.8017 117.18 13.7315 116.477 13.7315C114.815 13.7315 113.551 14.2583 112.684 15.3119C111.818 16.342 111.385 17.8054 111.385 19.7019C111.385 21.5281 111.795 22.9797 112.614 24.0567C113.434 25.1103 114.815 25.6371 116.758 25.6371C117.484 25.6371 118.198 25.5669 118.901 25.4264C119.603 25.2859 120.212 25.1103 120.727 24.8996L121.324 28.4116C120.856 28.6457 120.142 28.8565 119.182 29.0438C118.245 29.2311 117.273 29.3247 116.267 29.3247C114.698 29.3247 113.328 29.0906 112.158 28.6223C111.01 28.1306 110.05 27.4634 109.278 26.6205C108.529 25.7542 107.967 24.7357 107.592 23.565C107.217 22.371 107.03 21.0832 107.03 19.7019ZM128.863 17.6649C129.402 17.103 129.976 16.5059 130.584 15.8738C131.193 15.2182 131.79 14.5743 132.375 13.9422C132.961 13.2866 133.511 12.6662 134.026 12.0808C134.565 11.4721 135.021 10.9453 135.396 10.5004H140.418C139.247 11.8116 138.006 13.1695 136.695 14.5743C135.407 15.9791 134.108 17.3488 132.797 18.6834C133.499 19.2687 134.237 19.9828 135.009 20.8257C135.782 21.6452 136.531 22.5232 137.257 23.4597C137.983 24.3962 138.662 25.3328 139.294 26.2693C139.926 27.2058 140.453 28.0721 140.874 28.8682H135.958C135.536 28.1424 135.045 27.3814 134.483 26.5854C133.944 25.7893 133.359 25.0167 132.727 24.2674C132.094 23.5182 131.451 22.8158 130.795 22.1602C130.139 21.4813 129.496 20.9076 128.863 20.4394V28.8682H124.614V2.31747L128.863 1.61507V17.6649ZM151.508 1.61507C152.398 1.61507 153.147 1.68531 153.756 1.82579C154.388 1.96627 154.88 2.10675 155.231 2.24723L154.564 5.68898C154.236 5.57192 153.838 5.46656 153.369 5.3729C152.925 5.27925 152.433 5.23242 151.894 5.23242C150.49 5.23242 149.518 5.60704 148.979 6.35626C148.464 7.10549 148.207 8.07714 148.207 9.27122V10.5004H154.95V14.0475H148.207V28.8682H143.957V9.20098C143.957 6.81282 144.578 4.95146 145.819 3.61691C147.06 2.28235 148.956 1.61507 151.508 1.61507ZM164.608 29.2194C163.344 29.196 162.29 29.0555 161.447 28.7979C160.628 28.5404 159.972 28.1775 159.48 27.7092C158.989 27.2175 158.637 26.6205 158.427 25.9181C158.239 25.1923 158.146 24.3728 158.146 23.4597V2.31747L162.395 1.61507V22.6519C162.395 23.167 162.43 23.6002 162.501 23.9514C162.594 24.3026 162.747 24.6069 162.957 24.8645C163.168 25.0986 163.449 25.2859 163.8 25.4264C164.175 25.5435 164.643 25.6371 165.205 25.7074L164.608 29.2194ZM185.263 19.6667C185.263 21.1184 185.052 22.4412 184.631 23.6353C184.209 24.8294 183.612 25.8478 182.84 26.6907C182.067 27.5336 181.13 28.1892 180.03 28.6574C178.953 29.1257 177.759 29.3598 176.448 29.3598C175.137 29.3598 173.942 29.1257 172.865 28.6574C171.788 28.1892 170.864 27.5336 170.091 26.6907C169.318 25.8478 168.71 24.8294 168.265 23.6353C167.843 22.4412 167.633 21.1184 167.633 19.6667C167.633 18.2151 167.843 16.904 168.265 15.7333C168.71 14.5392 169.318 13.5207 170.091 12.6779C170.887 11.835 171.824 11.1911 172.901 10.7463C173.978 10.278 175.16 10.0439 176.448 10.0439C177.735 10.0439 178.918 10.278 179.995 10.7463C181.095 11.1911 182.032 11.835 182.804 12.6779C183.577 13.5207 184.174 14.5392 184.596 15.7333C185.04 16.904 185.263 18.2151 185.263 19.6667ZM180.908 19.6667C180.908 17.8405 180.51 16.4006 179.714 15.347C178.941 14.27 177.852 13.7315 176.448 13.7315C175.043 13.7315 173.942 14.27 173.146 15.347C172.374 16.4006 171.987 17.8405 171.987 19.6667C171.987 21.5164 172.374 22.9797 173.146 24.0567C173.942 25.1337 175.043 25.6722 176.448 25.6722C177.852 25.6722 178.941 25.1337 179.714 24.0567C180.51 22.9797 180.908 21.5164 180.908 19.6667Z" fill="#202020"/>
<path d="M56.9446 49.3202C56.3414 49.3202 55.7918 49.221 55.296 49.0227C54.8002 48.8244 54.3746 48.5352 54.0193 48.1551C53.664 47.7749 53.3872 47.308 53.1888 46.7544C52.9988 46.1925 52.9037 45.552 52.9037 44.8331C52.9037 44.1142 53.0112 43.4779 53.226 42.9242C53.4491 42.3623 53.7466 41.8913 54.1185 41.5112C54.4903 41.1311 54.9242 40.8418 55.42 40.6435C55.9158 40.4452 56.4447 40.346 57.0066 40.346C57.3619 40.346 57.6801 40.3708 57.961 40.4204C58.2502 40.47 58.4981 40.5278 58.7047 40.5939C58.9196 40.66 59.0931 40.7261 59.2253 40.7923C59.3576 40.8584 59.4485 40.9079 59.498 40.941L59.151 41.9326C59.0766 41.883 58.9692 41.8293 58.8287 41.7715C58.6882 41.7136 58.5271 41.6558 58.3453 41.5979C58.1717 41.5401 57.9775 41.4947 57.7627 41.4616C57.5561 41.4203 57.3454 41.3996 57.1305 41.3996C56.676 41.3996 56.267 41.4781 55.9034 41.6351C55.5398 41.7921 55.2299 42.0194 54.9738 42.3169C54.7176 42.6144 54.5193 42.978 54.3788 43.4077C54.2466 43.8291 54.1805 44.3042 54.1805 44.8331C54.1805 45.3455 54.2383 45.8123 54.354 46.2338C54.4779 46.6552 54.6597 47.0188 54.8994 47.3246C55.139 47.6221 55.4365 47.8534 55.7918 48.0187C56.1554 48.184 56.5769 48.2666 57.0562 48.2666C57.6098 48.2666 58.0684 48.2088 58.432 48.0931C58.7956 47.9774 59.0683 47.8741 59.2501 47.7832L59.56 48.7748C59.5022 48.8161 59.3989 48.8698 59.2501 48.936C59.1014 48.9938 58.9155 49.0516 58.6923 49.1095C58.4692 49.1673 58.2089 49.2169 57.9114 49.2582C57.6139 49.2995 57.2917 49.3202 56.9446 49.3202ZM66.3708 45.9115C66.3708 46.4238 66.2965 46.8866 66.1477 47.2998C65.999 47.713 65.7882 48.0683 65.5156 48.3658C65.2511 48.6633 64.933 48.8946 64.5611 49.0599C64.1893 49.2169 63.7843 49.2954 63.3464 49.2954C62.9084 49.2954 62.5035 49.2169 62.1316 49.0599C61.7598 48.8946 61.4375 48.6633 61.1648 48.3658C60.9004 48.0683 60.6938 47.713 60.545 47.2998C60.3963 46.8866 60.3219 46.4238 60.3219 45.9115C60.3219 45.4074 60.3963 44.9488 60.545 44.5356C60.6938 44.1142 60.9004 43.7547 61.1648 43.4572C61.4375 43.1598 61.7598 42.9325 62.1316 42.7755C62.5035 42.6102 62.9084 42.5276 63.3464 42.5276C63.7843 42.5276 64.1893 42.6102 64.5611 42.7755C64.933 42.9325 65.2511 43.1598 65.5156 43.4572C65.7882 43.7547 65.999 44.1142 66.1477 44.5356C66.2965 44.9488 66.3708 45.4074 66.3708 45.9115ZM65.1685 45.9115C65.1685 45.1843 65.0032 44.61 64.6727 44.1886C64.3504 43.7589 63.9083 43.544 63.3464 43.544C62.7845 43.544 62.3382 43.7589 62.0077 44.1886C61.6854 44.61 61.5243 45.1843 61.5243 45.9115C61.5243 46.6387 61.6854 47.2171 62.0077 47.6468C62.3382 48.0683 62.7845 48.279 63.3464 48.279C63.9083 48.279 64.3504 48.0683 64.6727 47.6468C65.0032 47.2171 65.1685 46.6387 65.1685 45.9115ZM67.9927 42.8747C68.2571 42.8086 68.6042 42.7383 69.0339 42.6639C69.4718 42.5896 69.9759 42.5524 70.5461 42.5524C70.9593 42.5524 71.3063 42.6102 71.5873 42.7259C71.8683 42.8333 72.1038 42.9945 72.2938 43.2093C72.3517 43.168 72.4426 43.1102 72.5665 43.0358C72.6905 42.9614 72.8434 42.8912 73.0252 42.8251C73.207 42.7507 73.4094 42.6887 73.6325 42.6391C73.8556 42.5813 74.0953 42.5524 74.3515 42.5524C74.8473 42.5524 75.2522 42.6268 75.5662 42.7755C75.8802 42.916 76.124 43.1184 76.2975 43.3829C76.4793 43.6473 76.5991 43.9613 76.657 44.3249C76.7231 44.6885 76.7561 45.0852 76.7561 45.5149V49.1343H75.6034V45.7628C75.6034 45.3826 75.5827 45.0562 75.5414 44.7835C75.5083 44.5108 75.4381 44.2836 75.3307 44.1018C75.2315 43.92 75.091 43.7878 74.9092 43.7051C74.7357 43.6142 74.5085 43.5688 74.2275 43.5688C73.8391 43.5688 73.5168 43.6225 73.2607 43.7299C73.0128 43.8291 72.8434 43.92 72.7525 44.0026C72.8186 44.2175 72.8681 44.453 72.9012 44.7092C72.9343 44.9653 72.9508 45.2339 72.9508 45.5149V49.1343H71.798V45.7628C71.798 45.3826 71.7774 45.0562 71.736 44.7835C71.6947 44.5108 71.6204 44.2836 71.5129 44.1018C71.4138 43.92 71.2733 43.7878 71.0915 43.7051C70.918 43.6142 70.6948 43.5688 70.4221 43.5688C70.3065 43.5688 70.1825 43.5729 70.0503 43.5812C69.9181 43.5895 69.79 43.6018 69.666 43.6184C69.5503 43.6266 69.4429 43.639 69.3438 43.6556C69.2446 43.6721 69.1785 43.6845 69.1454 43.6927V49.1343H67.9927V42.8747ZM83.1438 45.9239C83.1438 45.1719 82.9578 44.5935 82.586 44.1886C82.2141 43.7836 81.7183 43.5812 81.0986 43.5812C80.7515 43.5812 80.4788 43.5936 80.2805 43.6184C80.0904 43.6432 79.9375 43.6721 79.8218 43.7051V47.7708C79.9623 47.8865 80.1648 47.998 80.4292 48.1055C80.6936 48.2129 80.9829 48.2666 81.2969 48.2666C81.6274 48.2666 81.9084 48.2088 82.1398 48.0931C82.3794 47.9691 82.5736 47.8039 82.7223 47.5973C82.8711 47.3824 82.9785 47.1345 83.0446 46.8535C83.1107 46.5643 83.1438 46.2544 83.1438 45.9239ZM84.3461 45.9239C84.3461 46.4114 84.28 46.8618 84.1478 47.275C84.0238 47.6882 83.8379 48.0435 83.59 48.341C83.3421 48.6385 83.0363 48.8698 82.6728 49.0351C82.3174 49.2004 81.9084 49.283 81.4456 49.283C81.0738 49.283 80.7432 49.2334 80.454 49.1343C80.173 49.0351 79.9623 48.9401 79.8218 48.8492V51.4274H78.6691V42.8871C78.9418 42.8209 79.2806 42.7507 79.6855 42.6763C80.0987 42.5937 80.5738 42.5524 81.1109 42.5524C81.6068 42.5524 82.053 42.6309 82.4496 42.7879C82.8463 42.9449 83.1851 43.168 83.4661 43.4572C83.747 43.7465 83.9619 44.1018 84.1106 44.5232C84.2676 44.9364 84.3461 45.4033 84.3461 45.9239ZM87.9019 49.2582C87.1913 49.2417 86.6872 49.0888 86.3897 48.7996C86.0922 48.5104 85.9435 48.06 85.9435 47.4485V39.7139L87.0962 39.5155V47.2626C87.0962 47.4527 87.1128 47.6097 87.1458 47.7336C87.1789 47.8576 87.2326 47.9567 87.3069 48.0311C87.3813 48.1055 87.4805 48.1633 87.6044 48.2046C87.7284 48.2377 87.8813 48.2666 88.0631 48.2914L87.9019 49.2582ZM90.5103 49.1343H89.3576V42.6887H90.5103V49.1343ZM89.9278 41.5236C89.7212 41.5236 89.5435 41.4575 89.3948 41.3252C89.2543 41.1848 89.1841 40.9988 89.1841 40.7675C89.1841 40.5361 89.2543 40.3543 89.3948 40.2221C89.5435 40.0816 89.7212 40.0113 89.9278 40.0113C90.1344 40.0113 90.3079 40.0816 90.4484 40.2221C90.5971 40.3543 90.6715 40.5361 90.6715 40.7675C90.6715 40.9988 90.5971 41.1848 90.4484 41.3252C90.3079 41.4575 90.1344 41.5236 89.9278 41.5236ZM94.6743 48.3038C94.947 48.3038 95.1866 48.2997 95.3932 48.2914C95.6081 48.2749 95.7857 48.2501 95.9262 48.217V46.2958C95.8436 46.2544 95.7072 46.2214 95.5172 46.1966C95.3354 46.1635 95.1123 46.147 94.8478 46.147C94.6743 46.147 94.4884 46.1594 94.29 46.1842C94.1 46.209 93.9223 46.2627 93.757 46.3453C93.6 46.4197 93.4678 46.5271 93.3604 46.6676C93.253 46.7998 93.1993 46.9775 93.1993 47.2006C93.1993 47.6138 93.3315 47.903 93.5959 48.0683C93.8603 48.2253 94.2198 48.3038 94.6743 48.3038ZM94.5751 42.5276C95.0379 42.5276 95.4263 42.5896 95.7403 42.7135C96.0626 42.8292 96.3187 42.9986 96.5088 43.2217C96.7071 43.4366 96.8476 43.6969 96.9302 44.0026C97.0129 44.3001 97.0542 44.6307 97.0542 44.9943V49.0227C96.955 49.0392 96.8145 49.064 96.6327 49.0971C96.4592 49.1219 96.2609 49.1467 96.0378 49.1715C95.8147 49.1963 95.5709 49.2169 95.3065 49.2334C95.0503 49.2582 94.7941 49.2706 94.5379 49.2706C94.1743 49.2706 93.8397 49.2334 93.5339 49.1591C93.2282 49.0847 92.9637 48.969 92.7406 48.812C92.5175 48.6467 92.344 48.4319 92.22 48.1674C92.0961 47.903 92.0341 47.5849 92.0341 47.213C92.0341 46.8577 92.1043 46.5519 92.2448 46.2958C92.3936 46.0396 92.5919 45.833 92.8398 45.676C93.0877 45.519 93.3769 45.4033 93.7075 45.3289C94.038 45.2546 94.3851 45.2174 94.7487 45.2174C94.8644 45.2174 94.9842 45.2256 95.1081 45.2422C95.2321 45.2504 95.3478 45.2669 95.4552 45.2917C95.5709 45.3083 95.67 45.3248 95.7527 45.3413C95.8353 45.3578 95.8932 45.3702 95.9262 45.3785V45.0562C95.9262 44.8662 95.9056 44.6802 95.8642 44.4984C95.8229 44.3084 95.7485 44.1431 95.6411 44.0026C95.5337 43.8539 95.385 43.7382 95.1949 43.6556C95.0131 43.5647 94.7735 43.5192 94.476 43.5192C94.0958 43.5192 93.7612 43.5481 93.4719 43.606C93.191 43.6556 92.9803 43.7093 92.8398 43.7671L92.7034 42.8127C92.8522 42.7466 93.1001 42.6846 93.4472 42.6268C93.7942 42.5606 94.1702 42.5276 94.5751 42.5276ZM98.9688 42.8747C99.2332 42.8086 99.5844 42.7383 100.022 42.6639C100.46 42.5896 100.964 42.5524 101.535 42.5524C102.047 42.5524 102.473 42.6268 102.811 42.7755C103.15 42.916 103.419 43.1184 103.617 43.3829C103.824 43.639 103.968 43.9489 104.051 44.3125C104.133 44.6761 104.175 45.0769 104.175 45.5149V49.1343H103.022V45.7628C103.022 45.3661 102.993 45.0273 102.935 44.7463C102.886 44.4654 102.799 44.2381 102.675 44.0646C102.551 43.8911 102.386 43.7671 102.179 43.6927C101.973 43.6101 101.716 43.5688 101.411 43.5688C101.287 43.5688 101.159 43.5729 101.026 43.5812C100.894 43.5895 100.766 43.6018 100.642 43.6184C100.526 43.6266 100.419 43.639 100.32 43.6556C100.229 43.6721 100.163 43.6845 100.122 43.6927V49.1343H98.9688V42.8747ZM108.888 49.283C108.367 49.283 107.908 49.2004 107.512 49.0351C107.123 48.8698 106.793 48.6385 106.52 48.341C106.256 48.0435 106.057 47.6923 105.925 47.2874C105.793 46.8742 105.727 46.4197 105.727 45.9239C105.727 45.4281 105.797 44.9736 105.938 44.5604C106.086 44.1472 106.293 43.7919 106.557 43.4944C106.822 43.1887 107.144 42.9532 107.524 42.7879C107.913 42.6144 108.342 42.5276 108.813 42.5276C109.103 42.5276 109.392 42.5524 109.681 42.602C109.97 42.6515 110.247 42.73 110.511 42.8375L110.251 43.8167C110.078 43.7341 109.875 43.668 109.644 43.6184C109.421 43.5688 109.181 43.544 108.925 43.544C108.28 43.544 107.785 43.7465 107.437 44.1514C107.099 44.5563 106.929 45.1471 106.929 45.9239C106.929 46.271 106.966 46.5891 107.041 46.8783C107.123 47.1676 107.247 47.4155 107.413 47.6221C107.586 47.8286 107.805 47.9898 108.07 48.1055C108.334 48.2129 108.656 48.2666 109.036 48.2666C109.342 48.2666 109.619 48.2377 109.867 48.1798C110.115 48.122 110.309 48.06 110.45 47.9939L110.611 48.9607C110.545 49.0021 110.45 49.0434 110.326 49.0847C110.202 49.1178 110.061 49.1467 109.904 49.1715C109.747 49.2045 109.578 49.2293 109.396 49.2458C109.222 49.2706 109.053 49.283 108.888 49.283ZM111.489 45.9239C111.489 45.3537 111.571 44.8579 111.737 44.4365C111.902 44.0068 112.121 43.6514 112.394 43.3705C112.666 43.0895 112.98 42.8788 113.336 42.7383C113.691 42.5978 114.055 42.5276 114.426 42.5276C115.294 42.5276 115.959 42.8003 116.422 43.3457C116.885 43.8828 117.116 44.705 117.116 45.8123C117.116 45.8619 117.116 45.928 117.116 46.0107C117.116 46.085 117.112 46.1553 117.104 46.2214H112.691C112.741 46.8907 112.935 47.3989 113.274 47.746C113.613 48.0931 114.141 48.2666 114.86 48.2666C115.265 48.2666 115.604 48.2336 115.877 48.1674C116.158 48.0931 116.368 48.0228 116.509 47.9567L116.67 48.9236C116.53 48.9979 116.282 49.0764 115.926 49.1591C115.579 49.2417 115.183 49.283 114.736 49.283C114.174 49.283 113.687 49.2004 113.274 49.0351C112.869 48.8616 112.534 48.6261 112.27 48.3286C112.005 48.0311 111.807 47.6799 111.675 47.275C111.551 46.8618 111.489 46.4114 111.489 45.9239ZM115.914 45.2917C115.922 44.7711 115.79 44.3456 115.517 44.015C115.253 43.6762 114.885 43.5068 114.414 43.5068C114.15 43.5068 113.914 43.5605 113.708 43.668C113.509 43.7671 113.34 43.8993 113.199 44.0646C113.059 44.2299 112.947 44.4199 112.865 44.6348C112.79 44.8496 112.741 45.0686 112.716 45.2917H115.914ZM127.454 49.1343C127.314 48.7624 127.182 48.3988 127.058 48.0435C126.934 47.6799 126.806 47.3122 126.673 46.9403H122.781L122 49.1343H120.749C121.079 48.2253 121.389 47.3865 121.678 46.618C121.967 45.8413 122.248 45.1058 122.521 44.4117C122.802 43.7175 123.079 43.0565 123.352 42.4284C123.624 41.7921 123.909 41.1641 124.207 40.5443H125.31C125.607 41.1641 125.893 41.7921 126.165 42.4284C126.438 43.0565 126.711 43.7175 126.983 44.4117C127.264 45.1058 127.549 45.8413 127.839 46.618C128.128 47.3865 128.438 48.2253 128.768 49.1343H127.454ZM126.326 45.9487C126.062 45.2298 125.798 44.5356 125.533 43.8663C125.277 43.1887 125.008 42.54 124.727 41.9202C124.438 42.54 124.161 43.1887 123.897 43.8663C123.641 44.5356 123.385 45.2298 123.128 45.9487H126.326ZM134.81 48.9483C134.546 49.0145 134.195 49.0847 133.757 49.1591C133.327 49.2334 132.827 49.2706 132.257 49.2706C131.761 49.2706 131.344 49.2004 131.005 49.0599C130.666 48.9112 130.393 48.7046 130.187 48.4401C129.98 48.1757 129.831 47.8658 129.741 47.5105C129.65 47.1469 129.604 46.7461 129.604 46.3082V42.6887H130.757V46.0602C130.757 46.8453 130.881 47.4072 131.129 47.746C131.377 48.0848 131.794 48.2542 132.381 48.2542C132.505 48.2542 132.633 48.2501 132.765 48.2418C132.897 48.2336 133.021 48.2253 133.137 48.217C133.253 48.2005 133.356 48.1881 133.447 48.1798C133.546 48.1633 133.616 48.1468 133.657 48.1303V42.6887H134.81V48.9483ZM137.875 42.6887H140.316V43.6556H137.875V46.6304C137.875 46.9527 137.899 47.2213 137.949 47.4361C137.999 47.6427 138.073 47.808 138.172 47.9319C138.271 48.0476 138.395 48.1303 138.544 48.1798C138.693 48.2294 138.866 48.2542 139.065 48.2542C139.412 48.2542 139.688 48.217 139.895 48.1427C140.11 48.06 140.259 48.0022 140.341 47.9691L140.564 48.9236C140.449 48.9814 140.246 49.0516 139.957 49.1343C139.668 49.2252 139.337 49.2706 138.965 49.2706C138.527 49.2706 138.164 49.2169 137.875 49.1095C137.594 48.9938 137.366 48.8244 137.193 48.6013C137.019 48.3782 136.895 48.1055 136.821 47.7832C136.755 47.4527 136.722 47.0725 136.722 46.6428V40.8914L137.875 40.6931V42.6887ZM147.303 45.9115C147.303 46.4238 147.229 46.8866 147.08 47.2998C146.931 47.713 146.721 48.0683 146.448 48.3658C146.184 48.6633 145.865 48.8946 145.494 49.0599C145.122 49.2169 144.717 49.2954 144.279 49.2954C143.841 49.2954 143.436 49.2169 143.064 49.0599C142.692 48.8946 142.37 48.6633 142.097 48.3658C141.833 48.0683 141.626 47.713 141.478 47.2998C141.329 46.8866 141.254 46.4238 141.254 45.9115C141.254 45.4074 141.329 44.9488 141.478 44.5356C141.626 44.1142 141.833 43.7547 142.097 43.4572C142.37 43.1598 142.692 42.9325 143.064 42.7755C143.436 42.6102 143.841 42.5276 144.279 42.5276C144.717 42.5276 145.122 42.6102 145.494 42.7755C145.865 42.9325 146.184 43.1598 146.448 43.4572C146.721 43.7547 146.931 44.1142 147.08 44.5356C147.229 44.9488 147.303 45.4074 147.303 45.9115ZM146.101 45.9115C146.101 45.1843 145.936 44.61 145.605 44.1886C145.283 43.7589 144.841 43.544 144.279 43.544C143.717 43.544 143.271 43.7589 142.94 44.1886C142.618 44.61 142.457 45.1843 142.457 45.9115C142.457 46.6387 142.618 47.2171 142.94 47.6468C143.271 48.0683 143.717 48.279 144.279 48.279C144.841 48.279 145.283 48.0683 145.605 47.6468C145.936 47.2171 146.101 46.6387 146.101 45.9115ZM148.925 42.8747C149.19 42.8086 149.537 42.7383 149.966 42.6639C150.404 42.5896 150.908 42.5524 151.479 42.5524C151.892 42.5524 152.239 42.6102 152.52 42.7259C152.801 42.8333 153.036 42.9945 153.226 43.2093C153.284 43.168 153.375 43.1102 153.499 43.0358C153.623 42.9614 153.776 42.8912 153.958 42.8251C154.139 42.7507 154.342 42.6887 154.565 42.6391C154.788 42.5813 155.028 42.5524 155.284 42.5524C155.78 42.5524 156.185 42.6268 156.499 42.7755C156.813 42.916 157.056 43.1184 157.23 43.3829C157.412 43.6473 157.532 43.9613 157.589 44.3249C157.656 44.6885 157.689 45.0852 157.689 45.5149V49.1343H156.536V45.7628C156.536 45.3826 156.515 45.0562 156.474 44.7835C156.441 44.5108 156.371 44.2836 156.263 44.1018C156.164 43.92 156.024 43.7878 155.842 43.7051C155.668 43.6142 155.441 43.5688 155.16 43.5688C154.772 43.5688 154.449 43.6225 154.193 43.7299C153.945 43.8291 153.776 43.92 153.685 44.0026C153.751 44.2175 153.801 44.453 153.834 44.7092C153.867 44.9653 153.883 45.2339 153.883 45.5149V49.1343H152.73V45.7628C152.73 45.3826 152.71 45.0562 152.669 44.7835C152.627 44.5108 152.553 44.2836 152.445 44.1018C152.346 43.92 152.206 43.7878 152.024 43.7051C151.85 43.6142 151.627 43.5688 151.355 43.5688C151.239 43.5688 151.115 43.5729 150.983 43.5812C150.851 43.5895 150.722 43.6018 150.599 43.6184C150.483 43.6266 150.375 43.639 150.276 43.6556C150.177 43.6721 150.111 43.6845 150.078 43.6927V49.1343H148.925V42.8747ZM161.783 48.3038C162.056 48.3038 162.295 48.2997 162.502 48.2914C162.717 48.2749 162.895 48.2501 163.035 48.217V46.2958C162.952 46.2544 162.816 46.2214 162.626 46.1966C162.444 46.1635 162.221 46.147 161.957 46.147C161.783 46.147 161.597 46.1594 161.399 46.1842C161.209 46.209 161.031 46.2627 160.866 46.3453C160.709 46.4197 160.577 46.5271 160.469 46.6676C160.362 46.7998 160.308 46.9775 160.308 47.2006C160.308 47.6138 160.44 47.903 160.705 48.0683C160.969 48.2253 161.329 48.3038 161.783 48.3038ZM161.684 42.5276C162.147 42.5276 162.535 42.5896 162.849 42.7135C163.171 42.8292 163.428 42.9986 163.618 43.2217C163.816 43.4366 163.956 43.6969 164.039 44.0026C164.122 44.3001 164.163 44.6307 164.163 44.9943V49.0227C164.064 49.0392 163.923 49.064 163.742 49.0971C163.568 49.1219 163.37 49.1467 163.147 49.1715C162.923 49.1963 162.68 49.2169 162.415 49.2334C162.159 49.2582 161.903 49.2706 161.647 49.2706C161.283 49.2706 160.949 49.2334 160.643 49.1591C160.337 49.0847 160.073 48.969 159.849 48.812C159.626 48.6467 159.453 48.4319 159.329 48.1674C159.205 47.903 159.143 47.5849 159.143 47.213C159.143 46.8577 159.213 46.5519 159.354 46.2958C159.502 46.0396 159.701 45.833 159.949 45.676C160.197 45.519 160.486 45.4033 160.816 45.3289C161.147 45.2546 161.494 45.2174 161.857 45.2174C161.973 45.2174 162.093 45.2256 162.217 45.2422C162.341 45.2504 162.457 45.2669 162.564 45.2917C162.68 45.3083 162.779 45.3248 162.862 45.3413C162.944 45.3578 163.002 45.3702 163.035 45.3785V45.0562C163.035 44.8662 163.014 44.6802 162.973 44.4984C162.932 44.3084 162.857 44.1431 162.75 44.0026C162.643 43.8539 162.494 43.7382 162.304 43.6556C162.122 43.5647 161.882 43.5192 161.585 43.5192C161.205 43.5192 160.87 43.5481 160.581 43.606C160.3 43.6556 160.089 43.7093 159.949 43.7671L159.812 42.8127C159.961 42.7466 160.209 42.6846 160.556 42.6268C160.903 42.5606 161.279 42.5276 161.684 42.5276ZM167.156 42.6887H169.598V43.6556H167.156V46.6304C167.156 46.9527 167.181 47.2213 167.23 47.4361C167.28 47.6427 167.354 47.808 167.453 47.9319C167.553 48.0476 167.677 48.1303 167.825 48.1798C167.974 48.2294 168.148 48.2542 168.346 48.2542C168.693 48.2542 168.97 48.217 169.176 48.1427C169.391 48.06 169.54 48.0022 169.623 47.9691L169.846 48.9236C169.73 48.9814 169.528 49.0516 169.238 49.1343C168.949 49.2252 168.619 49.2706 168.247 49.2706C167.809 49.2706 167.445 49.2169 167.156 49.1095C166.875 48.9938 166.648 48.8244 166.474 48.6013C166.301 48.3782 166.177 48.1055 166.102 47.7832C166.036 47.4527 166.003 47.0725 166.003 46.6428V40.8914L167.156 40.6931V42.6887ZM170.584 45.9239C170.584 45.3537 170.667 44.8579 170.832 44.4365C170.997 44.0068 171.216 43.6514 171.489 43.3705C171.762 43.0895 172.076 42.8788 172.431 42.7383C172.786 42.5978 173.15 42.5276 173.522 42.5276C174.39 42.5276 175.055 42.8003 175.518 43.3457C175.98 43.8828 176.212 44.705 176.212 45.8123C176.212 45.8619 176.212 45.928 176.212 46.0107C176.212 46.085 176.208 46.1553 176.199 46.2214H171.787C171.836 46.8907 172.03 47.3989 172.369 47.746C172.708 48.0931 173.237 48.2666 173.956 48.2666C174.361 48.2666 174.699 48.2336 174.972 48.1674C175.253 48.0931 175.464 48.0228 175.604 47.9567L175.765 48.9236C175.625 48.9979 175.377 49.0764 175.022 49.1591C174.675 49.2417 174.278 49.283 173.832 49.283C173.27 49.283 172.782 49.2004 172.369 49.0351C171.964 48.8616 171.63 48.6261 171.365 48.3286C171.101 48.0311 170.902 47.6799 170.77 47.275C170.646 46.8618 170.584 46.4114 170.584 45.9239ZM175.009 45.2917C175.018 44.7711 174.885 44.3456 174.613 44.015C174.348 43.6762 173.981 43.5068 173.51 43.5068C173.245 43.5068 173.01 43.5605 172.803 43.668C172.605 43.7671 172.435 43.8993 172.295 44.0646C172.154 44.2299 172.043 44.4199 171.96 44.6348C171.886 44.8496 171.836 45.0686 171.811 45.2917H175.009ZM182.032 44.0522C181.892 43.9365 181.69 43.825 181.425 43.7175C181.161 43.6101 180.871 43.5564 180.557 43.5564C180.227 43.5564 179.942 43.6184 179.702 43.7423C179.471 43.858 179.281 44.0233 179.132 44.2381C178.983 44.4447 178.876 44.6926 178.81 44.9819C178.744 45.2711 178.711 45.581 178.711 45.9115C178.711 46.6635 178.896 47.2461 179.268 47.6592C179.64 48.0642 180.136 48.2666 180.756 48.2666C181.07 48.2666 181.33 48.2542 181.537 48.2294C181.751 48.1964 181.917 48.1633 182.032 48.1303V44.0522ZM182.032 39.7139L183.185 39.5155V48.9483C182.921 49.0227 182.582 49.0971 182.169 49.1715C181.756 49.2458 181.28 49.283 180.743 49.283C180.248 49.283 179.801 49.2045 179.405 49.0475C179.008 48.8905 178.669 48.6674 178.388 48.3782C178.107 48.0889 177.888 47.7377 177.731 47.3246C177.583 46.9031 177.508 46.4321 177.508 45.9115C177.508 45.4157 177.57 44.9612 177.694 44.548C177.826 44.1348 178.016 43.7795 178.264 43.482C178.512 43.1845 178.814 42.9532 179.169 42.7879C179.533 42.6226 179.946 42.54 180.409 42.54C180.781 42.54 181.107 42.5896 181.388 42.6887C181.677 42.7879 181.892 42.8829 182.032 42.9738V39.7139Z" fill="#202020"/>
<path d="M56.9446 49.3202C56.3414 49.3202 55.7918 49.221 55.296 49.0227C54.8002 48.8244 54.3746 48.5352 54.0193 48.1551C53.664 47.7749 53.3872 47.308 53.1888 46.7544C52.9988 46.1925 52.9037 45.552 52.9037 44.8331C52.9037 44.1142 53.0112 43.4779 53.226 42.9242C53.4491 42.3623 53.7466 41.8913 54.1185 41.5112C54.4903 41.1311 54.9242 40.8418 55.42 40.6435C55.9158 40.4452 56.4447 40.346 57.0066 40.346C57.3619 40.346 57.6801 40.3708 57.961 40.4204C58.2502 40.47 58.4981 40.5278 58.7047 40.5939C58.9196 40.66 59.0931 40.7261 59.2253 40.7923C59.3576 40.8584 59.4485 40.9079 59.498 40.941L59.151 41.9326C59.0766 41.883 58.9692 41.8293 58.8287 41.7715C58.6882 41.7136 58.5271 41.6558 58.3453 41.5979C58.1717 41.5401 57.9775 41.4947 57.7627 41.4616C57.5561 41.4203 57.3454 41.3996 57.1305 41.3996C56.676 41.3996 56.267 41.4781 55.9034 41.6351C55.5398 41.7921 55.2299 42.0194 54.9738 42.3169C54.7176 42.6144 54.5193 42.978 54.3788 43.4077C54.2466 43.8291 54.1805 44.3042 54.1805 44.8331C54.1805 45.3455 54.2383 45.8123 54.354 46.2338C54.4779 46.6552 54.6597 47.0188 54.8994 47.3246C55.139 47.6221 55.4365 47.8534 55.7918 48.0187C56.1554 48.184 56.5769 48.2666 57.0562 48.2666C57.6098 48.2666 58.0684 48.2088 58.432 48.0931C58.7956 47.9774 59.0683 47.8741 59.2501 47.7832L59.56 48.7748C59.5022 48.8161 59.3989 48.8698 59.2501 48.936C59.1014 48.9938 58.9155 49.0516 58.6923 49.1095C58.4692 49.1673 58.2089 49.2169 57.9114 49.2582C57.6139 49.2995 57.2917 49.3202 56.9446 49.3202ZM66.3708 45.9115C66.3708 46.4238 66.2965 46.8866 66.1477 47.2998C65.999 47.713 65.7882 48.0683 65.5156 48.3658C65.2511 48.6633 64.933 48.8946 64.5611 49.0599C64.1893 49.2169 63.7843 49.2954 63.3464 49.2954C62.9084 49.2954 62.5035 49.2169 62.1316 49.0599C61.7598 48.8946 61.4375 48.6633 61.1648 48.3658C60.9004 48.0683 60.6938 47.713 60.545 47.2998C60.3963 46.8866 60.3219 46.4238 60.3219 45.9115C60.3219 45.4074 60.3963 44.9488 60.545 44.5356C60.6938 44.1142 60.9004 43.7547 61.1648 43.4572C61.4375 43.1598 61.7598 42.9325 62.1316 42.7755C62.5035 42.6102 62.9084 42.5276 63.3464 42.5276C63.7843 42.5276 64.1893 42.6102 64.5611 42.7755C64.933 42.9325 65.2511 43.1598 65.5156 43.4572C65.7882 43.7547 65.999 44.1142 66.1477 44.5356C66.2965 44.9488 66.3708 45.4074 66.3708 45.9115ZM65.1685 45.9115C65.1685 45.1843 65.0032 44.61 64.6727 44.1886C64.3504 43.7589 63.9083 43.544 63.3464 43.544C62.7845 43.544 62.3382 43.7589 62.0077 44.1886C61.6854 44.61 61.5243 45.1843 61.5243 45.9115C61.5243 46.6387 61.6854 47.2171 62.0077 47.6468C62.3382 48.0683 62.7845 48.279 63.3464 48.279C63.9083 48.279 64.3504 48.0683 64.6727 47.6468C65.0032 47.2171 65.1685 46.6387 65.1685 45.9115ZM67.9927 42.8747C68.2571 42.8086 68.6042 42.7383 69.0339 42.6639C69.4718 42.5896 69.9759 42.5524 70.5461 42.5524C70.9593 42.5524 71.3063 42.6102 71.5873 42.7259C71.8683 42.8333 72.1038 42.9945 72.2938 43.2093C72.3517 43.168 72.4426 43.1102 72.5665 43.0358C72.6905 42.9614 72.8434 42.8912 73.0252 42.8251C73.207 42.7507 73.4094 42.6887 73.6325 42.6391C73.8556 42.5813 74.0953 42.5524 74.3515 42.5524C74.8473 42.5524 75.2522 42.6268 75.5662 42.7755C75.8802 42.916 76.124 43.1184 76.2975 43.3829C76.4793 43.6473 76.5991 43.9613 76.657 44.3249C76.7231 44.6885 76.7561 45.0852 76.7561 45.5149V49.1343H75.6034V45.7628C75.6034 45.3826 75.5827 45.0562 75.5414 44.7835C75.5083 44.5108 75.4381 44.2836 75.3307 44.1018C75.2315 43.92 75.091 43.7878 74.9092 43.7051C74.7357 43.6142 74.5085 43.5688 74.2275 43.5688C73.8391 43.5688 73.5168 43.6225 73.2607 43.7299C73.0128 43.8291 72.8434 43.92 72.7525 44.0026C72.8186 44.2175 72.8681 44.453 72.9012 44.7092C72.9343 44.9653 72.9508 45.2339 72.9508 45.5149V49.1343H71.798V45.7628C71.798 45.3826 71.7774 45.0562 71.736 44.7835C71.6947 44.5108 71.6204 44.2836 71.5129 44.1018C71.4138 43.92 71.2733 43.7878 71.0915 43.7051C70.918 43.6142 70.6948 43.5688 70.4221 43.5688C70.3065 43.5688 70.1825 43.5729 70.0503 43.5812C69.9181 43.5895 69.79 43.6018 69.666 43.6184C69.5503 43.6266 69.4429 43.639 69.3438 43.6556C69.2446 43.6721 69.1785 43.6845 69.1454 43.6927V49.1343H67.9927V42.8747ZM83.1438 45.9239C83.1438 45.1719 82.9578 44.5935 82.586 44.1886C82.2141 43.7836 81.7183 43.5812 81.0986 43.5812C80.7515 43.5812 80.4788 43.5936 80.2805 43.6184C80.0904 43.6432 79.9375 43.6721 79.8218 43.7051V47.7708C79.9623 47.8865 80.1648 47.998 80.4292 48.1055C80.6936 48.2129 80.9829 48.2666 81.2969 48.2666C81.6274 48.2666 81.9084 48.2088 82.1398 48.0931C82.3794 47.9691 82.5736 47.8039 82.7223 47.5973C82.8711 47.3824 82.9785 47.1345 83.0446 46.8535C83.1107 46.5643 83.1438 46.2544 83.1438 45.9239ZM84.3461 45.9239C84.3461 46.4114 84.28 46.8618 84.1478 47.275C84.0238 47.6882 83.8379 48.0435 83.59 48.341C83.3421 48.6385 83.0363 48.8698 82.6728 49.0351C82.3174 49.2004 81.9084 49.283 81.4456 49.283C81.0738 49.283 80.7432 49.2334 80.454 49.1343C80.173 49.0351 79.9623 48.9401 79.8218 48.8492V51.4274H78.6691V42.8871C78.9418 42.8209 79.2806 42.7507 79.6855 42.6763C80.0987 42.5937 80.5738 42.5524 81.1109 42.5524C81.6068 42.5524 82.053 42.6309 82.4496 42.7879C82.8463 42.9449 83.1851 43.168 83.4661 43.4572C83.747 43.7465 83.9619 44.1018 84.1106 44.5232C84.2676 44.9364 84.3461 45.4033 84.3461 45.9239ZM87.9019 49.2582C87.1913 49.2417 86.6872 49.0888 86.3897 48.7996C86.0922 48.5104 85.9435 48.06 85.9435 47.4485V39.7139L87.0962 39.5155V47.2626C87.0962 47.4527 87.1128 47.6097 87.1458 47.7336C87.1789 47.8576 87.2326 47.9567 87.3069 48.0311C87.3813 48.1055 87.4805 48.1633 87.6044 48.2046C87.7284 48.2377 87.8813 48.2666 88.0631 48.2914L87.9019 49.2582ZM90.5103 49.1343H89.3576V42.6887H90.5103V49.1343ZM89.9278 41.5236C89.7212 41.5236 89.5435 41.4575 89.3948 41.3252C89.2543 41.1848 89.1841 40.9988 89.1841 40.7675C89.1841 40.5361 89.2543 40.3543 89.3948 40.2221C89.5435 40.0816 89.7212 40.0113 89.9278 40.0113C90.1344 40.0113 90.3079 40.0816 90.4484 40.2221C90.5971 40.3543 90.6715 40.5361 90.6715 40.7675C90.6715 40.9988 90.5971 41.1848 90.4484 41.3252C90.3079 41.4575 90.1344 41.5236 89.9278 41.5236ZM94.6743 48.3038C94.947 48.3038 95.1866 48.2997 95.3932 48.2914C95.6081 48.2749 95.7857 48.2501 95.9262 48.217V46.2958C95.8436 46.2544 95.7072 46.2214 95.5172 46.1966C95.3354 46.1635 95.1123 46.147 94.8478 46.147C94.6743 46.147 94.4884 46.1594 94.29 46.1842C94.1 46.209 93.9223 46.2627 93.757 46.3453C93.6 46.4197 93.4678 46.5271 93.3604 46.6676C93.253 46.7998 93.1993 46.9775 93.1993 47.2006C93.1993 47.6138 93.3315 47.903 93.5959 48.0683C93.8603 48.2253 94.2198 48.3038 94.6743 48.3038ZM94.5751 42.5276C95.0379 42.5276 95.4263 42.5896 95.7403 42.7135C96.0626 42.8292 96.3187 42.9986 96.5088 43.2217C96.7071 43.4366 96.8476 43.6969 96.9302 44.0026C97.0129 44.3001 97.0542 44.6307 97.0542 44.9943V49.0227C96.955 49.0392 96.8145 49.064 96.6327 49.0971C96.4592 49.1219 96.2609 49.1467 96.0378 49.1715C95.8147 49.1963 95.5709 49.2169 95.3065 49.2334C95.0503 49.2582 94.7941 49.2706 94.5379 49.2706C94.1743 49.2706 93.8397 49.2334 93.5339 49.1591C93.2282 49.0847 92.9637 48.969 92.7406 48.812C92.5175 48.6467 92.344 48.4319 92.22 48.1674C92.0961 47.903 92.0341 47.5849 92.0341 47.213C92.0341 46.8577 92.1043 46.5519 92.2448 46.2958C92.3936 46.0396 92.5919 45.833 92.8398 45.676C93.0877 45.519 93.3769 45.4033 93.7075 45.3289C94.038 45.2546 94.3851 45.2174 94.7487 45.2174C94.8644 45.2174 94.9842 45.2256 95.1081 45.2422C95.2321 45.2504 95.3478 45.2669 95.4552 45.2917C95.5709 45.3083 95.67 45.3248 95.7527 45.3413C95.8353 45.3578 95.8932 45.3702 95.9262 45.3785V45.0562C95.9262 44.8662 95.9056 44.6802 95.8642 44.4984C95.8229 44.3084 95.7485 44.1431 95.6411 44.0026C95.5337 43.8539 95.385 43.7382 95.1949 43.6556C95.0131 43.5647 94.7735 43.5192 94.476 43.5192C94.0958 43.5192 93.7612 43.5481 93.4719 43.606C93.191 43.6556 92.9803 43.7093 92.8398 43.7671L92.7034 42.8127C92.8522 42.7466 93.1001 42.6846 93.4472 42.6268C93.7942 42.5606 94.1702 42.5276 94.5751 42.5276ZM98.9688 42.8747C99.2332 42.8086 99.5844 42.7383 100.022 42.6639C100.46 42.5896 100.964 42.5524 101.535 42.5524C102.047 42.5524 102.473 42.6268 102.811 42.7755C103.15 42.916 103.419 43.1184 103.617 43.3829C103.824 43.639 103.968 43.9489 104.051 44.3125C104.133 44.6761 104.175 45.0769 104.175 45.5149V49.1343H103.022V45.7628C103.022 45.3661 102.993 45.0273 102.935 44.7463C102.886 44.4654 102.799 44.2381 102.675 44.0646C102.551 43.8911 102.386 43.7671 102.179 43.6927C101.973 43.6101 101.716 43.5688 101.411 43.5688C101.287 43.5688 101.159 43.5729 101.026 43.5812C100.894 43.5895 100.766 43.6018 100.642 43.6184C100.526 43.6266 100.419 43.639 100.32 43.6556C100.229 43.6721 100.163 43.6845 100.122 43.6927V49.1343H98.9688V42.8747ZM108.888 49.283C108.367 49.283 107.908 49.2004 107.512 49.0351C107.123 48.8698 106.793 48.6385 106.52 48.341C106.256 48.0435 106.057 47.6923 105.925 47.2874C105.793 46.8742 105.727 46.4197 105.727 45.9239C105.727 45.4281 105.797 44.9736 105.938 44.5604C106.086 44.1472 106.293 43.7919 106.557 43.4944C106.822 43.1887 107.144 42.9532 107.524 42.7879C107.913 42.6144 108.342 42.5276 108.813 42.5276C109.103 42.5276 109.392 42.5524 109.681 42.602C109.97 42.6515 110.247 42.73 110.511 42.8375L110.251 43.8167C110.078 43.7341 109.875 43.668 109.644 43.6184C109.421 43.5688 109.181 43.544 108.925 43.544C108.28 43.544 107.785 43.7465 107.437 44.1514C107.099 44.5563 106.929 45.1471 106.929 45.9239C106.929 46.271 106.966 46.5891 107.041 46.8783C107.123 47.1676 107.247 47.4155 107.413 47.6221C107.586 47.8286 107.805 47.9898 108.07 48.1055C108.334 48.2129 108.656 48.2666 109.036 48.2666C109.342 48.2666 109.619 48.2377 109.867 48.1798C110.115 48.122 110.309 48.06 110.45 47.9939L110.611 48.9607C110.545 49.0021 110.45 49.0434 110.326 49.0847C110.202 49.1178 110.061 49.1467 109.904 49.1715C109.747 49.2045 109.578 49.2293 109.396 49.2458C109.222 49.2706 109.053 49.283 108.888 49.283ZM111.489 45.9239C111.489 45.3537 111.571 44.8579 111.737 44.4365C111.902 44.0068 112.121 43.6514 112.394 43.3705C112.666 43.0895 112.98 42.8788 113.336 42.7383C113.691 42.5978 114.055 42.5276 114.426 42.5276C115.294 42.5276 115.959 42.8003 116.422 43.3457C116.885 43.8828 117.116 44.705 117.116 45.8123C117.116 45.8619 117.116 45.928 117.116 46.0107C117.116 46.085 117.112 46.1553 117.104 46.2214H112.691C112.741 46.8907 112.935 47.3989 113.274 47.746C113.613 48.0931 114.141 48.2666 114.86 48.2666C115.265 48.2666 115.604 48.2336 115.877 48.1674C116.158 48.0931 116.368 48.0228 116.509 47.9567L116.67 48.9236C116.53 48.9979 116.282 49.0764 115.926 49.1591C115.579 49.2417 115.183 49.283 114.736 49.283C114.174 49.283 113.687 49.2004 113.274 49.0351C112.869 48.8616 112.534 48.6261 112.27 48.3286C112.005 48.0311 111.807 47.6799 111.675 47.275C111.551 46.8618 111.489 46.4114 111.489 45.9239ZM115.914 45.2917C115.922 44.7711 115.79 44.3456 115.517 44.015C115.253 43.6762 114.885 43.5068 114.414 43.5068C114.15 43.5068 113.914 43.5605 113.708 43.668C113.509 43.7671 113.34 43.8993 113.199 44.0646C113.059 44.2299 112.947 44.4199 112.865 44.6348C112.79 44.8496 112.741 45.0686 112.716 45.2917H115.914ZM127.454 49.1343C127.314 48.7624 127.182 48.3988 127.058 48.0435C126.934 47.6799 126.806 47.3122 126.673 46.9403H122.781L122 49.1343H120.749C121.079 48.2253 121.389 47.3865 121.678 46.618C121.967 45.8413 122.248 45.1058 122.521 44.4117C122.802 43.7175 123.079 43.0565 123.352 42.4284C123.624 41.7921 123.909 41.1641 124.207 40.5443H125.31C125.607 41.1641 125.893 41.7921 126.165 42.4284C126.438 43.0565 126.711 43.7175 126.983 44.4117C127.264 45.1058 127.549 45.8413 127.839 46.618C128.128 47.3865 128.438 48.2253 128.768 49.1343H127.454ZM126.326 45.9487C126.062 45.2298 125.798 44.5356 125.533 43.8663C125.277 43.1887 125.008 42.54 124.727 41.9202C124.438 42.54 124.161 43.1887 123.897 43.8663C123.641 44.5356 123.385 45.2298 123.128 45.9487H126.326ZM134.81 48.9483C134.546 49.0145 134.195 49.0847 133.757 49.1591C133.327 49.2334 132.827 49.2706 132.257 49.2706C131.761 49.2706 131.344 49.2004 131.005 49.0599C130.666 48.9112 130.393 48.7046 130.187 48.4401C129.98 48.1757 129.831 47.8658 129.741 47.5105C129.65 47.1469 129.604 46.7461 129.604 46.3082V42.6887H130.757V46.0602C130.757 46.8453 130.881 47.4072 131.129 47.746C131.377 48.0848 131.794 48.2542 132.381 48.2542C132.505 48.2542 132.633 48.2501 132.765 48.2418C132.897 48.2336 133.021 48.2253 133.137 48.217C133.253 48.2005 133.356 48.1881 133.447 48.1798C133.546 48.1633 133.616 48.1468 133.657 48.1303V42.6887H134.81V48.9483ZM137.875 42.6887H140.316V43.6556H137.875V46.6304C137.875 46.9527 137.899 47.2213 137.949 47.4361C137.999 47.6427 138.073 47.808 138.172 47.9319C138.271 48.0476 138.395 48.1303 138.544 48.1798C138.693 48.2294 138.866 48.2542 139.065 48.2542C139.412 48.2542 139.688 48.217 139.895 48.1427C140.11 48.06 140.259 48.0022 140.341 47.9691L140.564 48.9236C140.449 48.9814 140.246 49.0516 139.957 49.1343C139.668 49.2252 139.337 49.2706 138.965 49.2706C138.527 49.2706 138.164 49.2169 137.875 49.1095C137.594 48.9938 137.366 48.8244 137.193 48.6013C137.019 48.3782 136.895 48.1055 136.821 47.7832C136.755 47.4527 136.722 47.0725 136.722 46.6428V40.8914L137.875 40.6931V42.6887ZM147.303 45.9115C147.303 46.4238 147.229 46.8866 147.08 47.2998C146.931 47.713 146.721 48.0683 146.448 48.3658C146.184 48.6633 145.865 48.8946 145.494 49.0599C145.122 49.2169 144.717 49.2954 144.279 49.2954C143.841 49.2954 143.436 49.2169 143.064 49.0599C142.692 48.8946 142.37 48.6633 142.097 48.3658C141.833 48.0683 141.626 47.713 141.478 47.2998C141.329 46.8866 141.254 46.4238 141.254 45.9115C141.254 45.4074 141.329 44.9488 141.478 44.5356C141.626 44.1142 141.833 43.7547 142.097 43.4572C142.37 43.1598 142.692 42.9325 143.064 42.7755C143.436 42.6102 143.841 42.5276 144.279 42.5276C144.717 42.5276 145.122 42.6102 145.494 42.7755C145.865 42.9325 146.184 43.1598 146.448 43.4572C146.721 43.7547 146.931 44.1142 147.08 44.5356C147.229 44.9488 147.303 45.4074 147.303 45.9115ZM146.101 45.9115C146.101 45.1843 145.936 44.61 145.605 44.1886C145.283 43.7589 144.841 43.544 144.279 43.544C143.717 43.544 143.271 43.7589 142.94 44.1886C142.618 44.61 142.457 45.1843 142.457 45.9115C142.457 46.6387 142.618 47.2171 142.94 47.6468C143.271 48.0683 143.717 48.279 144.279 48.279C144.841 48.279 145.283 48.0683 145.605 47.6468C145.936 47.2171 146.101 46.6387 146.101 45.9115ZM148.925 42.8747C149.19 42.8086 149.537 42.7383 149.966 42.6639C150.404 42.5896 150.908 42.5524 151.479 42.5524C151.892 42.5524 152.239 42.6102 152.52 42.7259C152.801 42.8333 153.036 42.9945 153.226 43.2093C153.284 43.168 153.375 43.1102 153.499 43.0358C153.623 42.9614 153.776 42.8912 153.958 42.8251C154.139 42.7507 154.342 42.6887 154.565 42.6391C154.788 42.5813 155.028 42.5524 155.284 42.5524C155.78 42.5524 156.185 42.6268 156.499 42.7755C156.813 42.916 157.056 43.1184 157.23 43.3829C157.412 43.6473 157.532 43.9613 157.589 44.3249C157.656 44.6885 157.689 45.0852 157.689 45.5149V49.1343H156.536V45.7628C156.536 45.3826 156.515 45.0562 156.474 44.7835C156.441 44.5108 156.371 44.2836 156.263 44.1018C156.164 43.92 156.024 43.7878 155.842 43.7051C155.668 43.6142 155.441 43.5688 155.16 43.5688C154.772 43.5688 154.449 43.6225 154.193 43.7299C153.945 43.8291 153.776 43.92 153.685 44.0026C153.751 44.2175 153.801 44.453 153.834 44.7092C153.867 44.9653 153.883 45.2339 153.883 45.5149V49.1343H152.73V45.7628C152.73 45.3826 152.71 45.0562 152.669 44.7835C152.627 44.5108 152.553 44.2836 152.445 44.1018C152.346 43.92 152.206 43.7878 152.024 43.7051C151.85 43.6142 151.627 43.5688 151.355 43.5688C151.239 43.5688 151.115 43.5729 150.983 43.5812C150.851 43.5895 150.722 43.6018 150.599 43.6184C150.483 43.6266 150.375 43.639 150.276 43.6556C150.177 43.6721 150.111 43.6845 150.078 43.6927V49.1343H148.925V42.8747ZM161.783 48.3038C162.056 48.3038 162.295 48.2997 162.502 48.2914C162.717 48.2749 162.895 48.2501 163.035 48.217V46.2958C162.952 46.2544 162.816 46.2214 162.626 46.1966C162.444 46.1635 162.221 46.147 161.957 46.147C161.783 46.147 161.597 46.1594 161.399 46.1842C161.209 46.209 161.031 46.2627 160.866 46.3453C160.709 46.4197 160.577 46.5271 160.469 46.6676C160.362 46.7998 160.308 46.9775 160.308 47.2006C160.308 47.6138 160.44 47.903 160.705 48.0683C160.969 48.2253 161.329 48.3038 161.783 48.3038ZM161.684 42.5276C162.147 42.5276 162.535 42.5896 162.849 42.7135C163.171 42.8292 163.428 42.9986 163.618 43.2217C163.816 43.4366 163.956 43.6969 164.039 44.0026C164.122 44.3001 164.163 44.6307 164.163 44.9943V49.0227C164.064 49.0392 163.923 49.064 163.742 49.0971C163.568 49.1219 163.37 49.1467 163.147 49.1715C162.923 49.1963 162.68 49.2169 162.415 49.2334C162.159 49.2582 161.903 49.2706 161.647 49.2706C161.283 49.2706 160.949 49.2334 160.643 49.1591C160.337 49.0847 160.073 48.969 159.849 48.812C159.626 48.6467 159.453 48.4319 159.329 48.1674C159.205 47.903 159.143 47.5849 159.143 47.213C159.143 46.8577 159.213 46.5519 159.354 46.2958C159.502 46.0396 159.701 45.833 159.949 45.676C160.197 45.519 160.486 45.4033 160.816 45.3289C161.147 45.2546 161.494 45.2174 161.857 45.2174C161.973 45.2174 162.093 45.2256 162.217 45.2422C162.341 45.2504 162.457 45.2669 162.564 45.2917C162.68 45.3083 162.779 45.3248 162.862 45.3413C162.944 45.3578 163.002 45.3702 163.035 45.3785V45.0562C163.035 44.8662 163.014 44.6802 162.973 44.4984C162.932 44.3084 162.857 44.1431 162.75 44.0026C162.643 43.8539 162.494 43.7382 162.304 43.6556C162.122 43.5647 161.882 43.5192 161.585 43.5192C161.205 43.5192 160.87 43.5481 160.581 43.606C160.3 43.6556 160.089 43.7093 159.949 43.7671L159.812 42.8127C159.961 42.7466 160.209 42.6846 160.556 42.6268C160.903 42.5606 161.279 42.5276 161.684 42.5276ZM167.156 42.6887H169.598V43.6556H167.156V46.6304C167.156 46.9527 167.181 47.2213 167.23 47.4361C167.28 47.6427 167.354 47.808 167.453 47.9319C167.553 48.0476 167.677 48.1303 167.825 48.1798C167.974 48.2294 168.148 48.2542 168.346 48.2542C168.693 48.2542 168.97 48.217 169.176 48.1427C169.391 48.06 169.54 48.0022 169.623 47.9691L169.846 48.9236C169.73 48.9814 169.528 49.0516 169.238 49.1343C168.949 49.2252 168.619 49.2706 168.247 49.2706C167.809 49.2706 167.445 49.2169 167.156 49.1095C166.875 48.9938 166.648 48.8244 166.474 48.6013C166.301 48.3782 166.177 48.1055 166.102 47.7832C166.036 47.4527 166.003 47.0725 166.003 46.6428V40.8914L167.156 40.6931V42.6887ZM170.584 45.9239C170.584 45.3537 170.667 44.8579 170.832 44.4365C170.997 44.0068 171.216 43.6514 171.489 43.3705C171.762 43.0895 172.076 42.8788 172.431 42.7383C172.786 42.5978 173.15 42.5276 173.522 42.5276C174.39 42.5276 175.055 42.8003 175.518 43.3457C175.98 43.8828 176.212 44.705 176.212 45.8123C176.212 45.8619 176.212 45.928 176.212 46.0107C176.212 46.085 176.208 46.1553 176.199 46.2214H171.787C171.836 46.8907 172.03 47.3989 172.369 47.746C172.708 48.0931 173.237 48.2666 173.956 48.2666C174.361 48.2666 174.699 48.2336 174.972 48.1674C175.253 48.0931 175.464 48.0228 175.604 47.9567L175.765 48.9236C175.625 48.9979 175.377 49.0764 175.022 49.1591C174.675 49.2417 174.278 49.283 173.832 49.283C173.27 49.283 172.782 49.2004 172.369 49.0351C171.964 48.8616 171.63 48.6261 171.365 48.3286C171.101 48.0311 170.902 47.6799 170.77 47.275C170.646 46.8618 170.584 46.4114 170.584 45.9239ZM175.009 45.2917C175.018 44.7711 174.885 44.3456 174.613 44.015C174.348 43.6762 173.981 43.5068 173.51 43.5068C173.245 43.5068 173.01 43.5605 172.803 43.668C172.605 43.7671 172.435 43.8993 172.295 44.0646C172.154 44.2299 172.043 44.4199 171.96 44.6348C171.886 44.8496 171.836 45.0686 171.811 45.2917H175.009ZM182.032 44.0522C181.892 43.9365 181.69 43.825 181.425 43.7175C181.161 43.6101 180.871 43.5564 180.557 43.5564C180.227 43.5564 179.942 43.6184 179.702 43.7423C179.471 43.858 179.281 44.0233 179.132 44.2381C178.983 44.4447 178.876 44.6926 178.81 44.9819C178.744 45.2711 178.711 45.581 178.711 45.9115C178.711 46.6635 178.896 47.2461 179.268 47.6592C179.64 48.0642 180.136 48.2666 180.756 48.2666C181.07 48.2666 181.33 48.2542 181.537 48.2294C181.751 48.1964 181.917 48.1633 182.032 48.1303V44.0522ZM182.032 39.7139L183.185 39.5155V48.9483C182.921 49.0227 182.582 49.0971 182.169 49.1715C181.756 49.2458 181.28 49.283 180.743 49.283C180.248 49.283 179.801 49.2045 179.405 49.0475C179.008 48.8905 178.669 48.6674 178.388 48.3782C178.107 48.0889 177.888 47.7377 177.731 47.3246C177.583 46.9031 177.508 46.4321 177.508 45.9115C177.508 45.4157 177.57 44.9612 177.694 44.548C177.826 44.1348 178.016 43.7795 178.264 43.482C178.512 43.1845 178.814 42.9532 179.169 42.7879C179.533 42.6226 179.946 42.54 180.409 42.54C180.781 42.54 181.107 42.5896 181.388 42.6887C181.677 42.7879 181.892 42.8829 182.032 42.9738V39.7139Z" fill="#202020"/>
<path d="M56.9446 49.3202C56.3414 49.3202 55.7918 49.221 55.296 49.0227C54.8002 48.8244 54.3746 48.5352 54.0193 48.1551C53.664 47.7749 53.3872 47.308 53.1888 46.7544C52.9988 46.1925 52.9037 45.552 52.9037 44.8331C52.9037 44.1142 53.0112 43.4779 53.226 42.9242C53.4491 42.3623 53.7466 41.8913 54.1185 41.5112C54.4903 41.1311 54.9242 40.8418 55.42 40.6435C55.9158 40.4452 56.4447 40.346 57.0066 40.346C57.3619 40.346 57.6801 40.3708 57.961 40.4204C58.2502 40.47 58.4981 40.5278 58.7047 40.5939C58.9196 40.66 59.0931 40.7261 59.2253 40.7923C59.3576 40.8584 59.4485 40.9079 59.498 40.941L59.151 41.9326C59.0766 41.883 58.9692 41.8293 58.8287 41.7715C58.6882 41.7136 58.5271 41.6558 58.3453 41.5979C58.1717 41.5401 57.9775 41.4947 57.7627 41.4616C57.5561 41.4203 57.3454 41.3996 57.1305 41.3996C56.676 41.3996 56.267 41.4781 55.9034 41.6351C55.5398 41.7921 55.2299 42.0194 54.9738 42.3169C54.7176 42.6144 54.5193 42.978 54.3788 43.4077C54.2466 43.8291 54.1805 44.3042 54.1805 44.8331C54.1805 45.3455 54.2383 45.8123 54.354 46.2338C54.4779 46.6552 54.6597 47.0188 54.8994 47.3246C55.139 47.6221 55.4365 47.8534 55.7918 48.0187C56.1554 48.184 56.5769 48.2666 57.0562 48.2666C57.6098 48.2666 58.0684 48.2088 58.432 48.0931C58.7956 47.9774 59.0683 47.8741 59.2501 47.7832L59.56 48.7748C59.5022 48.8161 59.3989 48.8698 59.2501 48.936C59.1014 48.9938 58.9155 49.0516 58.6923 49.1095C58.4692 49.1673 58.2089 49.2169 57.9114 49.2582C57.6139 49.2995 57.2917 49.3202 56.9446 49.3202ZM66.3708 45.9115C66.3708 46.4238 66.2965 46.8866 66.1477 47.2998C65.999 47.713 65.7882 48.0683 65.5156 48.3658C65.2511 48.6633 64.933 48.8946 64.5611 49.0599C64.1893 49.2169 63.7843 49.2954 63.3464 49.2954C62.9084 49.2954 62.5035 49.2169 62.1316 49.0599C61.7598 48.8946 61.4375 48.6633 61.1648 48.3658C60.9004 48.0683 60.6938 47.713 60.545 47.2998C60.3963 46.8866 60.3219 46.4238 60.3219 45.9115C60.3219 45.4074 60.3963 44.9488 60.545 44.5356C60.6938 44.1142 60.9004 43.7547 61.1648 43.4572C61.4375 43.1598 61.7598 42.9325 62.1316 42.7755C62.5035 42.6102 62.9084 42.5276 63.3464 42.5276C63.7843 42.5276 64.1893 42.6102 64.5611 42.7755C64.933 42.9325 65.2511 43.1598 65.5156 43.4572C65.7882 43.7547 65.999 44.1142 66.1477 44.5356C66.2965 44.9488 66.3708 45.4074 66.3708 45.9115ZM65.1685 45.9115C65.1685 45.1843 65.0032 44.61 64.6727 44.1886C64.3504 43.7589 63.9083 43.544 63.3464 43.544C62.7845 43.544 62.3382 43.7589 62.0077 44.1886C61.6854 44.61 61.5243 45.1843 61.5243 45.9115C61.5243 46.6387 61.6854 47.2171 62.0077 47.6468C62.3382 48.0683 62.7845 48.279 63.3464 48.279C63.9083 48.279 64.3504 48.0683 64.6727 47.6468C65.0032 47.2171 65.1685 46.6387 65.1685 45.9115ZM67.9927 42.8747C68.2571 42.8086 68.6042 42.7383 69.0339 42.6639C69.4718 42.5896 69.9759 42.5524 70.5461 42.5524C70.9593 42.5524 71.3063 42.6102 71.5873 42.7259C71.8683 42.8333 72.1038 42.9945 72.2938 43.2093C72.3517 43.168 72.4426 43.1102 72.5665 43.0358C72.6905 42.9614 72.8434 42.8912 73.0252 42.8251C73.207 42.7507 73.4094 42.6887 73.6325 42.6391C73.8556 42.5813 74.0953 42.5524 74.3515 42.5524C74.8473 42.5524 75.2522 42.6268 75.5662 42.7755C75.8802 42.916 76.124 43.1184 76.2975 43.3829C76.4793 43.6473 76.5991 43.9613 76.657 44.3249C76.7231 44.6885 76.7561 45.0852 76.7561 45.5149V49.1343H75.6034V45.7628C75.6034 45.3826 75.5827 45.0562 75.5414 44.7835C75.5083 44.5108 75.4381 44.2836 75.3307 44.1018C75.2315 43.92 75.091 43.7878 74.9092 43.7051C74.7357 43.6142 74.5085 43.5688 74.2275 43.5688C73.8391 43.5688 73.5168 43.6225 73.2607 43.7299C73.0128 43.8291 72.8434 43.92 72.7525 44.0026C72.8186 44.2175 72.8681 44.453 72.9012 44.7092C72.9343 44.9653 72.9508 45.2339 72.9508 45.5149V49.1343H71.798V45.7628C71.798 45.3826 71.7774 45.0562 71.736 44.7835C71.6947 44.5108 71.6204 44.2836 71.5129 44.1018C71.4138 43.92 71.2733 43.7878 71.0915 43.7051C70.918 43.6142 70.6948 43.5688 70.4221 43.5688C70.3065 43.5688 70.1825 43.5729 70.0503 43.5812C69.9181 43.5895 69.79 43.6018 69.666 43.6184C69.5503 43.6266 69.4429 43.639 69.3438 43.6556C69.2446 43.6721 69.1785 43.6845 69.1454 43.6927V49.1343H67.9927V42.8747ZM83.1438 45.9239C83.1438 45.1719 82.9578 44.5935 82.586 44.1886C82.2141 43.7836 81.7183 43.5812 81.0986 43.5812C80.7515 43.5812 80.4788 43.5936 80.2805 43.6184C80.0904 43.6432 79.9375 43.6721 79.8218 43.7051V47.7708C79.9623 47.8865 80.1648 47.998 80.4292 48.1055C80.6936 48.2129 80.9829 48.2666 81.2969 48.2666C81.6274 48.2666 81.9084 48.2088 82.1398 48.0931C82.3794 47.9691 82.5736 47.8039 82.7223 47.5973C82.8711 47.3824 82.9785 47.1345 83.0446 46.8535C83.1107 46.5643 83.1438 46.2544 83.1438 45.9239ZM84.3461 45.9239C84.3461 46.4114 84.28 46.8618 84.1478 47.275C84.0238 47.6882 83.8379 48.0435 83.59 48.341C83.3421 48.6385 83.0363 48.8698 82.6728 49.0351C82.3174 49.2004 81.9084 49.283 81.4456 49.283C81.0738 49.283 80.7432 49.2334 80.454 49.1343C80.173 49.0351 79.9623 48.9401 79.8218 48.8492V51.4274H78.6691V42.8871C78.9418 42.8209 79.2806 42.7507 79.6855 42.6763C80.0987 42.5937 80.5738 42.5524 81.1109 42.5524C81.6068 42.5524 82.053 42.6309 82.4496 42.7879C82.8463 42.9449 83.1851 43.168 83.4661 43.4572C83.747 43.7465 83.9619 44.1018 84.1106 44.5232C84.2676 44.9364 84.3461 45.4033 84.3461 45.9239ZM87.9019 49.2582C87.1913 49.2417 86.6872 49.0888 86.3897 48.7996C86.0922 48.5104 85.9435 48.06 85.9435 47.4485V39.7139L87.0962 39.5155V47.2626C87.0962 47.4527 87.1128 47.6097 87.1458 47.7336C87.1789 47.8576 87.2326 47.9567 87.3069 48.0311C87.3813 48.1055 87.4805 48.1633 87.6044 48.2046C87.7284 48.2377 87.8813 48.2666 88.0631 48.2914L87.9019 49.2582ZM90.5103 49.1343H89.3576V42.6887H90.5103V49.1343ZM89.9278 41.5236C89.7212 41.5236 89.5435 41.4575 89.3948 41.3252C89.2543 41.1848 89.1841 40.9988 89.1841 40.7675C89.1841 40.5361 89.2543 40.3543 89.3948 40.2221C89.5435 40.0816 89.7212 40.0113 89.9278 40.0113C90.1344 40.0113 90.3079 40.0816 90.4484 40.2221C90.5971 40.3543 90.6715 40.5361 90.6715 40.7675C90.6715 40.9988 90.5971 41.1848 90.4484 41.3252C90.3079 41.4575 90.1344 41.5236 89.9278 41.5236ZM94.6743 48.3038C94.947 48.3038 95.1866 48.2997 95.3932 48.2914C95.6081 48.2749 95.7857 48.2501 95.9262 48.217V46.2958C95.8436 46.2544 95.7072 46.2214 95.5172 46.1966C95.3354 46.1635 95.1123 46.147 94.8478 46.147C94.6743 46.147 94.4884 46.1594 94.29 46.1842C94.1 46.209 93.9223 46.2627 93.757 46.3453C93.6 46.4197 93.4678 46.5271 93.3604 46.6676C93.253 46.7998 93.1993 46.9775 93.1993 47.2006C93.1993 47.6138 93.3315 47.903 93.5959 48.0683C93.8603 48.2253 94.2198 48.3038 94.6743 48.3038ZM94.5751 42.5276C95.0379 42.5276 95.4263 42.5896 95.7403 42.7135C96.0626 42.8292 96.3187 42.9986 96.5088 43.2217C96.7071 43.4366 96.8476 43.6969 96.9302 44.0026C97.0129 44.3001 97.0542 44.6307 97.0542 44.9943V49.0227C96.955 49.0392 96.8145 49.064 96.6327 49.0971C96.4592 49.1219 96.2609 49.1467 96.0378 49.1715C95.8147 49.1963 95.5709 49.2169 95.3065 49.2334C95.0503 49.2582 94.7941 49.2706 94.5379 49.2706C94.1743 49.2706 93.8397 49.2334 93.5339 49.1591C93.2282 49.0847 92.9637 48.969 92.7406 48.812C92.5175 48.6467 92.344 48.4319 92.22 48.1674C92.0961 47.903 92.0341 47.5849 92.0341 47.213C92.0341 46.8577 92.1043 46.5519 92.2448 46.2958C92.3936 46.0396 92.5919 45.833 92.8398 45.676C93.0877 45.519 93.3769 45.4033 93.7075 45.3289C94.038 45.2546 94.3851 45.2174 94.7487 45.2174C94.8644 45.2174 94.9842 45.2256 95.1081 45.2422C95.2321 45.2504 95.3478 45.2669 95.4552 45.2917C95.5709 45.3083 95.67 45.3248 95.7527 45.3413C95.8353 45.3578 95.8932 45.3702 95.9262 45.3785V45.0562C95.9262 44.8662 95.9056 44.6802 95.8642 44.4984C95.8229 44.3084 95.7485 44.1431 95.6411 44.0026C95.5337 43.8539 95.385 43.7382 95.1949 43.6556C95.0131 43.5647 94.7735 43.5192 94.476 43.5192C94.0958 43.5192 93.7612 43.5481 93.4719 43.606C93.191 43.6556 92.9803 43.7093 92.8398 43.7671L92.7034 42.8127C92.8522 42.7466 93.1001 42.6846 93.4472 42.6268C93.7942 42.5606 94.1702 42.5276 94.5751 42.5276ZM98.9688 42.8747C99.2332 42.8086 99.5844 42.7383 100.022 42.6639C100.46 42.5896 100.964 42.5524 101.535 42.5524C102.047 42.5524 102.473 42.6268 102.811 42.7755C103.15 42.916 103.419 43.1184 103.617 43.3829C103.824 43.639 103.968 43.9489 104.051 44.3125C104.133 44.6761 104.175 45.0769 104.175 45.5149V49.1343H103.022V45.7628C103.022 45.3661 102.993 45.0273 102.935 44.7463C102.886 44.4654 102.799 44.2381 102.675 44.0646C102.551 43.8911 102.386 43.7671 102.179 43.6927C101.973 43.6101 101.716 43.5688 101.411 43.5688C101.287 43.5688 101.159 43.5729 101.026 43.5812C100.894 43.5895 100.766 43.6018 100.642 43.6184C100.526 43.6266 100.419 43.639 100.32 43.6556C100.229 43.6721 100.163 43.6845 100.122 43.6927V49.1343H98.9688V42.8747ZM108.888 49.283C108.367 49.283 107.908 49.2004 107.512 49.0351C107.123 48.8698 106.793 48.6385 106.52 48.341C106.256 48.0435 106.057 47.6923 105.925 47.2874C105.793 46.8742 105.727 46.4197 105.727 45.9239C105.727 45.4281 105.797 44.9736 105.938 44.5604C106.086 44.1472 106.293 43.7919 106.557 43.4944C106.822 43.1887 107.144 42.9532 107.524 42.7879C107.913 42.6144 108.342 42.5276 108.813 42.5276C109.103 42.5276 109.392 42.5524 109.681 42.602C109.97 42.6515 110.247 42.73 110.511 42.8375L110.251 43.8167C110.078 43.7341 109.875 43.668 109.644 43.6184C109.421 43.5688 109.181 43.544 108.925 43.544C108.28 43.544 107.785 43.7465 107.437 44.1514C107.099 44.5563 106.929 45.1471 106.929 45.9239C106.929 46.271 106.966 46.5891 107.041 46.8783C107.123 47.1676 107.247 47.4155 107.413 47.6221C107.586 47.8286 107.805 47.9898 108.07 48.1055C108.334 48.2129 108.656 48.2666 109.036 48.2666C109.342 48.2666 109.619 48.2377 109.867 48.1798C110.115 48.122 110.309 48.06 110.45 47.9939L110.611 48.9607C110.545 49.0021 110.45 49.0434 110.326 49.0847C110.202 49.1178 110.061 49.1467 109.904 49.1715C109.747 49.2045 109.578 49.2293 109.396 49.2458C109.222 49.2706 109.053 49.283 108.888 49.283ZM111.489 45.9239C111.489 45.3537 111.571 44.8579 111.737 44.4365C111.902 44.0068 112.121 43.6514 112.394 43.3705C112.666 43.0895 112.98 42.8788 113.336 42.7383C113.691 42.5978 114.055 42.5276 114.426 42.5276C115.294 42.5276 115.959 42.8003 116.422 43.3457C116.885 43.8828 117.116 44.705 117.116 45.8123C117.116 45.8619 117.116 45.928 117.116 46.0107C117.116 46.085 117.112 46.1553 117.104 46.2214H112.691C112.741 46.8907 112.935 47.3989 113.274 47.746C113.613 48.0931 114.141 48.2666 114.86 48.2666C115.265 48.2666 115.604 48.2336 115.877 48.1674C116.158 48.0931 116.368 48.0228 116.509 47.9567L116.67 48.9236C116.53 48.9979 116.282 49.0764 115.926 49.1591C115.579 49.2417 115.183 49.283 114.736 49.283C114.174 49.283 113.687 49.2004 113.274 49.0351C112.869 48.8616 112.534 48.6261 112.27 48.3286C112.005 48.0311 111.807 47.6799 111.675 47.275C111.551 46.8618 111.489 46.4114 111.489 45.9239ZM115.914 45.2917C115.922 44.7711 115.79 44.3456 115.517 44.015C115.253 43.6762 114.885 43.5068 114.414 43.5068C114.15 43.5068 113.914 43.5605 113.708 43.668C113.509 43.7671 113.34 43.8993 113.199 44.0646C113.059 44.2299 112.947 44.4199 112.865 44.6348C112.79 44.8496 112.741 45.0686 112.716 45.2917H115.914ZM127.454 49.1343C127.314 48.7624 127.182 48.3988 127.058 48.0435C126.934 47.6799 126.806 47.3122 126.673 46.9403H122.781L122 49.1343H120.749C121.079 48.2253 121.389 47.3865 121.678 46.618C121.967 45.8413 122.248 45.1058 122.521 44.4117C122.802 43.7175 123.079 43.0565 123.352 42.4284C123.624 41.7921 123.909 41.1641 124.207 40.5443H125.31C125.607 41.1641 125.893 41.7921 126.165 42.4284C126.438 43.0565 126.711 43.7175 126.983 44.4117C127.264 45.1058 127.549 45.8413 127.839 46.618C128.128 47.3865 128.438 48.2253 128.768 49.1343H127.454ZM126.326 45.9487C126.062 45.2298 125.798 44.5356 125.533 43.8663C125.277 43.1887 125.008 42.54 124.727 41.9202C124.438 42.54 124.161 43.1887 123.897 43.8663C123.641 44.5356 123.385 45.2298 123.128 45.9487H126.326ZM134.81 48.9483C134.546 49.0145 134.195 49.0847 133.757 49.1591C133.327 49.2334 132.827 49.2706 132.257 49.2706C131.761 49.2706 131.344 49.2004 131.005 49.0599C130.666 48.9112 130.393 48.7046 130.187 48.4401C129.98 48.1757 129.831 47.8658 129.741 47.5105C129.65 47.1469 129.604 46.7461 129.604 46.3082V42.6887H130.757V46.0602C130.757 46.8453 130.881 47.4072 131.129 47.746C131.377 48.0848 131.794 48.2542 132.381 48.2542C132.505 48.2542 132.633 48.2501 132.765 48.2418C132.897 48.2336 133.021 48.2253 133.137 48.217C133.253 48.2005 133.356 48.1881 133.447 48.1798C133.546 48.1633 133.616 48.1468 133.657 48.1303V42.6887H134.81V48.9483ZM137.875 42.6887H140.316V43.6556H137.875V46.6304C137.875 46.9527 137.899 47.2213 137.949 47.4361C137.999 47.6427 138.073 47.808 138.172 47.9319C138.271 48.0476 138.395 48.1303 138.544 48.1798C138.693 48.2294 138.866 48.2542 139.065 48.2542C139.412 48.2542 139.688 48.217 139.895 48.1427C140.11 48.06 140.259 48.0022 140.341 47.9691L140.564 48.9236C140.449 48.9814 140.246 49.0516 139.957 49.1343C139.668 49.2252 139.337 49.2706 138.965 49.2706C138.527 49.2706 138.164 49.2169 137.875 49.1095C137.594 48.9938 137.366 48.8244 137.193 48.6013C137.019 48.3782 136.895 48.1055 136.821 47.7832C136.755 47.4527 136.722 47.0725 136.722 46.6428V40.8914L137.875 40.6931V42.6887ZM147.303 45.9115C147.303 46.4238 147.229 46.8866 147.08 47.2998C146.931 47.713 146.721 48.0683 146.448 48.3658C146.184 48.6633 145.865 48.8946 145.494 49.0599C145.122 49.2169 144.717 49.2954 144.279 49.2954C143.841 49.2954 143.436 49.2169 143.064 49.0599C142.692 48.8946 142.37 48.6633 142.097 48.3658C141.833 48.0683 141.626 47.713 141.478 47.2998C141.329 46.8866 141.254 46.4238 141.254 45.9115C141.254 45.4074 141.329 44.9488 141.478 44.5356C141.626 44.1142 141.833 43.7547 142.097 43.4572C142.37 43.1598 142.692 42.9325 143.064 42.7755C143.436 42.6102 143.841 42.5276 144.279 42.5276C144.717 42.5276 145.122 42.6102 145.494 42.7755C145.865 42.9325 146.184 43.1598 146.448 43.4572C146.721 43.7547 146.931 44.1142 147.08 44.5356C147.229 44.9488 147.303 45.4074 147.303 45.9115ZM146.101 45.9115C146.101 45.1843 145.936 44.61 145.605 44.1886C145.283 43.7589 144.841 43.544 144.279 43.544C143.717 43.544 143.271 43.7589 142.94 44.1886C142.618 44.61 142.457 45.1843 142.457 45.9115C142.457 46.6387 142.618 47.2171 142.94 47.6468C143.271 48.0683 143.717 48.279 144.279 48.279C144.841 48.279 145.283 48.0683 145.605 47.6468C145.936 47.2171 146.101 46.6387 146.101 45.9115ZM148.925 42.8747C149.19 42.8086 149.537 42.7383 149.966 42.6639C150.404 42.5896 150.908 42.5524 151.479 42.5524C151.892 42.5524 152.239 42.6102 152.52 42.7259C152.801 42.8333 153.036 42.9945 153.226 43.2093C153.284 43.168 153.375 43.1102 153.499 43.0358C153.623 42.9614 153.776 42.8912 153.958 42.8251C154.139 42.7507 154.342 42.6887 154.565 42.6391C154.788 42.5813 155.028 42.5524 155.284 42.5524C155.78 42.5524 156.185 42.6268 156.499 42.7755C156.813 42.916 157.056 43.1184 157.23 43.3829C157.412 43.6473 157.532 43.9613 157.589 44.3249C157.656 44.6885 157.689 45.0852 157.689 45.5149V49.1343H156.536V45.7628C156.536 45.3826 156.515 45.0562 156.474 44.7835C156.441 44.5108 156.371 44.2836 156.263 44.1018C156.164 43.92 156.024 43.7878 155.842 43.7051C155.668 43.6142 155.441 43.5688 155.16 43.5688C154.772 43.5688 154.449 43.6225 154.193 43.7299C153.945 43.8291 153.776 43.92 153.685 44.0026C153.751 44.2175 153.801 44.453 153.834 44.7092C153.867 44.9653 153.883 45.2339 153.883 45.5149V49.1343H152.73V45.7628C152.73 45.3826 152.71 45.0562 152.669 44.7835C152.627 44.5108 152.553 44.2836 152.445 44.1018C152.346 43.92 152.206 43.7878 152.024 43.7051C151.85 43.6142 151.627 43.5688 151.355 43.5688C151.239 43.5688 151.115 43.5729 150.983 43.5812C150.851 43.5895 150.722 43.6018 150.599 43.6184C150.483 43.6266 150.375 43.639 150.276 43.6556C150.177 43.6721 150.111 43.6845 150.078 43.6927V49.1343H148.925V42.8747ZM161.783 48.3038C162.056 48.3038 162.295 48.2997 162.502 48.2914C162.717 48.2749 162.895 48.2501 163.035 48.217V46.2958C162.952 46.2544 162.816 46.2214 162.626 46.1966C162.444 46.1635 162.221 46.147 161.957 46.147C161.783 46.147 161.597 46.1594 161.399 46.1842C161.209 46.209 161.031 46.2627 160.866 46.3453C160.709 46.4197 160.577 46.5271 160.469 46.6676C160.362 46.7998 160.308 46.9775 160.308 47.2006C160.308 47.6138 160.44 47.903 160.705 48.0683C160.969 48.2253 161.329 48.3038 161.783 48.3038ZM161.684 42.5276C162.147 42.5276 162.535 42.5896 162.849 42.7135C163.171 42.8292 163.428 42.9986 163.618 43.2217C163.816 43.4366 163.956 43.6969 164.039 44.0026C164.122 44.3001 164.163 44.6307 164.163 44.9943V49.0227C164.064 49.0392 163.923 49.064 163.742 49.0971C163.568 49.1219 163.37 49.1467 163.147 49.1715C162.923 49.1963 162.68 49.2169 162.415 49.2334C162.159 49.2582 161.903 49.2706 161.647 49.2706C161.283 49.2706 160.949 49.2334 160.643 49.1591C160.337 49.0847 160.073 48.969 159.849 48.812C159.626 48.6467 159.453 48.4319 159.329 48.1674C159.205 47.903 159.143 47.5849 159.143 47.213C159.143 46.8577 159.213 46.5519 159.354 46.2958C159.502 46.0396 159.701 45.833 159.949 45.676C160.197 45.519 160.486 45.4033 160.816 45.3289C161.147 45.2546 161.494 45.2174 161.857 45.2174C161.973 45.2174 162.093 45.2256 162.217 45.2422C162.341 45.2504 162.457 45.2669 162.564 45.2917C162.68 45.3083 162.779 45.3248 162.862 45.3413C162.944 45.3578 163.002 45.3702 163.035 45.3785V45.0562C163.035 44.8662 163.014 44.6802 162.973 44.4984C162.932 44.3084 162.857 44.1431 162.75 44.0026C162.643 43.8539 162.494 43.7382 162.304 43.6556C162.122 43.5647 161.882 43.5192 161.585 43.5192C161.205 43.5192 160.87 43.5481 160.581 43.606C160.3 43.6556 160.089 43.7093 159.949 43.7671L159.812 42.8127C159.961 42.7466 160.209 42.6846 160.556 42.6268C160.903 42.5606 161.279 42.5276 161.684 42.5276ZM167.156 42.6887H169.598V43.6556H167.156V46.6304C167.156 46.9527 167.181 47.2213 167.23 47.4361C167.28 47.6427 167.354 47.808 167.453 47.9319C167.553 48.0476 167.677 48.1303 167.825 48.1798C167.974 48.2294 168.148 48.2542 168.346 48.2542C168.693 48.2542 168.97 48.217 169.176 48.1427C169.391 48.06 169.54 48.0022 169.623 47.9691L169.846 48.9236C169.73 48.9814 169.528 49.0516 169.238 49.1343C168.949 49.2252 168.619 49.2706 168.247 49.2706C167.809 49.2706 167.445 49.2169 167.156 49.1095C166.875 48.9938 166.648 48.8244 166.474 48.6013C166.301 48.3782 166.177 48.1055 166.102 47.7832C166.036 47.4527 166.003 47.0725 166.003 46.6428V40.8914L167.156 40.6931V42.6887ZM170.584 45.9239C170.584 45.3537 170.667 44.8579 170.832 44.4365C170.997 44.0068 171.216 43.6514 171.489 43.3705C171.762 43.0895 172.076 42.8788 172.431 42.7383C172.786 42.5978 173.15 42.5276 173.522 42.5276C174.39 42.5276 175.055 42.8003 175.518 43.3457C175.98 43.8828 176.212 44.705 176.212 45.8123C176.212 45.8619 176.212 45.928 176.212 46.0107C176.212 46.085 176.208 46.1553 176.199 46.2214H171.787C171.836 46.8907 172.03 47.3989 172.369 47.746C172.708 48.0931 173.237 48.2666 173.956 48.2666C174.361 48.2666 174.699 48.2336 174.972 48.1674C175.253 48.0931 175.464 48.0228 175.604 47.9567L175.765 48.9236C175.625 48.9979 175.377 49.0764 175.022 49.1591C174.675 49.2417 174.278 49.283 173.832 49.283C173.27 49.283 172.782 49.2004 172.369 49.0351C171.964 48.8616 171.63 48.6261 171.365 48.3286C171.101 48.0311 170.902 47.6799 170.77 47.275C170.646 46.8618 170.584 46.4114 170.584 45.9239ZM175.009 45.2917C175.018 44.7711 174.885 44.3456 174.613 44.015C174.348 43.6762 173.981 43.5068 173.51 43.5068C173.245 43.5068 173.01 43.5605 172.803 43.668C172.605 43.7671 172.435 43.8993 172.295 44.0646C172.154 44.2299 172.043 44.4199 171.96 44.6348C171.886 44.8496 171.836 45.0686 171.811 45.2917H175.009ZM182.032 44.0522C181.892 43.9365 181.69 43.825 181.425 43.7175C181.161 43.6101 180.871 43.5564 180.557 43.5564C180.227 43.5564 179.942 43.6184 179.702 43.7423C179.471 43.858 179.281 44.0233 179.132 44.2381C178.983 44.4447 178.876 44.6926 178.81 44.9819C178.744 45.2711 178.711 45.581 178.711 45.9115C178.711 46.6635 178.896 47.2461 179.268 47.6592C179.64 48.0642 180.136 48.2666 180.756 48.2666C181.07 48.2666 181.33 48.2542 181.537 48.2294C181.751 48.1964 181.917 48.1633 182.032 48.1303V44.0522ZM182.032 39.7139L183.185 39.5155V48.9483C182.921 49.0227 182.582 49.0971 182.169 49.1715C181.756 49.2458 181.28 49.283 180.743 49.283C180.248 49.283 179.801 49.2045 179.405 49.0475C179.008 48.8905 178.669 48.6674 178.388 48.3782C178.107 48.0889 177.888 47.7377 177.731 47.3246C177.583 46.9031 177.508 46.4321 177.508 45.9115C177.508 45.4157 177.57 44.9612 177.694 44.548C177.826 44.1348 178.016 43.7795 178.264 43.482C178.512 43.1845 178.814 42.9532 179.169 42.7879C179.533 42.6226 179.946 42.54 180.409 42.54C180.781 42.54 181.107 42.5896 181.388 42.6887C181.677 42.7879 181.892 42.8829 182.032 42.9738V39.7139Z" fill="#202020"/>
<path d="M5.16507 19.2951C8.59443 20.9787 12.1271 21.6192 15.6907 21.8981C20.2667 22.2493 24.8323 21.9704 29.3462 20.6585C31.2985 20.0904 33.2197 19.357 35.0067 17.9832C36.4425 16.8883 37.682 15.4938 38.0539 12.8702V11.61C37.7957 9.88497 37.1242 8.61445 36.1946 7.62283C35.2133 6.57956 34.139 5.86683 33.0131 5.30904C29.2532 3.44975 25.3694 2.799 21.4545 2.56142C18.7276 2.39615 16.0006 2.48912 13.284 2.88164C10.9185 3.22251 8.56344 3.75963 6.27031 4.7306C4.67959 5.40201 3.11985 6.21803 1.75636 7.7158C-0.59874 10.3188 -0.609069 14.1717 1.74603 16.7953C2.77898 17.9522 3.9462 18.6856 5.15474 19.2847L5.16507 19.2951ZM4.44201 10.9386C5.89845 9.83332 7.45819 9.22389 9.03859 8.75907C13.6558 7.39558 18.3041 7.12702 22.9833 7.59184C25.8549 7.88107 28.7058 8.39754 31.4637 9.68871C32.3107 10.0812 33.1268 10.6493 33.9428 11.2071C34.2733 11.4344 34.5522 11.8372 34.9447 12.2504C34.6142 12.6326 34.3766 12.9735 34.0977 13.2214C32.9615 14.2336 31.722 14.8328 30.4618 15.3079C26.4023 16.8263 22.2706 17.2498 18.1181 17.1672C14.6784 17.0949 11.2697 16.6301 7.91269 15.4112C6.62151 14.9464 5.351 14.3679 4.17344 13.3866C3.83257 13.0974 3.52269 12.7152 3.20248 12.3847C3.20248 12.3021 3.20248 12.2091 3.20248 12.1265C3.61566 11.7236 4.0185 11.2691 4.45234 10.9386H4.44201Z" fill="url(#paint0_linear_442_2138)"/>
<path d="M37.9094 21.0304C37.6202 20.0801 37.0107 19.5533 36.298 19.6463C35.6679 19.7289 35.0688 20.4726 34.9655 21.4539C34.8932 22.084 34.6866 22.4972 34.3664 22.7451C33.5504 23.3545 32.7344 24.0363 31.8667 24.4598C28.4993 26.1228 25.0183 26.6393 21.5063 26.8872C18.7793 27.0731 16.0524 26.9595 13.3357 26.5463C10.8877 26.1745 8.46026 25.6477 6.13614 24.4288C5.24781 23.964 4.4008 23.2512 3.56412 22.5695C3.35753 22.4042 3.20259 21.9497 3.14061 21.5779C2.95468 20.483 2.38657 19.6876 1.66351 19.6566C0.899133 19.6153 0.25871 20.3074 0.0831099 21.4126C-0.113149 22.6005 0.124427 23.6748 0.537604 24.6767C0.961109 25.6993 1.56021 26.4327 2.2213 27.0628C3.66741 28.4469 5.26847 29.232 6.91084 29.8621C9.92703 31.0086 13.0052 31.5251 16.104 31.7317C20.7316 32.0312 25.3385 31.7317 29.8938 30.3166C31.7117 29.7484 33.5091 29.0047 35.1721 27.6722C36.5459 26.567 37.7338 25.1828 38.0747 22.6418V21.6089C38.023 21.4229 37.9714 21.2267 37.9094 21.0408V21.0304Z" fill="url(#paint1_linear_442_2138)"/>
<path d="M36.3495 29.4175C35.6161 29.5104 35.11 30.3058 34.9137 31.4834C34.8621 31.8139 34.6865 32.2064 34.5005 32.3614C33.8085 32.9501 33.1164 33.5699 32.383 33.9727C29.0673 35.7804 25.6069 36.3175 22.1362 36.6171C19.0891 36.8856 16.0419 36.7617 13.005 36.2762C10.6809 35.9043 8.36715 35.3466 6.13599 34.2206C5.21668 33.7558 4.29736 33.26 3.53299 32.32C3.35739 32.1031 3.20244 31.7416 3.1508 31.4007C2.96487 30.2542 2.37609 29.4381 1.63238 29.4071C0.888658 29.3762 0.227577 30.1509 0.0726358 31.2974C-0.0823053 32.4233 0.144942 33.4459 0.527129 34.3962C0.950635 35.4395 1.56007 36.1936 2.23148 36.834C3.49167 38.0425 4.88614 38.7759 6.31159 39.3647C9.3691 40.6352 12.4989 41.2137 15.6597 41.4616C20.3389 41.8231 24.9872 41.5339 29.6044 40.1601C31.4947 39.5919 33.3436 38.8586 35.079 37.5261C36.4838 36.4415 37.7026 35.047 38.0848 32.4956V31.3491C38.0642 31.2871 38.0229 31.2355 38.0125 31.1631C37.7233 29.9856 37.1035 29.3142 36.3702 29.4175H36.3495Z" fill="url(#paint2_linear_442_2138)"/>
<path d="M36.3495 38.5278C35.6161 38.6208 35.11 39.4162 34.9137 40.5937C34.8621 40.9242 34.6865 41.3168 34.5005 41.4717C33.8085 42.0605 33.1164 42.6802 32.383 43.0831C29.0673 44.8907 25.6069 45.4279 22.1362 45.7274C19.0891 45.996 16.0419 45.872 13.005 45.3865C10.6809 45.0147 8.36715 44.4569 6.13599 43.331C5.21668 42.8662 4.29736 42.3704 3.53299 41.4304C3.35739 41.2135 3.20244 40.8519 3.1508 40.5111C2.96487 39.3645 2.37609 38.5485 1.63238 38.5175C0.888658 38.4865 0.227577 39.2612 0.0726358 40.4078C-0.0823053 41.5337 0.144942 42.5563 0.527129 43.5066C0.950635 44.5499 1.56007 45.3039 2.23148 45.9443C3.49167 47.1529 4.88614 47.8863 6.31159 48.475C9.3691 49.7456 12.4989 50.324 15.6597 50.5719C20.3389 50.9334 24.9872 50.6442 29.6044 49.2704C31.4947 48.7023 33.3436 47.9689 35.079 46.6364C36.4838 45.5518 37.7026 44.1574 38.0848 41.606V40.4594C38.0642 40.3974 38.0229 40.3458 38.0125 40.2735C37.7233 39.0959 37.1035 38.4245 36.3702 38.5278H36.3495Z" fill="url(#paint3_linear_442_2138)"/>
</g>
<defs>
<linearGradient id="paint0_linear_442_2138" x1="0.000365879" y1="12.2711" x2="38.0642" y2="12.2711" gradientUnits="userSpaceOnUse">
<stop stop-color="#63C611"/>
<stop offset="1" stop-color="#0BC68F"/>
</linearGradient>
<linearGradient id="paint1_linear_442_2138" x1="0.000474655" y1="25.7303" x2="38.0643" y2="25.7303" gradientUnits="userSpaceOnUse">
<stop stop-color="#63C611"/>
<stop offset="1" stop-color="#0BC68F"/>
</linearGradient>
<linearGradient id="paint2_linear_442_2138" x1="0.00032996" y1="35.5118" x2="38.0642" y2="35.5118" gradientUnits="userSpaceOnUse">
<stop stop-color="#63C611"/>
<stop offset="1" stop-color="#0BC68F"/>
</linearGradient>
<linearGradient id="paint3_linear_442_2138" x1="0.00032996" y1="44.6222" x2="38.0642" y2="44.6222" gradientUnits="userSpaceOnUse">
<stop stop-color="#63C611"/>
<stop offset="1" stop-color="#0BC68F"/>
</linearGradient>
<clipPath id="clip0_442_2138">
<rect width="193.119" height="52.0085" fill="white"/>
</clipPath>
</defs>
</svg>
