<svg width="27" height="33" viewBox="0 0 27 33" fill="none" xmlns="http://www.w3.org/2000/svg">
<path d="M4.45005 11.8945C6.74179 13.0197 9.10255 13.4476 11.484 13.634C14.542 13.8687 17.593 13.6823 20.6095 12.8057C21.9142 12.426 23.1981 11.9359 24.3923 11.0178C25.3518 10.2861 26.1801 9.35426 26.4286 7.60094V6.7588C26.256 5.60603 25.8074 4.75698 25.1861 4.09431C24.5303 3.39713 23.8125 2.92083 23.06 2.54808C20.5474 1.30557 17.952 0.870697 15.3358 0.711932C13.5134 0.601487 11.6911 0.663612 9.87566 0.925919C8.29492 1.15371 6.72108 1.51266 5.18865 2.16152C4.12562 2.61021 3.08329 3.15553 2.17212 4.15644C0.598278 5.89595 0.591375 8.4707 2.16522 10.224C2.8555 10.9971 3.63552 11.4872 4.44315 11.8876L4.45005 11.8945ZM3.96685 6.31012C4.94015 5.57152 5.98248 5.16425 7.03861 4.85362C10.1242 3.94245 13.2304 3.76298 16.3574 4.0736C18.2764 4.26688 20.1816 4.61202 22.0246 5.47488C22.5907 5.73718 23.136 6.11684 23.6813 6.48959C23.9022 6.64145 24.0886 6.91066 24.3509 7.18678C24.13 7.44218 23.9712 7.66997 23.7848 7.83564C23.0255 8.51212 22.1972 8.91248 21.3551 9.23001C18.6422 10.2447 15.8811 10.5277 13.1062 10.4725C10.8075 10.4242 8.52961 10.1136 6.2862 9.29904C5.42335 8.98841 4.5743 8.60185 3.78738 7.94609C3.55959 7.75281 3.3525 7.4974 3.13851 7.27651C3.13851 7.22129 3.13851 7.15916 3.13851 7.10394C3.41463 6.83473 3.68384 6.53101 3.97376 6.31012H3.96685Z" fill="url(#paint0_linear_994_3737)"/>
<path d="M26.3327 13.0542C26.1394 12.4192 25.7321 12.0671 25.2558 12.1292C24.8347 12.1845 24.4344 12.6815 24.3654 13.3372C24.317 13.7583 24.179 14.0344 23.965 14.2001C23.4197 14.6073 22.8743 15.0629 22.2945 15.346C20.0442 16.4573 17.7179 16.8024 15.371 16.9681C13.5486 17.0924 11.7263 17.0164 9.91086 16.7403C8.27489 16.4918 6.65273 16.1398 5.09959 15.3252C4.50595 15.0146 3.93992 14.5383 3.38079 14.0827C3.24274 13.9723 3.13919 13.6686 3.09778 13.4201C2.97353 12.6884 2.59387 12.1568 2.11067 12.1361C1.59986 12.1085 1.17189 12.571 1.05454 13.3096C0.923389 14.1034 1.08215 14.8213 1.35827 15.4909C1.64128 16.1743 2.04165 16.6644 2.48343 17.0855C3.44982 18.0104 4.51976 18.5351 5.6173 18.9561C7.63293 19.7223 9.68997 20.0675 11.7608 20.2055C14.8533 20.4057 17.9319 20.2055 20.9761 19.2598C22.191 18.8802 23.3921 18.3832 24.5034 17.4927C25.4215 16.7541 26.2153 15.8291 26.4431 14.1311V13.4408C26.4086 13.3165 26.3741 13.1854 26.3327 13.0611V13.0542Z" fill="url(#paint1_linear_994_3737)"/>
<path d="M25.2892 18.6592C24.7991 18.7214 24.4609 19.2529 24.3298 20.0398C24.2952 20.2607 24.1779 20.523 24.0536 20.6265C23.5912 21.02 23.1287 21.4342 22.6386 21.7034C20.4228 22.9114 18.1103 23.2703 15.791 23.4705C13.7546 23.65 11.7183 23.5671 9.68888 23.2427C8.13574 22.9942 6.58951 22.6215 5.0985 21.869C4.48415 21.5584 3.8698 21.2271 3.35899 20.5989C3.24165 20.454 3.1381 20.2124 3.10359 19.9846C2.97934 19.2184 2.58588 18.673 2.08887 18.6523C1.59187 18.6316 1.15009 19.1493 1.04655 19.9155C0.943007 20.668 1.09487 21.3513 1.35027 21.9864C1.63329 22.6836 2.04056 23.1875 2.48924 23.6155C3.33138 24.4231 4.26326 24.9132 5.21585 25.3067C7.25909 26.1557 9.35064 26.5423 11.4629 26.7079C14.5899 26.9495 17.6961 26.7562 20.7817 25.8382C22.0449 25.4585 23.2805 24.9684 24.4402 24.0779C25.379 23.3532 26.1935 22.4213 26.4489 20.7163V19.9501C26.4351 19.9086 26.4075 19.8741 26.4006 19.8258C26.2073 19.0389 25.7932 18.5902 25.3031 18.6592H25.2892Z" fill="url(#paint2_linear_994_3737)"/>
<path d="M25.2892 24.7475C24.7991 24.8096 24.4609 25.3411 24.3298 26.1281C24.2952 26.3489 24.1779 26.6113 24.0536 26.7148C23.5912 27.1083 23.1287 27.5224 22.6386 27.7916C20.4228 28.9996 18.1103 29.3586 15.791 29.5588C13.7546 29.7382 11.7183 29.6554 9.68888 29.331C8.13574 29.0825 6.58951 28.7097 5.0985 27.9573C4.48415 27.6467 3.8698 27.3153 3.35899 26.6872C3.24165 26.5422 3.1381 26.3006 3.10359 26.0728C2.97934 25.3066 2.58588 24.7613 2.08887 24.7406C1.59187 24.7199 1.15009 25.2376 1.04655 26.0038C0.943007 26.7562 1.09487 27.4396 1.35027 28.0746C1.63329 28.7718 2.04056 29.2757 2.48924 29.7037C3.33138 30.5113 4.26326 31.0014 5.21585 31.3949C7.25909 32.244 9.35064 32.6305 11.4629 32.7962C14.5899 33.0378 17.6961 32.8445 20.7817 31.9264C22.0449 31.5468 23.2805 31.0567 24.4402 30.1662C25.379 29.4414 26.1935 28.5095 26.4489 26.8045V26.0383C26.4351 25.9969 26.4075 25.9624 26.4006 25.9141C26.2073 25.1271 25.7932 24.6785 25.3031 24.7475H25.2892Z" fill="url(#paint3_linear_994_3737)"/>
<defs>
<linearGradient id="paint0_linear_994_3737" x1="0.998641" y1="7.20058" x2="26.4355" y2="7.20058" gradientUnits="userSpaceOnUse">
<stop stop-color="#63C611"/>
<stop offset="1" stop-color="#0BC68F"/>
</linearGradient>
<linearGradient id="paint1_linear_994_3737" x1="0.99932" y1="16.195" x2="26.4362" y2="16.195" gradientUnits="userSpaceOnUse">
<stop stop-color="#63C611"/>
<stop offset="1" stop-color="#0BC68F"/>
</linearGradient>
<linearGradient id="paint2_linear_994_3737" x1="0.99823" y1="22.7319" x2="26.4351" y2="22.7319" gradientUnits="userSpaceOnUse">
<stop stop-color="#63C611"/>
<stop offset="1" stop-color="#0BC68F"/>
</linearGradient>
<linearGradient id="paint3_linear_994_3737" x1="0.99823" y1="28.8202" x2="26.4351" y2="28.8202" gradientUnits="userSpaceOnUse">
<stop stop-color="#63C611"/>
<stop offset="1" stop-color="#0BC68F"/>
</linearGradient>
</defs>
</svg>
