<svg width="18" height="18" viewBox="0 0 18 18" fill="none" xmlns="http://www.w3.org/2000/svg">
<g clip-path="url(#clip0_556_1869)">
<path d="M16.5 12V15.75C16.5 15.9489 16.421 16.1397 16.2803 16.2803C16.1397 16.421 15.9489 16.5 15.75 16.5H2.25C2.05109 16.5 1.86032 16.421 1.71967 16.2803C1.57902 16.1397 1.5 15.9489 1.5 15.75V12H0V15.75C0 16.3467 0.237053 16.919 0.65901 17.341C1.08097 17.7629 1.65326 18 2.25 18H15.75C16.3467 18 16.919 17.7629 17.341 17.341C17.7629 16.919 18 16.3467 18 15.75V12H16.5Z" fill="#333333" fill-opacity="0.3"/>
<path d="M8.97509 8.52989e-06C8.67973 -0.000805673 8.38711 0.0566763 8.11401 0.16916C7.84091 0.281643 7.59269 0.446917 7.38359 0.655509L4.44434 3.59476L5.50484 4.65526L8.23034 1.93051L8.24984 14.25H9.74984L9.73034 1.94101L12.4446 4.65526L13.5051 3.59476L10.5658 0.655509C10.3569 0.44694 10.1088 0.281674 9.8358 0.169189C9.56283 0.0567036 9.27033 -0.000788885 8.97509 8.52989e-06Z" fill="#333333" fill-opacity="0.3"/>
</g>
<defs>
<clipPath id="clip0_556_1869">
<rect width="18" height="18" fill="white"/>
</clipPath>
</defs>
</svg>
