<svg width="17" height="9" viewBox="0 0 17 9" fill="none" xmlns="http://www.w3.org/2000/svg">
<path d="M16.8876 3.99864L13.0241 0.135056C12.8853 -0.0270056 12.6414 -0.0458977 12.4793 0.0929221C12.3173 0.231709 12.2984 0.475614 12.4372 0.637676C12.4502 0.652783 12.4642 0.666894 12.4793 0.67981L15.6822 3.88658H0.386345C0.172985 3.88658 0 4.05956 0 4.27295C0 4.48635 0.172985 4.6593 0.386345 4.6593H15.6822L12.4793 7.86218C12.3173 8.00097 12.2984 8.24487 12.4372 8.40694C12.576 8.569 12.8199 8.58789 12.982 8.44907C12.9971 8.43612 13.0112 8.42204 13.0241 8.40694L16.8877 4.54336C17.0374 4.39272 17.0374 4.14934 16.8876 3.99864Z" fill="#37C650"/>
</svg>
