<svg width="172" height="172" viewBox="0 0 172 172" fill="none" xmlns="http://www.w3.org/2000/svg">
<path d="M4.69431 0H0.050293V4.64402H4.69431V0Z" fill="#1E1F20"/>
<path d="M9.33832 0H4.69431V4.64402H9.33832V0Z" fill="#1E1F20"/>
<path d="M13.9823 0H9.33832V4.64402H13.9823V0Z" fill="#1E1F20"/>
<path d="M18.6264 0H13.9823V4.64402H18.6264V0Z" fill="#1E1F20"/>
<path d="M23.2704 0H18.6264V4.64402H23.2704V0Z" fill="#1E1F20"/>
<path d="M27.9144 0H23.2704V4.64402H27.9144V0Z" fill="#1E1F20"/>
<path d="M32.5584 0H27.9144V4.64402H32.5584V0Z" fill="#1E1F20"/>
<path d="M41.8464 0H37.2024V4.64402H41.8464V0Z" fill="#1E1F20"/>
<path d="M46.4904 0H41.8464V4.64402H46.4904V0Z" fill="#1E1F20"/>
<path d="M55.7785 0H51.1345V4.64402H55.7785V0Z" fill="#1E1F20"/>
<path d="M74.3545 0H69.7105V4.64402H74.3545V0Z" fill="#1E1F20"/>
<path d="M78.9986 0H74.3545V4.64402H78.9986V0Z" fill="#1E1F20"/>
<path d="M92.9306 0H88.2866V4.64402H92.9306V0Z" fill="#1E1F20"/>
<path d="M97.5746 0H92.9306V4.64402H97.5746V0Z" fill="#1E1F20"/>
<path d="M102.219 0H97.5746V4.64402H102.219V0Z" fill="#1E1F20"/>
<path d="M106.863 0H102.219V4.64402H106.863V0Z" fill="#1E1F20"/>
<path d="M111.507 0H106.863V4.64402H111.507V0Z" fill="#1E1F20"/>
<path d="M116.151 0H111.507V4.64402H116.151V0Z" fill="#1E1F20"/>
<path d="M120.795 0H116.151V4.64402H120.795V0Z" fill="#1E1F20"/>
<path d="M125.439 0H120.795V4.64402H125.439V0Z" fill="#1E1F20"/>
<path d="M130.083 0H125.439V4.64402H130.083V0Z" fill="#1E1F20"/>
<path d="M134.727 0H130.083V4.64402H134.727V0Z" fill="#1E1F20"/>
<path d="M144.015 0H139.371V4.64402H144.015V0Z" fill="#1E1F20"/>
<path d="M148.659 0H144.015V4.64402H148.659V0Z" fill="#1E1F20"/>
<path d="M153.303 0H148.659V4.64402H153.303V0Z" fill="#1E1F20"/>
<path d="M157.947 0H153.303V4.64402H157.947V0Z" fill="#1E1F20"/>
<path d="M162.591 0H157.947V4.64402H162.591V0Z" fill="#1E1F20"/>
<path d="M167.235 0H162.591V4.64402H167.235V0Z" fill="#1E1F20"/>
<path d="M171.879 0H167.235V4.64402H171.879V0Z" fill="#1E1F20"/>
<path d="M4.69431 4.64402H0.050293V9.28803H4.69431V4.64402Z" fill="#1E1F20"/>
<path d="M32.5584 4.64402H27.9144V9.28803H32.5584V4.64402Z" fill="#1E1F20"/>
<path d="M51.1345 4.64402H46.4904V9.28803H51.1345V4.64402Z" fill="#1E1F20"/>
<path d="M65.0665 4.64402H60.4225V9.28803H65.0665V4.64402Z" fill="#1E1F20"/>
<path d="M74.3545 4.64402H69.7105V9.28803H74.3545V4.64402Z" fill="#1E1F20"/>
<path d="M83.6426 4.64402H78.9986L78.9986 9.28803H83.6426V4.64402Z" fill="#1E1F20"/>
<path d="M88.2866 4.64402H83.6426V9.28803H88.2866V4.64402Z" fill="#1E1F20"/>
<path d="M92.9306 4.64402H88.2866V9.28803H92.9306V4.64402Z" fill="#1E1F20"/>
<path d="M106.863 4.64402H102.219V9.28803H106.863V4.64402Z" fill="#1E1F20"/>
<path d="M111.507 4.64402H106.863V9.28803H111.507V4.64402Z" fill="#1E1F20"/>
<path d="M120.795 4.64402H116.151V9.28803H120.795V4.64402Z" fill="#1E1F20"/>
<path d="M125.439 4.64402H120.795V9.28803H125.439V4.64402Z" fill="#1E1F20"/>
<path d="M144.015 4.64402H139.371V9.28803H144.015V4.64402Z" fill="#1E1F20"/>
<path d="M171.879 4.64402H167.235V9.28803H171.879V4.64402Z" fill="#1E1F20"/>
<path d="M4.69431 9.28803H0.050293V13.932H4.69431V9.28803Z" fill="#1E1F20"/>
<path d="M13.9823 9.28803H9.33832V13.932H13.9823V9.28803Z" fill="#1E1F20"/>
<path d="M18.6264 9.28803H13.9823V13.932H18.6264V9.28803Z" fill="#1E1F20"/>
<path d="M23.2704 9.28803H18.6264V13.932H23.2704V9.28803Z" fill="#1E1F20"/>
<path d="M32.5584 9.28803H27.9144V13.932H32.5584V9.28803Z" fill="#1E1F20"/>
<path d="M51.1345 9.28803H46.4904V13.932H51.1345V9.28803Z" fill="#1E1F20"/>
<path d="M69.7105 9.28803H65.0665V13.932H69.7105L69.7105 9.28803Z" fill="#1E1F20"/>
<path d="M74.3545 9.28803H69.7105L69.7105 13.932H74.3545V9.28803Z" fill="#1E1F20"/>
<path d="M78.9986 9.28803H74.3545V13.932H78.9986L78.9986 9.28803Z" fill="#1E1F20"/>
<path d="M88.2866 9.28803H83.6426L83.6426 13.932H88.2866V9.28803Z" fill="#1E1F20"/>
<path d="M92.9306 9.28803H88.2866V13.932H92.9306V9.28803Z" fill="#1E1F20"/>
<path d="M116.151 9.28803H111.507V13.932H116.151V9.28803Z" fill="#1E1F20"/>
<path d="M120.795 9.28803H116.151V13.932H120.795V9.28803Z" fill="#1E1F20"/>
<path d="M134.727 9.28803H130.083V13.932H134.727V9.28803Z" fill="#1E1F20"/>
<path d="M144.015 9.28803H139.371V13.932H144.015V9.28803Z" fill="#1E1F20"/>
<path d="M153.303 9.28803H148.659V13.932H153.303V9.28803Z" fill="#1E1F20"/>
<path d="M157.947 9.28803H153.303V13.932H157.947V9.28803Z" fill="#1E1F20"/>
<path d="M162.591 9.28803H157.947V13.932H162.591V9.28803Z" fill="#1E1F20"/>
<path d="M171.879 9.28803H167.235V13.932H171.879V9.28803Z" fill="#1E1F20"/>
<path d="M4.69431 13.932H0.050293V18.5761H4.69431V13.932Z" fill="#1E1F20"/>
<path d="M13.9823 13.932H9.33832V18.5761H13.9823V13.932Z" fill="#1E1F20"/>
<path d="M18.6264 13.932H13.9823V18.5761H18.6264V13.932Z" fill="#1E1F20"/>
<path d="M23.2704 13.932H18.6264V18.5761H23.2704V13.932Z" fill="#1E1F20"/>
<path d="M32.5584 13.932H27.9144V18.5761H32.5584V13.932Z" fill="#1E1F20"/>
<path d="M41.8464 13.932H37.2024V18.5761H41.8464V13.932Z" fill="#1E1F20"/>
<path d="M46.4904 13.932H41.8464V18.5761H46.4904V13.932Z" fill="#1E1F20"/>
<path d="M60.4225 13.932H55.7785V18.5761H60.4225V13.932Z" fill="#1E1F20"/>
<path d="M65.0665 13.932H60.4225V18.5761H65.0665V13.932Z" fill="#1E1F20"/>
<path d="M92.9306 13.932H88.2866V18.5761H92.9306V13.932Z" fill="#1E1F20"/>
<path d="M97.5746 13.932H92.9306V18.5761H97.5746V13.932Z" fill="#1E1F20"/>
<path d="M102.219 13.932H97.5746V18.5761H102.219V13.932Z" fill="#1E1F20"/>
<path d="M106.863 13.932H102.219V18.5761H106.863V13.932Z" fill="#1E1F20"/>
<path d="M111.507 13.932H106.863V18.5761H111.507V13.932Z" fill="#1E1F20"/>
<path d="M116.151 13.932H111.507V18.5761H116.151V13.932Z" fill="#1E1F20"/>
<path d="M120.795 13.932H116.151V18.5761H120.795V13.932Z" fill="#1E1F20"/>
<path d="M134.727 13.932H130.083V18.5761H134.727V13.932Z" fill="#1E1F20"/>
<path d="M144.015 13.932H139.371V18.5761H144.015V13.932Z" fill="#1E1F20"/>
<path d="M153.303 13.932H148.659V18.5761H153.303V13.932Z" fill="#1E1F20"/>
<path d="M157.947 13.932H153.303V18.5761H157.947V13.932Z" fill="#1E1F20"/>
<path d="M162.591 13.932H157.947V18.5761H162.591V13.932Z" fill="#1E1F20"/>
<path d="M171.879 13.932H167.235V18.5761H171.879V13.932Z" fill="#1E1F20"/>
<path d="M4.69431 18.5761H0.050293V23.2201H4.69431V18.5761Z" fill="#1E1F20"/>
<path d="M13.9823 18.5761H9.33832V23.2201H13.9823V18.5761Z" fill="#1E1F20"/>
<path d="M18.6264 18.5761H13.9823V23.2201H18.6264V18.5761Z" fill="#1E1F20"/>
<path d="M23.2704 18.5761H18.6264V23.2201H23.2704V18.5761Z" fill="#1E1F20"/>
<path d="M32.5584 18.5761H27.9144V23.2201H32.5584V18.5761Z" fill="#1E1F20"/>
<path d="M41.8464 18.5761H37.2024V23.2201H41.8464V18.5761Z" fill="#1E1F20"/>
<path d="M46.4904 18.5761H41.8464V23.2201H46.4904V18.5761Z" fill="#1E1F20"/>
<path d="M51.1345 18.5761H46.4904V23.2201H51.1345V18.5761Z" fill="#1E1F20"/>
<path d="M60.4225 18.5761H55.7785V23.2201H60.4225V18.5761Z" fill="#1E1F20"/>
<path d="M65.0665 18.5761H60.4225V23.2201H65.0665V18.5761Z" fill="#1E1F20"/>
<path d="M74.3545 18.5761H69.7105V23.2201H74.3545V18.5761Z" fill="#1E1F20"/>
<path d="M78.9986 18.5761H74.3545V23.2201H78.9986V18.5761Z" fill="#1E1F20"/>
<path d="M83.6426 18.5761H78.9986V23.2201H83.6426V18.5761Z" fill="#1E1F20"/>
<path d="M88.2866 18.5761H83.6426V23.2201H88.2866V18.5761Z" fill="#1E1F20"/>
<path d="M97.5746 18.5761H92.9306V23.2201H97.5746V18.5761Z" fill="#1E1F20"/>
<path d="M102.219 18.5761H97.5746V23.2201H102.219V18.5761Z" fill="#1E1F20"/>
<path d="M106.863 18.5761H102.219V23.2201H106.863V18.5761Z" fill="#1E1F20"/>
<path d="M111.507 18.5761H106.863V23.2201H111.507V18.5761Z" fill="#1E1F20"/>
<path d="M120.795 18.5761H116.151V23.2201H120.795V18.5761Z" fill="#1E1F20"/>
<path d="M144.015 18.5761H139.371V23.2201H144.015V18.5761Z" fill="#1E1F20"/>
<path d="M153.303 18.5761H148.659V23.2201H153.303V18.5761Z" fill="#1E1F20"/>
<path d="M157.947 18.5761H153.303V23.2201H157.947V18.5761Z" fill="#1E1F20"/>
<path d="M162.591 18.5761H157.947V23.2201H162.591V18.5761Z" fill="#1E1F20"/>
<path d="M171.879 18.5761H167.235V23.2201H171.879V18.5761Z" fill="#1E1F20"/>
<path d="M4.69431 23.2201H0.050293V27.8641H4.69431V23.2201Z" fill="#1E1F20"/>
<path d="M32.5584 23.2201H27.9144V27.8641H32.5584V23.2201Z" fill="#1E1F20"/>
<path d="M41.8464 23.2201H37.2024V27.8641H41.8464V23.2201Z" fill="#1E1F20"/>
<path d="M46.4904 23.2201H41.8464V27.8641H46.4904V23.2201Z" fill="#1E1F20"/>
<path d="M55.7785 23.2201H51.1345V27.8641H55.7785L55.7785 23.2201Z" fill="#1E1F20"/>
<path d="M60.4225 23.2201H55.7785L55.7785 27.8641H60.4225V23.2201Z" fill="#1E1F20"/>
<path d="M69.7105 23.2201H65.0665V27.8641H69.7105L69.7105 23.2201Z" fill="#1E1F20"/>
<path d="M74.3545 23.2201H69.7105L69.7105 27.8641H74.3545V23.2201Z" fill="#1E1F20"/>
<path d="M88.2866 23.2201H83.6426L83.6426 27.8641H88.2866V23.2201Z" fill="#1E1F20"/>
<path d="M92.9306 23.2201H88.2866V27.8641H92.9306V23.2201Z" fill="#1E1F20"/>
<path d="M102.219 23.2201H97.5746V27.8641H102.219V23.2201Z" fill="#1E1F20"/>
<path d="M106.863 23.2201H102.219V27.8641H106.863V23.2201Z" fill="#1E1F20"/>
<path d="M111.507 23.2201H106.863V27.8641H111.507V23.2201Z" fill="#1E1F20"/>
<path d="M120.795 23.2201H116.151V27.8641H120.795V23.2201Z" fill="#1E1F20"/>
<path d="M144.015 23.2201H139.371V27.8641H144.015V23.2201Z" fill="#1E1F20"/>
<path d="M171.879 23.2201H167.235V27.8641H171.879V23.2201Z" fill="#1E1F20"/>
<path d="M4.69431 27.8641H0.050293V32.5081H4.69431V27.8641Z" fill="#1E1F20"/>
<path d="M9.33832 27.8641H4.69431V32.5081H9.33832V27.8641Z" fill="#1E1F20"/>
<path d="M13.9823 27.8641H9.33832V32.5081H13.9823V27.8641Z" fill="#1E1F20"/>
<path d="M18.6264 27.8641H13.9823V32.5081H18.6264V27.8641Z" fill="#1E1F20"/>
<path d="M23.2704 27.8641H18.6264V32.5081H23.2704V27.8641Z" fill="#1E1F20"/>
<path d="M27.9144 27.8641H23.2704V32.5081H27.9144V27.8641Z" fill="#1E1F20"/>
<path d="M32.5584 27.8641H27.9144V32.5081H32.5584V27.8641Z" fill="#1E1F20"/>
<path d="M41.8464 27.8641H37.2024V32.5081H41.8464V27.8641Z" fill="#1E1F20"/>
<path d="M51.1345 27.8641H46.4904V32.5081H51.1345V27.8641Z" fill="#1E1F20"/>
<path d="M60.4225 27.8641H55.7785L55.7785 32.5081H60.4225V27.8641Z" fill="#1E1F20"/>
<path d="M69.7105 27.8641H65.0665V32.5081H69.7105V27.8641Z" fill="#1E1F20"/>
<path d="M78.9986 27.8641H74.3545L74.3545 32.5081H78.9986V27.8641Z" fill="#1E1F20"/>
<path d="M88.2866 27.8641H83.6426V32.5081H88.2866V27.8641Z" fill="#1E1F20"/>
<path d="M97.5746 27.8641H92.9306V32.5081H97.5746V27.8641Z" fill="#1E1F20"/>
<path d="M106.863 27.8641H102.219V32.5081H106.863V27.8641Z" fill="#1E1F20"/>
<path d="M116.151 27.8641H111.507V32.5081H116.151V27.8641Z" fill="#1E1F20"/>
<path d="M125.439 27.8641H120.795V32.5081H125.439V27.8641Z" fill="#1E1F20"/>
<path d="M134.727 27.8641H130.083V32.5081H134.727V27.8641Z" fill="#1E1F20"/>
<path d="M144.015 27.8641H139.371V32.5081H144.015V27.8641Z" fill="#1E1F20"/>
<path d="M148.659 27.8641H144.015V32.5081H148.659V27.8641Z" fill="#1E1F20"/>
<path d="M153.303 27.8641H148.659V32.5081H153.303V27.8641Z" fill="#1E1F20"/>
<path d="M157.947 27.8641H153.303V32.5081H157.947V27.8641Z" fill="#1E1F20"/>
<path d="M162.591 27.8641H157.947V32.5081H162.591V27.8641Z" fill="#1E1F20"/>
<path d="M167.235 27.8641H162.591V32.5081H167.235V27.8641Z" fill="#1E1F20"/>
<path d="M171.879 27.8641H167.235V32.5081H171.879V27.8641Z" fill="#1E1F20"/>
<path d="M41.8464 32.5081H37.2024V37.1521H41.8464V32.5081Z" fill="#1E1F20"/>
<path d="M46.4904 32.5081H41.8464V37.1521H46.4904V32.5081Z" fill="#1E1F20"/>
<path d="M51.1345 32.5081H46.4904V37.1521H51.1345V32.5081Z" fill="#1E1F20"/>
<path d="M55.7785 32.5081H51.1345V37.1521H55.7785L55.7785 32.5081Z" fill="#1E1F20"/>
<path d="M65.0665 32.5081H60.4225L60.4225 37.1521H65.0665V32.5081Z" fill="#1E1F20"/>
<path d="M69.7105 32.5081H65.0665V37.1521H69.7105V32.5081Z" fill="#1E1F20"/>
<path d="M78.9986 32.5081H74.3545V37.1521H78.9986V32.5081Z" fill="#1E1F20"/>
<path d="M83.6426 32.5081H78.9986V37.1521H83.6426L83.6426 32.5081Z" fill="#1E1F20"/>
<path d="M92.9306 32.5081H88.2866V37.1521H92.9306V32.5081Z" fill="#1E1F20"/>
<path d="M97.5746 32.5081H92.9306V37.1521H97.5746V32.5081Z" fill="#1E1F20"/>
<path d="M106.863 32.5081H102.219V37.1521H106.863V32.5081Z" fill="#1E1F20"/>
<path d="M111.507 32.5081H106.863V37.1521H111.507V32.5081Z" fill="#1E1F20"/>
<path d="M116.151 32.5081H111.507V37.1521H116.151V32.5081Z" fill="#1E1F20"/>
<path d="M120.795 32.5081H116.151V37.1521H120.795V32.5081Z" fill="#1E1F20"/>
<path d="M130.083 32.5081H125.439V37.1521H130.083V32.5081Z" fill="#1E1F20"/>
<path d="M4.69431 37.1521H0.050293V41.7961H4.69431V37.1521Z" fill="#1E1F20"/>
<path d="M9.33832 37.1521H4.69431V41.7961H9.33832V37.1521Z" fill="#1E1F20"/>
<path d="M13.9823 37.1521H9.33832V41.7961H13.9823V37.1521Z" fill="#1E1F20"/>
<path d="M23.2704 37.1521H18.6264V41.7961H23.2704V37.1521Z" fill="#1E1F20"/>
<path d="M32.5584 37.1521H27.9144V41.7961H32.5584V37.1521Z" fill="#1E1F20"/>
<path d="M41.8464 37.1521H37.2024V41.7961H41.8464V37.1521Z" fill="#1E1F20"/>
<path d="M46.4904 37.1521H41.8464V41.7961H46.4904V37.1521Z" fill="#1E1F20"/>
<path d="M55.7785 37.1521H51.1345V41.7961H55.7785V37.1521Z" fill="#1E1F20"/>
<path d="M60.4225 37.1521H55.7785V41.7961H60.4225L60.4225 37.1521Z" fill="#1E1F20"/>
<path d="M65.0665 37.1521H60.4225L60.4225 41.7961H65.0665V37.1521Z" fill="#1E1F20"/>
<path d="M69.7105 37.1521H65.0665V41.7961H69.7105V37.1521Z" fill="#1E1F20"/>
<path d="M74.3545 37.1521H69.7105V41.7961H74.3545L74.3545 37.1521Z" fill="#1E1F20"/>
<path d="M78.9986 37.1521H74.3545L74.3545 41.7961H78.9986V37.1521Z" fill="#1E1F20"/>
<path d="M83.6426 37.1521H78.9986V41.7961H83.6426V37.1521Z" fill="#1E1F20"/>
<path d="M92.9306 37.1521H88.2866V41.7961H92.9306V37.1521Z" fill="#1E1F20"/>
<path d="M97.5746 37.1521H92.9306V41.7961H97.5746V37.1521Z" fill="#1E1F20"/>
<path d="M111.507 37.1521H106.863V41.7961H111.507V37.1521Z" fill="#1E1F20"/>
<path d="M125.439 37.1521H120.795V41.7961H125.439V37.1521Z" fill="#1E1F20"/>
<path d="M139.371 37.1521H134.727V41.7961H139.371V37.1521Z" fill="#1E1F20"/>
<path d="M144.015 37.1521H139.371V41.7961H144.015V37.1521Z" fill="#1E1F20"/>
<path d="M148.659 37.1521H144.015V41.7961H148.659V37.1521Z" fill="#1E1F20"/>
<path d="M153.303 37.1521H148.659V41.7961H153.303V37.1521Z" fill="#1E1F20"/>
<path d="M157.947 37.1521H153.303V41.7961H157.947V37.1521Z" fill="#1E1F20"/>
<path d="M171.879 37.1521H167.235V41.7961H171.879V37.1521Z" fill="#1E1F20"/>
<path d="M4.69431 41.7961H0.050293V46.4402H4.69431V41.7961Z" fill="#1E1F20"/>
<path d="M9.33832 41.7961H4.69431V46.4402H9.33832V41.7961Z" fill="#1E1F20"/>
<path d="M18.6264 41.7961H13.9823V46.4402H18.6264V41.7961Z" fill="#1E1F20"/>
<path d="M27.9144 41.7961H23.2704V46.4402H27.9144V41.7961Z" fill="#1E1F20"/>
<path d="M37.2024 41.7961H32.5584V46.4402H37.2024V41.7961Z" fill="#1E1F20"/>
<path d="M60.4225 41.7961H55.7785L55.7785 46.4402H60.4225V41.7961Z" fill="#1E1F20"/>
<path d="M69.7105 41.7961H65.0665V46.4402H69.7105V41.7961Z" fill="#1E1F20"/>
<path d="M78.9986 41.7961H74.3545L74.3545 46.4402H78.9986V41.7961Z" fill="#1E1F20"/>
<path d="M83.6426 41.7961H78.9986V46.4402H83.6426V41.7961Z" fill="#1E1F20"/>
<path d="M88.2866 41.7961H83.6426V46.4402H88.2866V41.7961Z" fill="#1E1F20"/>
<path d="M92.9306 41.7961H88.2866V46.4402H92.9306V41.7961Z" fill="#1E1F20"/>
<path d="M97.5746 41.7961H92.9306V46.4402H97.5746V41.7961Z" fill="#1E1F20"/>
<path d="M102.219 41.7961H97.5746V46.4402H102.219V41.7961Z" fill="#1E1F20"/>
<path d="M106.863 41.7961H102.219V46.4402H106.863V41.7961Z" fill="#1E1F20"/>
<path d="M120.795 41.7961H116.151V46.4402H120.795V41.7961Z" fill="#1E1F20"/>
<path d="M125.439 41.7961H120.795V46.4402H125.439V41.7961Z" fill="#1E1F20"/>
<path d="M130.083 41.7961H125.439V46.4402H130.083V41.7961Z" fill="#1E1F20"/>
<path d="M134.727 41.7961H130.083V46.4402H134.727V41.7961Z" fill="#1E1F20"/>
<path d="M139.371 41.7961H134.727V46.4402H139.371V41.7961Z" fill="#1E1F20"/>
<path d="M148.659 41.7961H144.015V46.4402H148.659V41.7961Z" fill="#1E1F20"/>
<path d="M162.591 41.7961H157.947V46.4402H162.591V41.7961Z" fill="#1E1F20"/>
<path d="M167.235 41.7961H162.591V46.4402H167.235V41.7961Z" fill="#1E1F20"/>
<path d="M13.9823 46.4402H9.33832V51.0842H13.9823V46.4402Z" fill="#1E1F20"/>
<path d="M32.5584 46.4402H27.9144V51.0842H32.5584V46.4402Z" fill="#1E1F20"/>
<path d="M41.8464 46.4402H37.2024V51.0842H41.8464V46.4402Z" fill="#1E1F20"/>
<path d="M46.4904 46.4402H41.8464V51.0842H46.4904V46.4402Z" fill="#1E1F20"/>
<path d="M51.1345 46.4402H46.4904V51.0842H51.1345V46.4402Z" fill="#1E1F20"/>
<path d="M55.7785 46.4402H51.1345V51.0842H55.7785L55.7785 46.4402Z" fill="#1E1F20"/>
<path d="M65.0665 46.4402H60.4225L60.4225 51.0842H65.0665V46.4402Z" fill="#1E1F20"/>
<path d="M69.7105 46.4402H65.0665V51.0842H69.7105V46.4402Z" fill="#1E1F20"/>
<path d="M78.9986 46.4402H74.3545V51.0842H78.9986V46.4402Z" fill="#1E1F20"/>
<path d="M83.6426 46.4402H78.9986V51.0842H83.6426V46.4402Z" fill="#1E1F20"/>
<path d="M88.2866 46.4402H83.6426V51.0842H88.2866V46.4402Z" fill="#1E1F20"/>
<path d="M106.863 46.4402H102.219V51.0842H106.863V46.4402Z" fill="#1E1F20"/>
<path d="M116.151 46.4402H111.507V51.0842H116.151V46.4402Z" fill="#1E1F20"/>
<path d="M148.659 46.4402H144.015V51.0842H148.659V46.4402Z" fill="#1E1F20"/>
<path d="M167.235 46.4402H162.591V51.0842H167.235V46.4402Z" fill="#1E1F20"/>
<path d="M171.879 46.4402H167.235V51.0842H171.879V46.4402Z" fill="#1E1F20"/>
<path d="M4.69431 51.0842H0.050293V55.7282H4.69431V51.0842Z" fill="#1E1F20"/>
<path d="M13.9823 51.0842H9.33832V55.7282H13.9823V51.0842Z" fill="#1E1F20"/>
<path d="M18.6264 51.0842H13.9823V55.7282H18.6264V51.0842Z" fill="#1E1F20"/>
<path d="M27.9144 51.0842H23.2704V55.7282H27.9144V51.0842Z" fill="#1E1F20"/>
<path d="M41.8464 51.0842H37.2024V55.7282H41.8464V51.0842Z" fill="#1E1F20"/>
<path d="M60.4225 51.0842H55.7785L55.7785 55.7282H60.4225L60.4225 51.0842Z" fill="#1E1F20"/>
<path d="M65.0665 51.0842H60.4225L60.4225 55.7282H65.0665V51.0842Z" fill="#1E1F20"/>
<path d="M74.3545 51.0842H69.7105L69.7105 55.7282H74.3545L74.3545 51.0842Z" fill="#1E1F20"/>
<path d="M78.9986 51.0842H74.3545L74.3545 55.7282H78.9986V51.0842Z" fill="#1E1F20"/>
<path d="M111.507 51.0842H106.863V55.7282H111.507V51.0842Z" fill="#1E1F20"/>
<path d="M130.083 51.0842H125.439V55.7282H130.083V51.0842Z" fill="#1E1F20"/>
<path d="M157.947 51.0842H153.303V55.7282H157.947V51.0842Z" fill="#1E1F20"/>
<path d="M171.879 51.0842H167.235V55.7282H171.879V51.0842Z" fill="#1E1F20"/>
<path d="M9.33832 55.7282H4.69431V60.3722H9.33832V55.7282Z" fill="#1E1F20"/>
<path d="M13.9823 55.7282H9.33832V60.3722H13.9823V55.7282Z" fill="#1E1F20"/>
<path d="M18.6264 55.7282H13.9823V60.3722H18.6264V55.7282Z" fill="#1E1F20"/>
<path d="M27.9144 55.7282H23.2704V60.3722H27.9144V55.7282Z" fill="#1E1F20"/>
<path d="M32.5584 55.7282L27.9144 55.7282V60.3722H32.5584V55.7282Z" fill="#1E1F20"/>
<path d="M41.8464 55.7282H37.2024V60.3722H41.8464V55.7282Z" fill="#1E1F20"/>
<path d="M46.4904 55.7282L41.8464 55.7282V60.3722H46.4904V55.7282Z" fill="#1E1F20"/>
<path d="M51.1345 55.7282H46.4904V60.3722H51.1345V55.7282Z" fill="#1E1F20"/>
<path d="M55.7785 55.7282L51.1345 55.7282V60.3722H55.7785L55.7785 55.7282Z" fill="#1E1F20"/>
<path d="M69.7105 55.7282H65.0665V60.3722H69.7105L69.7105 55.7282Z" fill="#1E1F20"/>
<path d="M74.3545 55.7282H69.7105L69.7105 60.3722H74.3545V55.7282Z" fill="#1E1F20"/>
<path d="M83.6426 55.7282L78.9986 55.7282L78.9986 60.3722H83.6426V55.7282Z" fill="#1E1F20"/>
<path d="M88.2866 55.7282H83.6426V60.3722H88.2866V55.7282Z" fill="#1E1F20"/>
<path d="M97.5746 55.7282H92.9306V60.3722H97.5746V55.7282Z" fill="#1E1F20"/>
<path d="M120.795 55.7282H116.151V60.3722H120.795V55.7282Z" fill="#1E1F20"/>
<path d="M130.083 55.7282H125.439V60.3722H130.083V55.7282Z" fill="#1E1F20"/>
<path d="M134.727 55.7282L130.083 55.7282V60.3722H134.727V55.7282Z" fill="#1E1F20"/>
<path d="M139.371 55.7282H134.727V60.3722H139.371V55.7282Z" fill="#1E1F20"/>
<path d="M144.015 55.7282H139.371V60.3722H144.015V55.7282Z" fill="#1E1F20"/>
<path d="M157.947 55.7282H153.303V60.3722H157.947V55.7282Z" fill="#1E1F20"/>
<path d="M162.591 55.7282L157.947 55.7282V60.3722H162.591V55.7282Z" fill="#1E1F20"/>
<path d="M171.879 55.7282H167.235V60.3722H171.879V55.7282Z" fill="#1E1F20"/>
<path d="M18.6264 60.3722H13.9823V65.0162H18.6264V60.3722Z" fill="#1E1F20"/>
<path d="M23.2704 60.3722H18.6264V65.0162H23.2704V60.3722Z" fill="#1E1F20"/>
<path d="M41.8464 60.3722H37.2024V65.0162H41.8464V60.3722Z" fill="#1E1F20"/>
<path d="M60.4225 60.3722L55.7785 60.3722L55.7785 65.0162H60.4225V60.3722Z" fill="#1E1F20"/>
<path d="M78.9986 60.3722H74.3545L74.3545 65.0162H78.9986L78.9986 60.3722Z" fill="#1E1F20"/>
<path d="M120.795 60.3722H116.151V65.0162H120.795V60.3722Z" fill="#1E1F20"/>
<path d="M125.439 60.3722H120.795V65.0162H125.439V60.3722Z" fill="#1E1F20"/>
<path d="M148.659 60.3722L144.015 60.3722V65.0162H148.659V60.3722Z" fill="#1E1F20"/>
<path d="M153.303 60.3722L148.659 60.3722V65.0162H153.303V60.3722Z" fill="#1E1F20"/>
<path d="M167.235 60.3722H162.591V65.0162H167.235V60.3722Z" fill="#1E1F20"/>
<path d="M171.879 60.3722H167.235V65.0162H171.879V60.3722Z" fill="#1E1F20"/>
<path d="M9.33832 65.0162H4.69431V69.6602H9.33832V65.0162Z" fill="#1E1F20"/>
<path d="M13.9823 65.0162H9.33832V69.6602H13.9823V65.0162Z" fill="#1E1F20"/>
<path d="M27.9144 65.0162H23.2704V69.6602H27.9144V65.0162Z" fill="#1E1F20"/>
<path d="M32.5584 65.0162H27.9144V69.6602H32.5584V65.0162Z" fill="#1E1F20"/>
<path d="M37.2024 65.0162H32.5584V69.6602H37.2024V65.0162Z" fill="#1E1F20"/>
<path d="M41.8464 65.0162H37.2024V69.6602H41.8464V65.0162Z" fill="#1E1F20"/>
<path d="M51.1345 65.0162H46.4904V69.6602H51.1345V65.0162Z" fill="#1E1F20"/>
<path d="M60.4225 65.0162H55.7785V69.6602H60.4225V65.0162Z" fill="#1E1F20"/>
<path d="M69.7105 65.0162H65.0665V69.6602H69.7105V65.0162Z" fill="#1E1F20"/>
<path d="M74.3545 65.0162H69.7105V69.6602H74.3545L74.3545 65.0162Z" fill="#1E1F20"/>
<path d="M88.2866 65.0162H83.6426V69.6602H88.2866V65.0162Z" fill="#1E1F20"/>
<path d="M92.9306 65.0162H88.2866V69.6602H92.9306V65.0162Z" fill="#1E1F20"/>
<path d="M102.219 65.0162H97.5746V69.6602H102.219V65.0162Z" fill="#1E1F20"/>
<path d="M111.507 65.0162H106.863V69.6602H111.507V65.0162Z" fill="#1E1F20"/>
<path d="M116.151 65.0162H111.507V69.6602H116.151V65.0162Z" fill="#1E1F20"/>
<path d="M144.015 65.0162H139.371V69.6602H144.015V65.0162Z" fill="#1E1F20"/>
<path d="M153.303 65.0162H148.659V69.6602H153.303V65.0162Z" fill="#1E1F20"/>
<path d="M157.947 65.0162H153.303V69.6602H157.947V65.0162Z" fill="#1E1F20"/>
<path d="M162.591 65.0162H157.947V69.6602H162.591V65.0162Z" fill="#1E1F20"/>
<path d="M167.235 65.0162H162.591V69.6602H167.235V65.0162Z" fill="#1E1F20"/>
<path d="M23.2704 69.6602L18.6264 69.6602V74.3043H23.2704V69.6602Z" fill="#1E1F20"/>
<path d="M55.7785 69.6602H51.1345V74.3043H55.7785L55.7785 69.6602Z" fill="#1E1F20"/>
<path d="M65.0665 69.6602H60.4225L60.4225 74.3043H65.0665V69.6602Z" fill="#1E1F20"/>
<path d="M69.7105 69.6602H65.0665V74.3043H69.7105V69.6602Z" fill="#1E1F20"/>
<path d="M78.9986 69.6602L74.3545 69.6602L74.3545 74.3043H78.9986V69.6602Z" fill="#1E1F20"/>
<path d="M88.2866 69.6602H83.6426V74.3043H88.2866V69.6602Z" fill="#1E1F20"/>
<path d="M97.5746 69.6602H92.9306V74.3043H97.5746V69.6602Z" fill="#1E1F20"/>
<path d="M102.219 69.6602H97.5746V74.3043H102.219V69.6602Z" fill="#1E1F20"/>
<path d="M106.863 69.6602H102.219V74.3043H106.863V69.6602Z" fill="#1E1F20"/>
<path d="M111.507 69.6602H106.863V74.3043H111.507V69.6602Z" fill="#1E1F20"/>
<path d="M116.151 69.6602H111.507V74.3043H116.151V69.6602Z" fill="#1E1F20"/>
<path d="M130.083 69.6602H125.439V74.3043H130.083V69.6602Z" fill="#1E1F20"/>
<path d="M139.371 69.6602L134.727 69.6602V74.3043H139.371V69.6602Z" fill="#1E1F20"/>
<path d="M144.015 69.6602H139.371V74.3043H144.015V69.6602Z" fill="#1E1F20"/>
<path d="M148.659 69.6602H144.015V74.3043H148.659V69.6602Z" fill="#1E1F20"/>
<path d="M153.303 69.6602H148.659V74.3043H153.303V69.6602Z" fill="#1E1F20"/>
<path d="M162.591 69.6602H157.947V74.3043H162.591V69.6602Z" fill="#1E1F20"/>
<path d="M171.879 69.6602L167.235 69.6602V74.3043H171.879V69.6602Z" fill="#1E1F20"/>
<path d="M9.33832 74.3042H4.69431V78.9483H9.33832V74.3042Z" fill="#1E1F20"/>
<path d="M18.6264 74.3043L13.9823 74.3042V78.9483H18.6264V74.3043Z" fill="#1E1F20"/>
<path d="M23.2704 74.3043H18.6264V78.9483H23.2704V74.3043Z" fill="#1E1F20"/>
<path d="M32.5584 74.3042H27.9144V78.9483H32.5584V74.3042Z" fill="#1E1F20"/>
<path d="M37.2024 74.3042H32.5584V78.9483H37.2024V74.3042Z" fill="#1E1F20"/>
<path d="M41.8464 74.3042H37.2024V78.9483H41.8464V74.3042Z" fill="#1E1F20"/>
<path d="M60.4225 74.3043H55.7785L55.7785 78.9483H60.4225L60.4225 74.3043Z" fill="#1E1F20"/>
<path d="M65.0665 74.3043H60.4225L60.4225 78.9483H65.0665V74.3043Z" fill="#1E1F20"/>
<path d="M69.7105 74.3043H65.0665V78.9483H69.7105V74.3043Z" fill="#1E1F20"/>
<path d="M78.9986 74.3043H74.3545V78.9483H78.9986V74.3043Z" fill="#1E1F20"/>
<path d="M83.6426 74.3043H78.9986V78.9483H83.6426L83.6426 74.3043Z" fill="#1E1F20"/>
<path d="M97.5746 74.3043H92.9306V78.9483H97.5746V74.3043Z" fill="#1E1F20"/>
<path d="M106.863 74.3043H102.219V78.9483H106.863V74.3043Z" fill="#1E1F20"/>
<path d="M111.507 74.3043H106.863V78.9483H111.507V74.3043Z" fill="#1E1F20"/>
<path d="M116.151 74.3043H111.507V78.9483H116.151V74.3043Z" fill="#1E1F20"/>
<path d="M120.795 74.3042L116.151 74.3043V78.9483H120.795V74.3042Z" fill="#1E1F20"/>
<path d="M125.439 74.3043L120.795 74.3042V78.9483H125.439V74.3043Z" fill="#1E1F20"/>
<path d="M134.727 74.3043H130.083V78.9483H134.727V74.3043Z" fill="#1E1F20"/>
<path d="M157.947 74.3043H153.303V78.9483H157.947V74.3043Z" fill="#1E1F20"/>
<path d="M162.591 74.3043H157.947V78.9483H162.591V74.3043Z" fill="#1E1F20"/>
<path d="M167.235 74.3043H162.591V78.9483H167.235V74.3043Z" fill="#1E1F20"/>
<path d="M171.879 74.3043H167.235V78.9483H171.879V74.3043Z" fill="#1E1F20"/>
<path d="M4.69431 78.9483L0.050293 78.9483V83.5923H4.69431V78.9483Z" fill="#1E1F20"/>
<path d="M9.33832 78.9483H4.69431V83.5923H9.33832V78.9483Z" fill="#1E1F20"/>
<path d="M18.6264 78.9483H13.9823V83.5923H18.6264V78.9483Z" fill="#1E1F20"/>
<path d="M23.2704 78.9483H18.6264V83.5923H23.2704V78.9483Z" fill="#1E1F20"/>
<path d="M27.9144 78.9483H23.2704V83.5923H27.9144V78.9483Z" fill="#1E1F20"/>
<path d="M46.4904 78.9483L41.8464 78.9483V83.5923H46.4904V78.9483Z" fill="#1E1F20"/>
<path d="M55.7785 78.9483L51.1345 78.9483V83.5923H55.7785L55.7785 78.9483Z" fill="#1E1F20"/>
<path d="M65.0665 78.9483H60.4225L60.4225 83.5923H65.0665V78.9483Z" fill="#1E1F20"/>
<path d="M69.7105 78.9483H65.0665V83.5923H69.7105V78.9483Z" fill="#1E1F20"/>
<path d="M74.3545 78.9483H69.7105V83.5923H74.3545L74.3545 78.9483Z" fill="#1E1F20"/>
<path d="M78.9986 78.9483H74.3545L74.3545 83.5923H78.9986V78.9483Z" fill="#1E1F20"/>
<path d="M83.6426 78.9483H78.9986V83.5923H83.6426V78.9483Z" fill="#1E1F20"/>
<path d="M97.5746 78.9483H92.9306V83.5923H97.5746V78.9483Z" fill="#1E1F20"/>
<path d="M106.863 78.9483H102.219V83.5923H106.863V78.9483Z" fill="#1E1F20"/>
<path d="M111.507 78.9483H106.863V83.5923H111.507V78.9483Z" fill="#1E1F20"/>
<path d="M116.151 78.9483H111.507V83.5923H116.151V78.9483Z" fill="#1E1F20"/>
<path d="M148.659 78.9483H144.015V83.5923H148.659V78.9483Z" fill="#1E1F20"/>
<path d="M157.947 78.9483H153.303V83.5923H157.947V78.9483Z" fill="#1E1F20"/>
<path d="M167.235 78.9483H162.591V83.5923H167.235V78.9483Z" fill="#1E1F20"/>
<path d="M4.69431 83.5923H0.050293V88.2363H4.69431V83.5923Z" fill="#1E1F20"/>
<path d="M9.33832 83.5923H4.69431V88.2363H9.33832V83.5923Z" fill="#1E1F20"/>
<path d="M23.2704 83.5923H18.6264V88.2363H23.2704V83.5923Z" fill="#1E1F20"/>
<path d="M27.9144 83.5923H23.2704V88.2363H27.9144V83.5923Z" fill="#1E1F20"/>
<path d="M32.5584 83.5923L27.9144 83.5923V88.2363H32.5584V83.5923Z" fill="#1E1F20"/>
<path d="M41.8464 83.5923L37.2024 83.5923V88.2363H41.8464V83.5923Z" fill="#1E1F20"/>
<path d="M51.1345 83.5923H46.4904V88.2363H51.1345V83.5923Z" fill="#1E1F20"/>
<path d="M74.3545 83.5923H69.7105L69.7105 88.2363H74.3545V83.5923Z" fill="#1E1F20"/>
<path d="M83.6426 83.5923H78.9986L78.9986 88.2363H83.6426V83.5923Z" fill="#1E1F20"/>
<path d="M88.2866 83.5923L83.6426 83.5923V88.2363H88.2866V83.5923Z" fill="#1E1F20"/>
<path d="M102.219 83.5923H97.5746V88.2363H102.219V83.5923Z" fill="#1E1F20"/>
<path d="M106.863 83.5923H102.219V88.2363H106.863V83.5923Z" fill="#1E1F20"/>
<path d="M116.151 83.5923H111.507V88.2363H116.151V83.5923Z" fill="#1E1F20"/>
<path d="M130.083 83.5923H125.439V88.2363H130.083V83.5923Z" fill="#1E1F20"/>
<path d="M139.371 83.5923H134.727V88.2363H139.371V83.5923Z" fill="#1E1F20"/>
<path d="M148.659 83.5923H144.015V88.2363H148.659V83.5923Z" fill="#1E1F20"/>
<path d="M157.947 83.5923H153.303V88.2363H157.947V83.5923Z" fill="#1E1F20"/>
<path d="M167.235 83.5923H162.591V88.2363H167.235V83.5923Z" fill="#1E1F20"/>
<path d="M4.69431 88.2363H0.050293V92.8803H4.69431V88.2363Z" fill="#1E1F20"/>
<path d="M18.6264 88.2363H13.9823V92.8803H18.6264V88.2363Z" fill="#1E1F20"/>
<path d="M23.2704 88.2363H18.6264V92.8803H23.2704V88.2363Z" fill="#1E1F20"/>
<path d="M60.4225 88.2363H55.7785V92.8803H60.4225V88.2363Z" fill="#1E1F20"/>
<path d="M69.7105 88.2363H65.0665V92.8803H69.7105L69.7105 88.2363Z" fill="#1E1F20"/>
<path d="M74.3545 88.2363H69.7105L69.7105 92.8803H74.3545V88.2363Z" fill="#1E1F20"/>
<path d="M102.219 88.2363H97.5746V92.8803H102.219V88.2363Z" fill="#1E1F20"/>
<path d="M116.151 88.2363H111.507V92.8803H116.151V88.2363Z" fill="#1E1F20"/>
<path d="M120.795 88.2363H116.151V92.8803H120.795V88.2363Z" fill="#1E1F20"/>
<path d="M125.439 88.2363H120.795V92.8803H125.439V88.2363Z" fill="#1E1F20"/>
<path d="M139.371 88.2363H134.727V92.8803H139.371V88.2363Z" fill="#1E1F20"/>
<path d="M144.015 88.2363H139.371V92.8803H144.015V88.2363Z" fill="#1E1F20"/>
<path d="M148.659 88.2363H144.015V92.8803H148.659V88.2363Z" fill="#1E1F20"/>
<path d="M162.591 88.2363H157.947V92.8803H162.591V88.2363Z" fill="#1E1F20"/>
<path d="M167.235 88.2363H162.591V92.8803H167.235V88.2363Z" fill="#1E1F20"/>
<path d="M9.33832 92.8803H4.69431V97.5243H9.33832V92.8803Z" fill="#1E1F20"/>
<path d="M13.9823 92.8803H9.33832V97.5243H13.9823V92.8803Z" fill="#1E1F20"/>
<path d="M18.6264 92.8803H13.9823V97.5243H18.6264V92.8803Z" fill="#1E1F20"/>
<path d="M32.5584 92.8803H27.9144V97.5243H32.5584V92.8803Z" fill="#1E1F20"/>
<path d="M41.8464 92.8803H37.2024V97.5243H41.8464V92.8803Z" fill="#1E1F20"/>
<path d="M46.4904 92.8803H41.8464V97.5243H46.4904V92.8803Z" fill="#1E1F20"/>
<path d="M60.4225 92.8803H55.7785V97.5243H60.4225V92.8803Z" fill="#1E1F20"/>
<path d="M69.7105 92.8803H65.0665V97.5243H69.7105V92.8803Z" fill="#1E1F20"/>
<path d="M74.3545 92.8803H69.7105V97.5243H74.3545V92.8803Z" fill="#1E1F20"/>
<path d="M78.9986 92.8803H74.3545V97.5243H78.9986V92.8803Z" fill="#1E1F20"/>
<path d="M83.6426 92.8803H78.9986V97.5243H83.6426V92.8803Z" fill="#1E1F20"/>
<path d="M88.2866 92.8803H83.6426V97.5243H88.2866V92.8803Z" fill="#1E1F20"/>
<path d="M97.5746 92.8803H92.9306V97.5243H97.5746V92.8803Z" fill="#1E1F20"/>
<path d="M106.863 92.8803H102.219V97.5243H106.863V92.8803Z" fill="#1E1F20"/>
<path d="M111.507 92.8803H106.863V97.5243H111.507V92.8803Z" fill="#1E1F20"/>
<path d="M120.795 92.8803H116.151V97.5243H120.795V92.8803Z" fill="#1E1F20"/>
<path d="M125.439 92.8803H120.795V97.5243H125.439V92.8803Z" fill="#1E1F20"/>
<path d="M130.083 92.8803H125.439V97.5243H130.083V92.8803Z" fill="#1E1F20"/>
<path d="M134.727 92.8803H130.083V97.5243H134.727V92.8803Z" fill="#1E1F20"/>
<path d="M139.371 92.8803H134.727V97.5243H139.371V92.8803Z" fill="#1E1F20"/>
<path d="M144.015 92.8803H139.371V97.5243H144.015V92.8803Z" fill="#1E1F20"/>
<path d="M162.591 92.8803H157.947V97.5243H162.591V92.8803Z" fill="#1E1F20"/>
<path d="M167.235 92.8803H162.591V97.5243H167.235V92.8803Z" fill="#1E1F20"/>
<path d="M171.879 92.8803H167.235V97.5243H171.879V92.8803Z" fill="#1E1F20"/>
<path d="M4.69431 97.5243H0.050293V102.168H4.69431V97.5243Z" fill="#1E1F20"/>
<path d="M9.33832 97.5243H4.69431V102.168H9.33832V97.5243Z" fill="#1E1F20"/>
<path d="M13.9823 97.5243H9.33832V102.168H13.9823V97.5243Z" fill="#1E1F20"/>
<path d="M18.6264 97.5243H13.9823V102.168H18.6264V97.5243Z" fill="#1E1F20"/>
<path d="M27.9144 97.5243H23.2704V102.168H27.9144V97.5243Z" fill="#1E1F20"/>
<path d="M37.2024 97.5243H32.5584V102.168H37.2024V97.5243Z" fill="#1E1F20"/>
<path d="M41.8464 97.5243H37.2024V102.168H41.8464V97.5243Z" fill="#1E1F20"/>
<path d="M51.1345 97.5243H46.4904V102.168H51.1345V97.5243Z" fill="#1E1F20"/>
<path d="M69.7105 97.5243H65.0665V102.168H69.7105V97.5243Z" fill="#1E1F20"/>
<path d="M78.9986 97.5243H74.3545L74.3545 102.168H78.9986V97.5243Z" fill="#1E1F20"/>
<path d="M83.6426 97.5243H78.9986V102.168H83.6426V97.5243Z" fill="#1E1F20"/>
<path d="M102.219 97.5243H97.5746V102.168H102.219V97.5243Z" fill="#1E1F20"/>
<path d="M111.507 97.5243H106.863V102.168H111.507V97.5243Z" fill="#1E1F20"/>
<path d="M116.151 97.5243H111.507V102.168H116.151V97.5243Z" fill="#1E1F20"/>
<path d="M144.015 97.5243H139.371V102.168H144.015V97.5243Z" fill="#1E1F20"/>
<path d="M153.303 97.5243H148.659V102.168H153.303V97.5243Z" fill="#1E1F20"/>
<path d="M157.947 97.5243H153.303V102.168H157.947V97.5243Z" fill="#1E1F20"/>
<path d="M4.69431 102.168H0.050293V106.812H4.69431V102.168Z" fill="#1E1F20"/>
<path d="M32.5584 102.168H27.9144V106.812H32.5584V102.168Z" fill="#1E1F20"/>
<path d="M46.4904 102.168H41.8464V106.812H46.4904V102.168Z" fill="#1E1F20"/>
<path d="M51.1345 102.168H46.4904V106.812H51.1345V102.168Z" fill="#1E1F20"/>
<path d="M55.7785 102.168H51.1345V106.812H55.7785V102.168Z" fill="#1E1F20"/>
<path d="M69.7105 102.168H65.0665V106.812H69.7105V102.168Z" fill="#1E1F20"/>
<path d="M102.219 102.168H97.5746V106.812H102.219V102.168Z" fill="#1E1F20"/>
<path d="M106.863 102.168H102.219V106.812H106.863V102.168Z" fill="#1E1F20"/>
<path d="M111.507 102.168H106.863V106.812H111.507V102.168Z" fill="#1E1F20"/>
<path d="M125.439 102.168H120.795V106.812H125.439V102.168Z" fill="#1E1F20"/>
<path d="M134.727 102.168H130.083V106.812H134.727V102.168Z" fill="#1E1F20"/>
<path d="M139.371 102.168H134.727V106.812H139.371V102.168Z" fill="#1E1F20"/>
<path d="M144.015 102.168H139.371V106.812H144.015V102.168Z" fill="#1E1F20"/>
<path d="M148.659 102.168H144.015V106.812H148.659V102.168Z" fill="#1E1F20"/>
<path d="M153.303 102.168H148.659V106.812H153.303V102.168Z" fill="#1E1F20"/>
<path d="M4.69431 106.812H0.050293V111.456H4.69431V106.812Z" fill="#1E1F20"/>
<path d="M13.9823 106.812H9.33832V111.456H13.9823V106.812Z" fill="#1E1F20"/>
<path d="M27.9144 106.812H23.2704V111.456H27.9144V106.812Z" fill="#1E1F20"/>
<path d="M37.2024 106.812H32.5584V111.456H37.2024V106.812Z" fill="#1E1F20"/>
<path d="M41.8464 106.812H37.2024V111.456H41.8464V106.812Z" fill="#1E1F20"/>
<path d="M46.4904 106.812H41.8464V111.456H46.4904V106.812Z" fill="#1E1F20"/>
<path d="M51.1345 106.812H46.4904V111.456H51.1345V106.812Z" fill="#1E1F20"/>
<path d="M60.4225 106.812H55.7785L55.7785 111.456H60.4225V106.812Z" fill="#1E1F20"/>
<path d="M65.0665 106.812H60.4225V111.456H65.0665V106.812Z" fill="#1E1F20"/>
<path d="M74.3545 106.812H69.7105L69.7105 111.456H74.3545V106.812Z" fill="#1E1F20"/>
<path d="M78.9986 106.812H74.3545V111.456H78.9986V106.812Z" fill="#1E1F20"/>
<path d="M88.2866 106.812H83.6426V111.456H88.2866V106.812Z" fill="#1E1F20"/>
<path d="M92.9306 106.812H88.2866V111.456H92.9306V106.812Z" fill="#1E1F20"/>
<path d="M102.219 106.812H97.5746V111.456H102.219V106.812Z" fill="#1E1F20"/>
<path d="M106.863 106.812H102.219V111.456H106.863V106.812Z" fill="#1E1F20"/>
<path d="M120.795 106.812H116.151V111.456H120.795V106.812Z" fill="#1E1F20"/>
<path d="M130.083 106.812H125.439V111.456H130.083V106.812Z" fill="#1E1F20"/>
<path d="M134.727 106.812H130.083V111.456H134.727V106.812Z" fill="#1E1F20"/>
<path d="M144.015 106.812H139.371V111.456H144.015V106.812Z" fill="#1E1F20"/>
<path d="M148.659 106.812H144.015V111.456H148.659V106.812Z" fill="#1E1F20"/>
<path d="M157.947 106.812H153.303V111.456H157.947V106.812Z" fill="#1E1F20"/>
<path d="M162.591 106.812H157.947V111.456H162.591V106.812Z" fill="#1E1F20"/>
<path d="M167.235 106.812H162.591V111.456H167.235V106.812Z" fill="#1E1F20"/>
<path d="M171.879 106.812H167.235V111.456H171.879V106.812Z" fill="#1E1F20"/>
<path d="M4.69431 111.456H0.050293V116.1H4.69431V111.456Z" fill="#1E1F20"/>
<path d="M13.9823 111.456H9.33832V116.1H13.9823V111.456Z" fill="#1E1F20"/>
<path d="M32.5584 111.456H27.9144V116.1H32.5584V111.456Z" fill="#1E1F20"/>
<path d="M37.2024 111.456H32.5584V116.1H37.2024V111.456Z" fill="#1E1F20"/>
<path d="M41.8464 111.456H37.2024V116.1H41.8464V111.456Z" fill="#1E1F20"/>
<path d="M55.7785 111.456H51.1345V116.1H55.7785L55.7785 111.456Z" fill="#1E1F20"/>
<path d="M60.4225 111.456H55.7785L55.7785 116.1H60.4225V111.456Z" fill="#1E1F20"/>
<path d="M74.3545 111.456H69.7105V116.1H74.3545V111.456Z" fill="#1E1F20"/>
<path d="M78.9986 111.456H74.3545V116.1H78.9986V111.456Z" fill="#1E1F20"/>
<path d="M92.9306 111.456H88.2866V116.1H92.9306V111.456Z" fill="#1E1F20"/>
<path d="M97.5746 111.456H92.9306V116.1H97.5746V111.456Z" fill="#1E1F20"/>
<path d="M106.863 111.456H102.219V116.1H106.863V111.456Z" fill="#1E1F20"/>
<path d="M130.083 111.456H125.439V116.1H130.083V111.456Z" fill="#1E1F20"/>
<path d="M134.727 111.456H130.083V116.1H134.727V111.456Z" fill="#1E1F20"/>
<path d="M148.659 111.456H144.015V116.1H148.659V111.456Z" fill="#1E1F20"/>
<path d="M153.303 111.456H148.659V116.1H153.303V111.456Z" fill="#1E1F20"/>
<path d="M162.591 111.456H157.947V116.1H162.591V111.456Z" fill="#1E1F20"/>
<path d="M13.9823 116.1H9.33832V120.744H13.9823V116.1Z" fill="#1E1F20"/>
<path d="M18.6264 116.1H13.9823V120.744H18.6264V116.1Z" fill="#1E1F20"/>
<path d="M37.2024 116.1H32.5584V120.744H37.2024V116.1Z" fill="#1E1F20"/>
<path d="M51.1345 116.1H46.4904V120.744H51.1345V116.1Z" fill="#1E1F20"/>
<path d="M65.0665 116.1H60.4225L60.4225 120.744H65.0665V116.1Z" fill="#1E1F20"/>
<path d="M78.9986 116.1H74.3545L74.3545 120.744H78.9986V116.1Z" fill="#1E1F20"/>
<path d="M92.9306 116.1H88.2866V120.744H92.9306V116.1Z" fill="#1E1F20"/>
<path d="M106.863 116.1H102.219V120.744H106.863V116.1Z" fill="#1E1F20"/>
<path d="M134.727 116.1H130.083V120.744H134.727V116.1Z" fill="#1E1F20"/>
<path d="M148.659 116.1H144.015V120.744H148.659V116.1Z" fill="#1E1F20"/>
<path d="M157.947 116.1H153.303V120.744H157.947V116.1Z" fill="#1E1F20"/>
<path d="M4.69431 120.744H0.050293V125.388H4.69431V120.744Z" fill="#1E1F20"/>
<path d="M9.33832 120.744H4.69431V125.388H9.33832V120.744Z" fill="#1E1F20"/>
<path d="M13.9823 120.744H9.33832V125.388H13.9823V120.744Z" fill="#1E1F20"/>
<path d="M27.9144 120.744H23.2704V125.388H27.9144V120.744Z" fill="#1E1F20"/>
<path d="M32.5584 120.744H27.9144V125.388H32.5584V120.744Z" fill="#1E1F20"/>
<path d="M37.2024 120.744H32.5584V125.388H37.2024V120.744Z" fill="#1E1F20"/>
<path d="M41.8464 120.744H37.2024V125.388H41.8464V120.744Z" fill="#1E1F20"/>
<path d="M51.1345 120.744H46.4904V125.388H51.1345V120.744Z" fill="#1E1F20"/>
<path d="M55.7785 120.744H51.1345V125.388H55.7785V120.744Z" fill="#1E1F20"/>
<path d="M65.0665 120.744H60.4225V125.388H65.0665V120.744Z" fill="#1E1F20"/>
<path d="M88.2866 120.744H83.6426V125.388H88.2866V120.744Z" fill="#1E1F20"/>
<path d="M97.5746 120.744H92.9306V125.388H97.5746V120.744Z" fill="#1E1F20"/>
<path d="M102.219 120.744H97.5746V125.388H102.219V120.744Z" fill="#1E1F20"/>
<path d="M106.863 120.744H102.219V125.388H106.863V120.744Z" fill="#1E1F20"/>
<path d="M111.507 120.744H106.863V125.388H111.507V120.744Z" fill="#1E1F20"/>
<path d="M144.015 120.744H139.371V125.388H144.015V120.744Z" fill="#1E1F20"/>
<path d="M153.303 120.744H148.659V125.388H153.303V120.744Z" fill="#1E1F20"/>
<path d="M157.947 120.744H153.303V125.388H157.947V120.744Z" fill="#1E1F20"/>
<path d="M37.2024 125.388H32.5584V130.032H37.2024V125.388Z" fill="#1E1F20"/>
<path d="M46.4904 125.388H41.8464V130.032H46.4904V125.388Z" fill="#1E1F20"/>
<path d="M51.1345 125.388H46.4904V130.032H51.1345V125.388Z" fill="#1E1F20"/>
<path d="M60.4225 125.388H55.7785L55.7785 130.032H60.4225L60.4225 125.388Z" fill="#1E1F20"/>
<path d="M65.0665 125.388H60.4225L60.4225 130.032H65.0665V125.388Z" fill="#1E1F20"/>
<path d="M69.7105 125.388H65.0665V130.032H69.7105V125.388Z" fill="#1E1F20"/>
<path d="M74.3545 125.388H69.7105V130.032H74.3545V125.388Z" fill="#1E1F20"/>
<path d="M78.9986 125.388H74.3545V130.032H78.9986V125.388Z" fill="#1E1F20"/>
<path d="M83.6426 125.388H78.9986V130.032H83.6426L83.6426 125.388Z" fill="#1E1F20"/>
<path d="M88.2866 125.388H83.6426L83.6426 130.032H88.2866V125.388Z" fill="#1E1F20"/>
<path d="M92.9306 125.388H88.2866V130.032H92.9306V125.388Z" fill="#1E1F20"/>
<path d="M102.219 125.388H97.5746V130.032H102.219V125.388Z" fill="#1E1F20"/>
<path d="M106.863 125.388H102.219V130.032H106.863V125.388Z" fill="#1E1F20"/>
<path d="M111.507 125.388H106.863V130.032H111.507V125.388Z" fill="#1E1F20"/>
<path d="M120.795 125.388H116.151V130.032H120.795V125.388Z" fill="#1E1F20"/>
<path d="M125.439 125.388H120.795V130.032H125.439V125.388Z" fill="#1E1F20"/>
<path d="M134.727 125.388H130.083V130.032H134.727V125.388Z" fill="#1E1F20"/>
<path d="M148.659 125.388H144.015V130.032H148.659V125.388Z" fill="#1E1F20"/>
<path d="M153.303 125.388H148.659V130.032H153.303V125.388Z" fill="#1E1F20"/>
<path d="M157.947 125.388H153.303V130.032H157.947V125.388Z" fill="#1E1F20"/>
<path d="M162.591 125.388H157.947V130.032H162.591V125.388Z" fill="#1E1F20"/>
<path d="M9.33832 130.032H4.69431V134.676H9.33832V130.032Z" fill="#1E1F20"/>
<path d="M13.9823 130.032H9.33832V134.676H13.9823V130.032Z" fill="#1E1F20"/>
<path d="M18.6264 130.032H13.9823V134.676H18.6264V130.032Z" fill="#1E1F20"/>
<path d="M23.2704 130.032H18.6264V134.676H23.2704V130.032Z" fill="#1E1F20"/>
<path d="M27.9144 130.032H23.2704V134.676H27.9144V130.032Z" fill="#1E1F20"/>
<path d="M32.5584 130.032H27.9144V134.676H32.5584V130.032Z" fill="#1E1F20"/>
<path d="M60.4225 130.032H55.7785V134.676H60.4225V130.032Z" fill="#1E1F20"/>
<path d="M65.0665 130.032H60.4225V134.676H65.0665V130.032Z" fill="#1E1F20"/>
<path d="M74.3545 130.032H69.7105L69.7105 134.676H74.3545V130.032Z" fill="#1E1F20"/>
<path d="M88.2866 130.032H83.6426L83.6426 134.676H88.2866V130.032Z" fill="#1E1F20"/>
<path d="M97.5746 130.032H92.9306V134.676H97.5746V130.032Z" fill="#1E1F20"/>
<path d="M111.507 130.032H106.863V134.676H111.507V130.032Z" fill="#1E1F20"/>
<path d="M116.151 130.032H111.507V134.676H116.151V130.032Z" fill="#1E1F20"/>
<path d="M120.795 130.032H116.151V134.676H120.795V130.032Z" fill="#1E1F20"/>
<path d="M125.439 130.032H120.795V134.676H125.439V130.032Z" fill="#1E1F20"/>
<path d="M134.727 130.032H130.083V134.676H134.727V130.032Z" fill="#1E1F20"/>
<path d="M139.371 130.032H134.727V134.676H139.371V130.032Z" fill="#1E1F20"/>
<path d="M144.015 130.032H139.371V134.676H144.015V130.032Z" fill="#1E1F20"/>
<path d="M148.659 130.032H144.015V134.676H148.659V130.032Z" fill="#1E1F20"/>
<path d="M153.303 130.032H148.659V134.676H153.303V130.032Z" fill="#1E1F20"/>
<path d="M157.947 130.032H153.303V134.676H157.947V130.032Z" fill="#1E1F20"/>
<path d="M162.591 130.032H157.947V134.676H162.591V130.032Z" fill="#1E1F20"/>
<path d="M171.879 130.032H167.235V134.676H171.879V130.032Z" fill="#1E1F20"/>
<path d="M41.8464 134.676H37.2024V139.32H41.8464V134.676Z" fill="#1E1F20"/>
<path d="M55.7785 134.676H51.1345V139.32H55.7785L55.7785 134.676Z" fill="#1E1F20"/>
<path d="M69.7105 134.676H65.0665V139.32H69.7105L69.7105 134.676Z" fill="#1E1F20"/>
<path d="M88.2866 134.676H83.6426V139.32H88.2866V134.676Z" fill="#1E1F20"/>
<path d="M92.9306 134.676H88.2866V139.32H92.9306V134.676Z" fill="#1E1F20"/>
<path d="M97.5746 134.676H92.9306V139.32H97.5746V134.676Z" fill="#1E1F20"/>
<path d="M102.219 134.676H97.5746V139.32H102.219V134.676Z" fill="#1E1F20"/>
<path d="M106.863 134.676H102.219V139.32H106.863V134.676Z" fill="#1E1F20"/>
<path d="M130.083 134.676H125.439V139.32H130.083V134.676Z" fill="#1E1F20"/>
<path d="M134.727 134.676H130.083V139.32H134.727V134.676Z" fill="#1E1F20"/>
<path d="M153.303 134.676H148.659V139.32H153.303V134.676Z" fill="#1E1F20"/>
<path d="M157.947 134.676H153.303V139.32H157.947V134.676Z" fill="#1E1F20"/>
<path d="M162.591 134.676H157.947V139.32H162.591V134.676Z" fill="#1E1F20"/>
<path d="M171.879 134.676H167.235V139.32H171.879V134.676Z" fill="#1E1F20"/>
<path d="M4.69431 139.32H0.050293V143.964H4.69431V139.32Z" fill="#1E1F20"/>
<path d="M9.33832 139.32H4.69431V143.964H9.33832V139.32Z" fill="#1E1F20"/>
<path d="M13.9823 139.32H9.33832V143.964H13.9823V139.32Z" fill="#1E1F20"/>
<path d="M18.6264 139.32H13.9823V143.964H18.6264V139.32Z" fill="#1E1F20"/>
<path d="M23.2704 139.32H18.6264V143.964H23.2704V139.32Z" fill="#1E1F20"/>
<path d="M27.9144 139.32H23.2704V143.964H27.9144V139.32Z" fill="#1E1F20"/>
<path d="M32.5584 139.32H27.9144V143.964H32.5584V139.32Z" fill="#1E1F20"/>
<path d="M51.1345 139.32H46.4904V143.964H51.1345V139.32Z" fill="#1E1F20"/>
<path d="M55.7785 139.32H51.1345V143.964H55.7785V139.32Z" fill="#1E1F20"/>
<path d="M60.4225 139.32H55.7785V143.964H60.4225V139.32Z" fill="#1E1F20"/>
<path d="M69.7105 139.32H65.0665V143.964H69.7105V139.32Z" fill="#1E1F20"/>
<path d="M74.3545 139.32H69.7105V143.964H74.3545V139.32Z" fill="#1E1F20"/>
<path d="M78.9986 139.32H74.3545V143.964H78.9986V139.32Z" fill="#1E1F20"/>
<path d="M88.2866 139.32H83.6426V143.964H88.2866V139.32Z" fill="#1E1F20"/>
<path d="M97.5746 139.32H92.9306V143.964H97.5746V139.32Z" fill="#1E1F20"/>
<path d="M106.863 139.32H102.219V143.964H106.863V139.32Z" fill="#1E1F20"/>
<path d="M116.151 139.32H111.507V143.964H116.151V139.32Z" fill="#1E1F20"/>
<path d="M125.439 139.32H120.795V143.964H125.439V139.32Z" fill="#1E1F20"/>
<path d="M134.727 139.32H130.083V143.964H134.727V139.32Z" fill="#1E1F20"/>
<path d="M144.015 139.32H139.371V143.964H144.015V139.32Z" fill="#1E1F20"/>
<path d="M153.303 139.32H148.659V143.964H153.303V139.32Z" fill="#1E1F20"/>
<path d="M157.947 139.32H153.303V143.964H157.947V139.32Z" fill="#1E1F20"/>
<path d="M4.69431 143.964H0.050293V148.608H4.69431V143.964Z" fill="#1E1F20"/>
<path d="M32.5584 143.964H27.9144V148.608H32.5584V143.964Z" fill="#1E1F20"/>
<path d="M46.4904 143.964H41.8464V148.608H46.4904V143.964Z" fill="#1E1F20"/>
<path d="M60.4225 143.964H55.7785L55.7785 148.608H60.4225V143.964Z" fill="#1E1F20"/>
<path d="M69.7105 143.964H65.0665V148.608H69.7105V143.964Z" fill="#1E1F20"/>
<path d="M83.6426 143.964H78.9986L78.9986 148.608H83.6426L83.6426 143.964Z" fill="#1E1F20"/>
<path d="M88.2866 143.964H83.6426L83.6426 148.608H88.2866V143.964Z" fill="#1E1F20"/>
<path d="M97.5746 143.964H92.9306V148.608H97.5746V143.964Z" fill="#1E1F20"/>
<path d="M106.863 143.964H102.219V148.608H106.863V143.964Z" fill="#1E1F20"/>
<path d="M116.151 143.964H111.507V148.608H116.151V143.964Z" fill="#1E1F20"/>
<path d="M134.727 143.964H130.083V148.608H134.727V143.964Z" fill="#1E1F20"/>
<path d="M153.303 143.964H148.659V148.608H153.303V143.964Z" fill="#1E1F20"/>
<path d="M157.947 143.964H153.303V148.608H157.947V143.964Z" fill="#1E1F20"/>
<path d="M162.591 143.964H157.947V148.608H162.591V143.964Z" fill="#1E1F20"/>
<path d="M4.69431 148.608H0.050293V153.253H4.69431V148.608Z" fill="#1E1F20"/>
<path d="M13.9823 148.608H9.33832V153.253H13.9823V148.608Z" fill="#1E1F20"/>
<path d="M18.6264 148.608H13.9823V153.253H18.6264V148.608Z" fill="#1E1F20"/>
<path d="M23.2704 148.608H18.6264V153.253H23.2704V148.608Z" fill="#1E1F20"/>
<path d="M32.5584 148.608H27.9144V153.253H32.5584V148.608Z" fill="#1E1F20"/>
<path d="M41.8464 148.608H37.2024V153.253H41.8464V148.608Z" fill="#1E1F20"/>
<path d="M46.4904 148.608H41.8464V153.253H46.4904V148.608Z" fill="#1E1F20"/>
<path d="M55.7785 148.608H51.1345V153.253H55.7785L55.7785 148.608Z" fill="#1E1F20"/>
<path d="M65.0665 148.608H60.4225L60.4225 153.253H65.0665V148.608Z" fill="#1E1F20"/>
<path d="M74.3545 148.608H69.7105L69.7105 153.253H74.3545V148.608Z" fill="#1E1F20"/>
<path d="M97.5746 148.608H92.9306V153.253H97.5746V148.608Z" fill="#1E1F20"/>
<path d="M102.219 148.608H97.5746V153.253H102.219V148.608Z" fill="#1E1F20"/>
<path d="M106.863 148.608H102.219V153.253H106.863V148.608Z" fill="#1E1F20"/>
<path d="M111.507 148.608H106.863V153.253H111.507V148.608Z" fill="#1E1F20"/>
<path d="M120.795 148.608H116.151V153.253H120.795V148.608Z" fill="#1E1F20"/>
<path d="M125.439 148.608H120.795V153.253H125.439V148.608Z" fill="#1E1F20"/>
<path d="M130.083 148.608H125.439V153.253H130.083V148.608Z" fill="#1E1F20"/>
<path d="M134.727 148.608H130.083V153.253H134.727V148.608Z" fill="#1E1F20"/>
<path d="M139.371 148.608H134.727V153.253H139.371V148.608Z" fill="#1E1F20"/>
<path d="M144.015 148.608H139.371V153.253H144.015V148.608Z" fill="#1E1F20"/>
<path d="M148.659 148.608H144.015V153.253H148.659V148.608Z" fill="#1E1F20"/>
<path d="M153.303 148.608H148.659V153.253H153.303V148.608Z" fill="#1E1F20"/>
<path d="M162.591 148.608H157.947V153.253H162.591V148.608Z" fill="#1E1F20"/>
<path d="M167.235 148.608H162.591V153.253H167.235V148.608Z" fill="#1E1F20"/>
<path d="M171.879 148.608H167.235V153.253H171.879V148.608Z" fill="#1E1F20"/>
<path d="M4.69431 153.253H0.050293V157.897H4.69431V153.253Z" fill="#1E1F20"/>
<path d="M13.9823 153.253H9.33832V157.897H13.9823V153.253Z" fill="#1E1F20"/>
<path d="M18.6264 153.253H13.9823V157.897H18.6264V153.253Z" fill="#1E1F20"/>
<path d="M23.2704 153.253H18.6264V157.897H23.2704V153.253Z" fill="#1E1F20"/>
<path d="M32.5584 153.253H27.9144V157.897H32.5584V153.253Z" fill="#1E1F20"/>
<path d="M46.4904 153.253H41.8464V157.897H46.4904V153.253Z" fill="#1E1F20"/>
<path d="M51.1345 153.253H46.4904V157.897H51.1345V153.253Z" fill="#1E1F20"/>
<path d="M55.7785 153.253H51.1345V157.897H55.7785V153.253Z" fill="#1E1F20"/>
<path d="M60.4225 153.253H55.7785V157.897H60.4225L60.4225 153.253Z" fill="#1E1F20"/>
<path d="M74.3545 153.253H69.7105V157.897H74.3545V153.253Z" fill="#1E1F20"/>
<path d="M78.9986 153.253H74.3545V157.897H78.9986V153.253Z" fill="#1E1F20"/>
<path d="M88.2866 153.253H83.6426V157.897H88.2866V153.253Z" fill="#1E1F20"/>
<path d="M92.9306 153.253H88.2866V157.897H92.9306V153.253Z" fill="#1E1F20"/>
<path d="M102.219 153.253H97.5746V157.897H102.219V153.253Z" fill="#1E1F20"/>
<path d="M106.863 153.253H102.219V157.897H106.863V153.253Z" fill="#1E1F20"/>
<path d="M111.507 153.253H106.863V157.897H111.507V153.253Z" fill="#1E1F20"/>
<path d="M116.151 153.253H111.507V157.897H116.151V153.253Z" fill="#1E1F20"/>
<path d="M130.083 153.253H125.439V157.897H130.083V153.253Z" fill="#1E1F20"/>
<path d="M134.727 153.253H130.083V157.897H134.727V153.253Z" fill="#1E1F20"/>
<path d="M148.659 153.253H144.015V157.897H148.659V153.253Z" fill="#1E1F20"/>
<path d="M153.303 153.253H148.659V157.897H153.303V153.253Z" fill="#1E1F20"/>
<path d="M157.947 153.253H153.303V157.897H157.947V153.253Z" fill="#1E1F20"/>
<path d="M162.591 153.253H157.947V157.897H162.591V153.253Z" fill="#1E1F20"/>
<path d="M167.235 153.253H162.591V157.897H167.235V153.253Z" fill="#1E1F20"/>
<path d="M171.879 153.253H167.235V157.897H171.879V153.253Z" fill="#1E1F20"/>
<path d="M4.69431 157.897H0.050293V162.541H4.69431V157.897Z" fill="#1E1F20"/>
<path d="M13.9823 157.897H9.33832V162.541H13.9823V157.897Z" fill="#1E1F20"/>
<path d="M18.6264 157.897H13.9823V162.541H18.6264V157.897Z" fill="#1E1F20"/>
<path d="M23.2704 157.897H18.6264V162.541H23.2704V157.897Z" fill="#1E1F20"/>
<path d="M32.5584 157.897H27.9144V162.541H32.5584V157.897Z" fill="#1E1F20"/>
<path d="M41.8464 157.897H37.2024V162.541H41.8464V157.897Z" fill="#1E1F20"/>
<path d="M51.1345 157.897H46.4904V162.541H51.1345V157.897Z" fill="#1E1F20"/>
<path d="M55.7785 157.897H51.1345V162.541H55.7785V157.897Z" fill="#1E1F20"/>
<path d="M69.7105 157.897H65.0665V162.541H69.7105L69.7105 157.897Z" fill="#1E1F20"/>
<path d="M74.3545 157.897H69.7105L69.7105 162.541H74.3545V157.897Z" fill="#1E1F20"/>
<path d="M78.9986 157.897H74.3545V162.541H78.9986V157.897Z" fill="#1E1F20"/>
<path d="M106.863 157.897H102.219V162.541H106.863V157.897Z" fill="#1E1F20"/>
<path d="M111.507 157.897H106.863V162.541H111.507V157.897Z" fill="#1E1F20"/>
<path d="M130.083 157.897H125.439V162.541H130.083V157.897Z" fill="#1E1F20"/>
<path d="M134.727 157.897H130.083V162.541H134.727V157.897Z" fill="#1E1F20"/>
<path d="M144.015 157.897H139.371V162.541H144.015V157.897Z" fill="#1E1F20"/>
<path d="M157.947 157.897H153.303V162.541H157.947V157.897Z" fill="#1E1F20"/>
<path d="M167.235 157.897H162.591V162.541H167.235V157.897Z" fill="#1E1F20"/>
<path d="M4.69431 162.541H0.050293V167.185H4.69431V162.541Z" fill="#1E1F20"/>
<path d="M32.5584 162.541H27.9144V167.185H32.5584V162.541Z" fill="#1E1F20"/>
<path d="M41.8464 162.541H37.2024V167.185H41.8464V162.541Z" fill="#1E1F20"/>
<path d="M60.4225 162.541H55.7785L55.7785 167.185H60.4225V162.541Z" fill="#1E1F20"/>
<path d="M69.7105 162.541H65.0665V167.185H69.7105V162.541Z" fill="#1E1F20"/>
<path d="M78.9986 162.541H74.3545L74.3545 167.185H78.9986V162.541Z" fill="#1E1F20"/>
<path d="M83.6426 162.541H78.9986V167.185H83.6426V162.541Z" fill="#1E1F20"/>
<path d="M92.9306 162.541H88.2866V167.185H92.9306V162.541Z" fill="#1E1F20"/>
<path d="M116.151 162.541H111.507V167.185H116.151V162.541Z" fill="#1E1F20"/>
<path d="M120.795 162.541H116.151V167.185H120.795V162.541Z" fill="#1E1F20"/>
<path d="M125.439 162.541H120.795V167.185H125.439V162.541Z" fill="#1E1F20"/>
<path d="M130.083 162.541H125.439V167.185H130.083V162.541Z" fill="#1E1F20"/>
<path d="M134.727 162.541H130.083V167.185H134.727V162.541Z" fill="#1E1F20"/>
<path d="M139.371 162.541H134.727V167.185H139.371V162.541Z" fill="#1E1F20"/>
<path d="M153.303 162.541H148.659V167.185H153.303V162.541Z" fill="#1E1F20"/>
<path d="M167.235 162.541H162.591V167.185H167.235V162.541Z" fill="#1E1F20"/>
<path d="M4.69431 167.185H0.050293V171.829H4.69431V167.185Z" fill="#1E1F20"/>
<path d="M9.33832 167.185H4.69431V171.829H9.33832V167.185Z" fill="#1E1F20"/>
<path d="M13.9823 167.185H9.33832V171.829H13.9823V167.185Z" fill="#1E1F20"/>
<path d="M18.6264 167.185H13.9823V171.829H18.6264V167.185Z" fill="#1E1F20"/>
<path d="M23.2704 167.185H18.6264V171.829H23.2704V167.185Z" fill="#1E1F20"/>
<path d="M27.9144 167.185H23.2704V171.829H27.9144V167.185Z" fill="#1E1F20"/>
<path d="M32.5584 167.185H27.9144V171.829H32.5584V167.185Z" fill="#1E1F20"/>
<path d="M41.8464 167.185H37.2024V171.829H41.8464V167.185Z" fill="#1E1F20"/>
<path d="M51.1345 167.185H46.4904V171.829H51.1345V167.185Z" fill="#1E1F20"/>
<path d="M60.4225 167.185H55.7785V171.829H60.4225V167.185Z" fill="#1E1F20"/>
<path d="M69.7105 167.185H65.0665V171.829H69.7105V167.185Z" fill="#1E1F20"/>
<path d="M88.2866 167.185H83.6426L83.6426 171.829H88.2866V167.185Z" fill="#1E1F20"/>
<path d="M97.5746 167.185H92.9306V171.829H97.5746V167.185Z" fill="#1E1F20"/>
<path d="M106.863 167.185H102.219V171.829H106.863V167.185Z" fill="#1E1F20"/>
<path d="M116.151 167.185H111.507V171.829H116.151V167.185Z" fill="#1E1F20"/>
<path d="M125.439 167.185H120.795V171.829H125.439V167.185Z" fill="#1E1F20"/>
<path d="M134.727 167.185H130.083V171.829H134.727V167.185Z" fill="#1E1F20"/>
<path d="M144.015 167.185H139.371V171.829H144.015V167.185Z" fill="#1E1F20"/>
<path d="M157.947 167.185H153.303V171.829H157.947V167.185Z" fill="#1E1F20"/>
<path d="M162.591 167.185H157.947V171.829H162.591V167.185Z" fill="#1E1F20"/>
<path d="M167.235 167.185H162.591V171.829H167.235V167.185Z" fill="#1E1F20"/>
<path d="M171.879 167.185H167.235V171.829H171.879V167.185Z" fill="#1E1F20"/>
</svg>
