<svg width="366" height="366" viewBox="0 0 366 366" fill="none" xmlns="http://www.w3.org/2000/svg">
<path d="M10.9838 190.896C9.85286 190.923 9.52163 189.607 10.1786 189.382C11.0003 189.1 73.5313 179.017 94.6569 175.67C204.459 158.273 354.78 141.528 355.871 141.828C356.407 141.976 356.146 142.683 355.39 142.804C345.716 144.361 307.51 149.207 306.884 149.276C192.534 162.028 11.0259 190.886 10.9838 190.896Z" fill="#303030"/>
<path d="M44.5156 251.418C44.6767 249.729 44.8414 249.206 44.7737 245.588C44.5284 232.32 53.3435 231.638 72.7507 224.945C120.709 208.406 102.514 215.715 151.576 201.177C151.615 201.166 185.393 191.923 185.435 191.912C253.255 173.764 250.967 171.68 272.063 188.823C277.652 193.363 309.412 224.261 317.758 234.176C325.611 243.505 329.708 248.108 329.359 253.459C329.07 257.882 328.74 263.674 326.769 268.04C325.26 271.384 324.076 272.73 295.786 285.828C289.88 288.562 271.994 296.848 264.132 299.688C228.109 312.705 148.568 340.442 111.184 348.793C97.8784 351.764 93.964 349.845 84.0528 336.065C69.0815 315.249 52.2181 279.172 46.0601 260.649C45.3922 258.638 44.5303 254.101 44.5156 251.418ZM247.909 178.597C247.909 178.738 246.262 178.475 244.983 178.663C233.897 180.301 129.343 208.56 88.4887 221.615C51.724 233.363 43.6464 235.347 47.8517 246.701C52.4944 259.24 66.4335 291.362 73.9512 304.395C91.9931 335.673 98.3615 338.954 114.89 335.556C157.416 326.812 309.534 275.53 324.291 258.588C331.249 250.6 326.912 246.69 306.793 225.524C290.781 208.679 274.162 192.725 269.942 189.293C262.968 183.622 256.197 178.597 247.909 178.597ZM267.626 291.259C267.598 293.578 269.062 293.082 271.075 292.359C282.068 288.406 283.772 287.251 283.794 285.932C283.85 282.717 282.882 283.315 273.401 287.235C268.281 289.35 267.647 289.316 267.624 291.259H267.626ZM288.914 282.514C288.914 284.234 289.743 284.618 290.877 284.161C293.192 283.225 294.578 282.719 302.564 278.896C304.582 277.929 304.956 276.925 304.696 275.66C304.46 274.515 304.108 274.319 302.987 274.698C301.89 275.069 300.792 275.459 299.74 275.938C289.203 280.726 288.797 280.588 288.914 282.514Z" fill="#303030"/>
<path d="M297.992 228.956C301.127 229.243 302.553 230.292 309.468 238.177C311.45 240.437 314.655 243.505 316.199 247.924C317.149 250.642 315.409 253.582 313.359 254.957C287.294 272.428 182.955 307.558 158.062 314.739C108.672 328.984 101.959 338.346 79.5673 298.516C69.4383 280.498 57.2578 252.309 56.7655 251.081C54.1486 244.551 55.5156 240.179 62.6435 237.193C64.1258 236.573 71.9838 232.221 97.8362 224.919C173.704 203.493 237.771 181.211 252.49 185.287C255.203 186.039 262.306 189.926 267.611 195.295C267.966 195.656 267.971 196.115 268.151 196.516C268.193 196.609 268.041 196.797 267.962 196.935C265.159 201.812 264.469 201.211 270.497 207.397C270.535 207.437 283.391 220.761 290.64 228.103C291.99 229.47 292.773 228.477 297.992 228.956ZM292.565 230.973C288.087 230.936 286.884 227.082 271.425 211.487C262.17 202.152 262.864 201.405 265.878 196.496C265.984 196.324 266.094 196.203 265.867 196.011C251.41 183.812 248.537 185.252 231.593 189.291C222.159 191.54 213.117 193.136 171.309 205.6C57.9074 239.409 52.7212 237.134 58.9359 252.065C58.9524 252.104 73.3051 283.508 80.7879 296.739C87.6669 308.903 99.3844 324.841 110.546 324.682C130.665 324.392 288.93 271.072 313.242 252.649C315.388 251.022 314.993 248.464 313.458 246.25C311.986 244.13 307.188 238.512 306.696 237.965C299.493 229.981 300.77 231.037 292.565 230.973Z" fill="#303030"/>
<path d="M287.578 216.02C287.003 216.642 286.467 217.221 285.153 216.556C284.163 216.055 274.03 206.215 273.114 204.854C272.383 203.77 273.763 202.562 274.459 203.055C277.059 204.896 286.401 213.643 287.578 216.02Z" fill="#303030"/>
<path d="M293.994 221.864C293.655 223.648 289.494 223.119 288.89 221.191C287.953 218.202 294.567 218.852 293.994 221.864Z" fill="#303030"/>
<path d="M307.17 252.922C305.481 253.012 304.961 251.877 302.465 248.146C302.099 247.597 301.812 247.009 302.176 246.343C302.297 246.124 302.427 245.858 302.626 245.737C303.739 245.058 305.692 243.986 306.722 244.791C307.882 245.699 311.264 249.696 310.429 250.9C309.635 252.045 308.559 252.75 307.172 252.922H307.17ZM309.072 250.195C308.954 249.785 309.189 250.12 307.913 248.331C307.613 247.908 307.395 248.27 305.355 249.511C305.104 249.663 305.146 249.613 306.242 251.33C306.605 251.897 306.835 251.859 308.733 250.677C308.898 250.574 308.978 250.333 309.072 250.195Z" fill="#303030"/>
<path d="M302.946 239.325C304.229 239.278 305.288 240.91 304.807 241.364C304.412 241.735 301.096 243.207 300.646 243.397C299.985 243.677 299.555 243.951 298.761 242.658C298.375 242.028 298.398 241.525 299.438 241.007C302.92 239.274 302.413 239.521 302.946 239.325Z" fill="#303030"/>
<path d="M258.969 194.868C259.396 195.892 257.624 196.767 256.446 196.987C252.952 197.638 253.185 194.079 256.7 194.03C257.827 194.013 258.574 193.922 258.969 194.868Z" fill="#303030"/>
<path d="M260.324 196.598C260.997 196.598 261.424 196.505 261.658 197.228C261.929 198.06 261.929 198.004 261.404 198.573C260.739 199.294 259.866 199.603 258.917 199.694C256.677 199.912 256.671 196.278 260.324 196.598Z" fill="#303030"/>
<path d="M296.34 239.513C295.581 238.564 295.953 238.483 299.157 237.058C299.473 236.917 300.147 237.477 300.346 237.711C301.243 238.769 300.271 239.105 298.156 240.191C297.479 240.538 296.838 240.136 296.34 239.513Z" fill="#303030"/>
<path d="M297.761 235.812C297.287 236.434 297.764 236.354 295.301 237.501C295.008 237.638 294.606 237.239 294.417 237.036C293.707 236.271 293.718 236.068 294.589 235.495C295.07 235.179 295.583 234.89 296.115 234.677C296.725 234.436 297.704 235.065 297.762 235.812H297.761Z" fill="#303030"/>
<path d="M250.557 188.777C252.043 189.998 249.466 190.459 247.62 191.041C246.557 191.378 245.501 190.232 250.557 188.777Z" fill="#303030"/>
<path d="M249.457 192.481C249.327 192.364 248.766 192.114 249.251 191.614C249.591 191.263 249.95 191.082 252.173 190.456C253.064 190.205 253.209 191.279 252.596 191.497C249.496 192.589 249.807 192.467 249.459 192.483L249.457 192.481Z" fill="#303030"/>
<path d="M255.228 193.304C254.801 193.41 254.54 193.015 254.203 192.792C254.132 192.744 254.128 192.472 254.192 192.365C254.574 191.729 256.212 191.306 256.077 192.662C256.031 193.123 255.819 193.295 255.228 193.304Z" fill="#303030"/>
<path d="M252.459 194.463C251.286 194.443 251.341 192.966 252.321 192.922C252.751 192.904 253.354 193.404 253.343 193.771C253.33 194.15 252.923 194.472 252.459 194.463Z" fill="#303030"/>
<path d="M183.43 103.645C183.43 106.589 183.214 106.35 184.568 106.73C187.086 107.44 221.935 247.659 225.08 262.107C225.214 262.716 225.386 262.625 227.04 262.877C227.708 262.98 228.316 263.291 228.96 263.445C230.184 263.736 231.024 264.49 231.623 265.522C232.752 267.471 232.249 268.162 231.991 270.399C231.269 276.661 221.966 277.087 218.165 275.065C214.79 273.27 215.369 270.325 214.966 269.35C215.272 266.052 215.947 265.33 217.085 264.089C217.804 263.306 217.684 263.979 192.871 249.716C182.482 243.743 180.65 242.736 178.794 241.607C178.059 241.161 178.117 241.353 174.19 243.794C143.755 262.705 149.626 258.996 142.095 263.827C141.222 264.387 143.834 265.066 144.42 268.051C144.632 269.134 144.462 270.119 143.924 272.047C142.333 277.741 133.084 278.193 128.31 275.508C122.939 272.49 125.283 262.632 131.997 262.758C133.425 262.786 133.216 263.016 152.481 174.537C152.493 174.479 168.188 108.379 169.408 107.195C171.485 105.177 168.762 100.148 172.53 98.1257C173.163 97.7853 173.82 97.5438 174.56 97.5236C176.884 97.4578 183.08 96.4275 183.43 101.493C183.446 101.731 183.468 103.645 183.43 103.645ZM178.119 204.848C175.57 206.069 165.219 211.789 153.553 217.885C147.858 220.861 147.779 219.832 150.709 221.32C158.869 225.461 160.778 226.341 175.423 234.887C178.298 236.566 178.309 236.756 178.822 236.439C187.366 231.185 206.991 220.178 207.93 219.563C208.513 219.181 208.598 219.728 191.002 211.119C178.134 204.822 179.327 205.342 178.119 204.85V204.848ZM210.601 221.353C207.63 223.571 181.384 238.476 182.487 239.14C210.698 256.132 220.427 261.397 220.544 261.344C221.208 261.047 211.211 221.752 210.601 221.353ZM137.293 261.399C137.52 262.176 134.305 263.273 173.793 239.461C174.649 238.945 174.962 239.431 156.842 229.154C145.269 222.59 145.96 222.231 145.719 223.291C140.306 247.046 145.763 223.318 137.293 261.397V261.399ZM199.576 189.48C198.015 188.396 186.678 182.747 179.676 178.626C177.974 177.625 178.368 177.601 166.903 184.273C166.863 184.297 157.032 189.862 156.719 190.144C157.541 190.845 158.986 191.154 168.268 195.381C180.439 200.925 176.849 200.895 181.023 198.827C188.528 195.107 198.857 190.089 199.576 189.48ZM209.522 216.49C209.511 216.447 203.049 191.513 203.036 191.474C202.844 190.823 203.761 191.284 186.522 200.231C182.595 202.27 182.392 202.345 182.893 202.652C182.932 202.676 209.337 216.49 209.522 216.49ZM173.465 202.614C172.506 201.827 163.307 197.814 153.209 192.523C152.68 192.247 153.271 190.508 148.089 212.807C148.003 213.175 147.256 216.472 147.24 217.027C147.595 216.968 173.443 202.654 173.465 202.614ZM194.368 165.711C194.25 165.574 179.852 158.159 177.206 156.805C176.807 156.602 176.459 156.444 176.016 156.735C175.573 157.026 162.652 164.89 162.608 164.934C163.57 165.484 169.249 168.167 178.397 173.355C179.184 173.802 178.639 173.82 190.486 167.774C191.621 167.195 194.06 165.881 194.366 165.713L194.368 165.711ZM154.043 187.759C161.889 182.518 164.804 181.065 173.925 176.225C174.915 175.699 174.794 176.023 168.669 172.673C157.832 166.745 158.681 166.809 158.445 167.869C154.023 187.75 153.826 186.866 154.045 187.758L154.043 187.759ZM177.217 151.979C177.819 151.701 189.752 145.221 190.234 144.802C189.772 144.472 183.108 141.001 183.069 140.977C178.646 138.669 178.587 138.514 178.02 138.885C177.403 139.29 165.457 145.565 165.305 145.691C165.529 145.847 176.984 151.878 177.219 151.981L177.217 151.979ZM201.677 186.36C201.594 185.717 197.305 169.177 197.133 168.555C196.827 167.452 198.112 167.227 183.607 175.31C182.141 176.128 181.232 174.96 193.862 182.15C201.58 186.544 201.146 186.57 201.677 186.36ZM195.509 162.379C191.423 146.211 191.935 147.457 191.2 147.841C190.742 148.079 190.969 147.975 185.9 150.912C180.831 153.849 180.408 153.857 181.02 154.213C195.389 162.593 195.147 162.571 195.511 162.381L195.509 162.379ZM159.766 162.113C159.982 162.692 158.871 163.098 169.736 156.426C172.556 154.695 173.079 154.671 172.391 154.29C171.061 153.556 172.36 154.332 163.301 149.225C162.699 148.884 162.978 147.534 159.766 162.113ZM185.763 131.657C185.219 131.168 184.484 130.808 181.213 128.668C177.909 126.505 177.85 126.002 176.922 126.518C170.023 130.354 170.124 129.668 170.625 130.218C170.66 130.257 174.197 132.169 178.366 134.501C179.016 134.865 178.906 134.916 185.763 131.657ZM164.282 142.163C164.557 142.944 163.686 142.271 174.025 137.172C175.343 136.523 175.345 137.088 167.181 132.142C166.476 131.715 166.658 131.042 164.282 142.163ZM140.397 266.382C139.345 265.47 138.953 266.038 136.38 267.727C135.149 268.536 132.642 268.618 132.429 266.909C132.219 265.2 132.336 264.938 131.955 264.989C129.057 265.379 127.842 267.73 128.705 268.755C132.351 273.078 144.379 269.828 140.397 266.382ZM183.1 119.862C176.686 115.258 176.595 114.588 175.864 115.059C171.82 117.661 171.558 117.687 171.95 117.961C178.192 122.34 177.841 122.335 178.458 122.033C180.253 121.158 182.516 120.23 183.1 119.862ZM223.219 270.144C225.562 270.078 226.541 269.363 226.971 269.268C228.548 268.922 229.86 267.097 228.457 265.791C227.765 265.147 226.861 265.183 226.047 264.942C225.836 264.879 225.668 265.02 225.703 265.275C225.823 266.144 224.323 267.551 222.797 266.722C219.797 265.092 219.722 264.993 219.248 265.326C218.372 265.943 217.46 267.359 218.203 268.294C219.572 270.018 221.029 269.879 223.219 270.144ZM188.036 133.331C187.637 133.547 187.955 133.359 183.029 136.21C182.59 136.464 182.086 136.687 182.527 136.942C190.054 141.25 189.306 141.061 190.073 141.228C190.065 140.864 188.385 133.906 188.036 133.331ZM168.866 126.741C173.881 123.976 173.678 124.159 173.901 124.011C174.382 123.691 174.056 123.651 169.767 120.338C169.189 119.892 169.291 120.269 168.418 124.101C167.379 128.665 167.446 127.523 168.866 126.741ZM176.666 99.2841C176.666 99.3939 172.439 98.8961 172.329 100.677C172.219 102.457 179.713 102.39 181.095 101.11C182.593 99.7233 178.899 99.2841 176.666 99.2841ZM185.106 121.59C184.648 121.793 183.991 122.181 183.706 122.364C180.582 124.375 180.683 124.242 181.226 124.672C186.967 129.221 186.499 128.936 187.055 129.177C187.035 128.39 185.554 122.316 185.106 121.59ZM184.026 116.768C182.474 110.482 182.661 110.462 182.011 110.897C178.974 112.932 179.019 112.775 179.449 113.146C183.871 116.955 183.682 116.916 184.026 116.768ZM170.587 114.299C170.742 114.654 170.488 114.863 173.09 112.93C173.506 112.623 173.359 112.568 171.71 111.342C171.112 110.897 171.161 111.562 170.587 114.299Z" fill="#303030"/>
<path d="M307.01 90.2189C301.875 82.6189 299.198 86.5808 305.579 81.7661C306.174 81.3178 305.974 80.3222 305.008 80.5345C304.664 80.6096 304.457 80.734 301.246 82.3407C300.863 82.5329 300.259 82.9739 300.237 82.4231C299.906 74.5742 300.506 71.6993 298.934 71.9134C298.222 72.0104 298.243 72.7424 298.243 73.2273C298.235 81.2098 298.372 80.9902 298.199 81.8045C297.479 81.4166 296.544 80.5675 294.467 79.5902C293.717 79.2371 291.973 78.7686 291.808 79.5353C291.656 80.2436 291.911 80.2747 292.571 80.7047C298.263 84.4086 298.016 83.9932 297.128 84.5294C295.993 85.2138 294.738 85.8196 293.726 86.4143C292.244 87.2854 293.128 89.0696 294.734 88.4328C295.622 88.0814 297.284 87.1921 298.129 86.7547C298.899 86.3558 298.387 91.8714 299.381 92.9822C300.062 92.3399 300.109 87.1701 300.316 86.2588C301.302 86.6229 304.971 90.2061 306.73 90.6782C306.961 90.7404 307.149 90.4202 307.012 90.2171L307.01 90.2189Z" fill="#303030"/>
<path d="M242.598 130.448C236.46 133.389 236.758 133.46 236.852 132.622C237.331 128.374 238.138 125.272 237.66 124.378C237.316 123.728 236.467 123.662 236.096 124.281C235.561 125.172 234.877 130.962 234.559 132.439C234.333 133.487 232.633 130.81 230.346 130.241C229.532 130.038 228.789 131.286 230.068 132.274C234.297 135.546 234.09 134.283 229.938 136.415C228.909 136.944 228.152 137.726 228.725 138.734C229.078 139.356 229.996 138.858 230.406 138.69C233.887 137.266 233.929 137.118 233.931 137.548C233.942 141.221 233.689 142.275 234.333 142.308C234.943 142.339 234.983 141.929 235.863 138.425C235.966 138.018 236.028 137.603 236.11 137.193C238.418 138.683 238.786 139.411 239.377 138.992C239.878 138.637 239.441 138.075 238.458 136.794C237.653 135.746 237.23 135.645 237.77 135.436C238.244 135.253 241.266 133.659 243.5 131.963C243.943 131.628 244 131.096 243.668 130.601C243.394 130.191 243.187 130.162 242.596 130.446L242.598 130.448Z" fill="#303030"/>
<path d="M60.6171 57.9822C57.6104 59.3364 57.2938 59.8671 57.3432 59.2229C57.5847 56.0223 57.625 56.0241 57.539 56.0204C57.539 54.5217 57.7897 53.2333 56.6972 53.1455C55.6248 53.0595 55.4674 54.1264 55.3833 55.2427C55.0667 59.3913 55.321 59.4755 54.589 59.1021C54.1517 58.8789 54.2999 58.8093 51.8038 57.726C50.8485 57.3124 50.2794 58.2622 50.8815 59.0363C51.4213 59.7317 51.8788 59.9403 53.7216 61.2195C54.1681 61.5287 53.8351 61.4628 52.7169 62.1894C50.9418 63.3441 50.3727 63.6168 50.1513 64.5757C49.9738 65.3388 50.585 66.0708 51.8257 65.4211C54.8928 63.8144 54.9129 63.4374 54.9477 64.4988C54.9715 65.2455 54.9075 66.0946 55.2021 66.9034C55.3192 67.2237 55.8042 67.3811 56.0823 66.9474C56.3678 66.5008 56.8656 63.8455 56.9314 63.4813C57.0339 62.9177 57.1382 63.4301 59.8302 64.2792C60.1541 64.3817 60.6189 64.5299 60.8586 64.0596C61.4314 62.936 58.1466 61.9496 59.1146 61.2707C60.3956 60.3703 59.9217 60.8992 63.6054 57.7004C63.8909 57.4533 64.1929 56.3791 60.6207 57.9858L60.6171 57.9822Z" fill="#303030"/>
<path d="M90.9151 146.871C90.4722 147.012 90.2874 147.178 86.7299 149.323C86.0418 149.738 86.3529 149.68 86.2413 144.25C86.2047 142.499 86.1388 141.359 85.1963 141.344C84.113 141.328 84.2923 142.146 84.0196 145.447C84.1294 145.454 84.0983 145.447 84.0983 147.308C84.0983 147.851 84.1734 148.371 83.7268 148.071C81.1026 146.301 80.2919 147.76 81.1063 148.615C81.7083 149.246 82.6032 149.841 83.8952 150.723C84.3948 151.063 83.7506 151.107 82.4678 152.163C80.2352 153.998 79.9387 154.22 79.9918 154.983C80.0559 155.891 80.9178 155.752 81.626 155.3C84.4039 153.526 84.3271 153.137 84.4936 154.075C84.8395 156.046 84.9511 156.538 85.5532 156.747C86.3822 157.034 86.4737 155.519 86.4334 155.378C86.1644 154.438 86.3639 153.508 86.2925 152.582C86.2413 151.925 87.7711 153.751 90.388 154.178C90.873 154.256 91.0285 153.775 90.3222 153.122C86.7903 149.861 87.1837 151.841 91.4092 147.619C91.8246 147.205 91.2994 146.75 90.9169 146.872L90.9151 146.871Z" fill="#303030"/>
<path d="M243.86 46.9871C226.021 15.436 182.833 2.49794 148.524 12.4348C119.464 20.8528 101.883 50.669 104.868 55.3063C105.396 56.1279 105.448 56.1188 115.749 62.6976C122.379 66.9322 117.602 56.0565 135.881 40.9554C167.554 14.7864 215.822 30.0431 230.426 60.4101C232.252 64.2074 234.882 61.1037 238.992 58.0476C247.34 51.8421 247.291 53.0535 243.862 46.9871H243.86Z" fill="#303030"/>
<path d="M128.988 68.3773C128.339 69.5741 128.761 71.0948 129.938 71.8378C132.454 73.4281 134.949 75.044 137.452 76.6489C141.145 79.0151 140.843 72.3008 151.051 64.0823C158.462 58.1146 166.919 55.1756 175.953 55.3477C189.686 55.6094 199.626 63.3869 208.009 74.2699C211.803 79.1944 209.788 79.7745 220.896 71.4883C221.767 70.8386 223.111 69.3874 222.684 68.3901C207.407 32.63 152.079 25.7858 128.988 68.3736V68.3773Z" fill="#303030"/>
<path d="M150.882 81.5104C149.947 82.9104 149.929 84.7038 151.371 85.606C162.552 92.5892 158.728 91.9817 165.264 86.8028C171.898 81.547 180.025 82.2863 185.971 86.5685C192.193 91.0502 191.13 93.5225 194.596 90.988C202.265 85.379 203.592 84.9764 202.113 82.8518C188.388 63.1354 164.229 61.5378 150.884 81.5104H150.882Z" fill="#303030"/>
</svg>
