<svg width="368" height="368" viewBox="0 0 368 368" fill="none" xmlns="http://www.w3.org/2000/svg">
<path fill-rule="evenodd" clip-rule="evenodd" d="M160.706 157.254C160.448 157.75 159.694 162.774 162.656 162.774C163.174 162.775 163.674 162.589 164.066 162.251C164.458 161.913 164.716 161.446 164.791 160.934C165.416 155.303 161.736 155.322 160.706 157.254ZM187.386 157.18C187.552 159.13 187.772 160.86 189.723 160.86C190.24 160.861 190.741 160.676 191.133 160.338C191.525 160 191.782 159.532 191.857 159.02C191.897 157.836 191.767 156.653 191.471 155.506C190.404 153.537 187.11 154.015 187.386 157.18ZM174.506 174.954C175.076 174.954 180.026 174.715 181.185 173.814C181.535 173.556 181.498 173.059 181.498 172.599C181.388 167.38 180.883 162.176 179.989 157.033C179.989 156.757 179.75 156.702 179.603 156.738C179.456 156.775 179.382 157.033 179.4 157.474C179.4 158.983 179.272 159.498 179.805 167.944C180.155 173.464 180.008 171.918 180.118 172.838C178.392 173.471 176.621 173.969 174.819 174.329C173.623 174.586 174.469 174.954 174.506 174.954ZM180.32 187.687C178.955 188.419 177.45 188.852 175.904 188.957C175.826 188.957 175.751 188.988 175.696 189.043C175.641 189.098 175.61 189.173 175.61 189.251C175.61 189.329 175.641 189.404 175.696 189.459C175.751 189.515 175.826 189.546 175.904 189.546C176.769 189.856 177.692 189.968 178.606 189.873C179.52 189.778 180.4 189.477 181.182 188.995C181.963 188.512 182.626 187.859 183.12 187.085C183.615 186.31 183.928 185.435 184.037 184.522C184.047 184.485 184.049 184.446 184.044 184.408C184.038 184.369 184.025 184.332 184.006 184.299C183.986 184.266 183.96 184.237 183.929 184.213C183.898 184.19 183.863 184.173 183.826 184.164C183.788 184.154 183.749 184.152 183.711 184.157C183.672 184.163 183.636 184.175 183.602 184.195C183.569 184.215 183.54 184.241 183.517 184.272C183.493 184.303 183.476 184.338 183.467 184.375C182.722 185.732 181.638 186.874 180.32 187.687ZM97.8515 45.7864C102.58 61.592 119.306 60.8192 121.256 61.9968C121.256 62.1808 125.084 76.9192 126.629 78.9432C127.494 80.0656 129.573 79.624 130.953 79.3664C134.192 78.7224 137.945 78.52 140.687 76.3304C141.386 75.76 140.981 73.4416 140.797 72.6504C140.211 69.342 139.4 66.0775 138.368 62.88C137.963 61.9153 137.618 60.9258 137.338 59.9176C138.608 58.7928 139.989 57.8002 141.46 56.9552C143.887 55.3013 146.047 53.2844 147.863 50.9752C151.376 45.8282 152.964 39.6082 152.349 33.407C151.733 27.2057 148.952 21.4195 144.496 17.064C130.861 3.68718 106.205 8.04798 98.2011 24.9208C95.4595 30.772 95.9931 39.6408 97.8515 45.7864ZM139.84 75.4472C137.393 77.416 133.787 77.6736 130.64 78.3176C129.794 78.5016 127.788 78.9984 127.255 78.3176C126.214 76.8147 125.465 75.1294 125.047 73.3496C129.813 72.6779 134.475 71.4042 138.92 69.5592C139.522 71.4643 139.832 73.4494 139.84 75.4472ZM138.718 68.8048C134.016 69.681 129.399 70.9615 124.918 72.632C124.443 70.4964 123.828 68.3943 123.078 66.3392C127.832 65.8413 132.494 64.6896 136.933 62.9168C137.676 64.8618 138.29 66.8533 138.773 68.8784L138.718 68.8048ZM99.3603 25.4912C107.07 9.55678 130.64 5.52718 143.52 18.1312C147.707 22.2373 150.326 27.6779 150.924 33.5112C151.522 39.3445 150.061 45.2034 146.796 50.0736C143.612 54.5632 137.172 57.6544 136.179 59.2736C135.829 59.844 136.473 61.2976 136.878 62.328C134.78 62.7328 132.48 63.2296 130.42 63.6896C129.868 61.1688 127.292 50.9936 126.335 48.6016C125.967 47.6448 125.636 47.7184 124.66 47.9944C119.288 47.9944 113.381 46.6328 111.486 41.5728C111.257 40.9797 111.096 40.3623 111.008 39.7328C110.75 37.0832 112.848 33.992 115.166 34.2128C114.835 36.2368 115.166 40.1008 116.896 41.26C118.625 42.4192 120.576 40.5792 120.576 38.9232C120.477 37.729 120.089 36.5769 119.445 35.5668C118.8 34.5567 117.919 33.7193 116.877 33.1272C117.166 32.4703 117.595 31.8842 118.133 31.4095C118.672 30.9348 119.307 30.5828 119.995 30.378C120.683 30.1732 121.407 30.1205 122.117 30.2235C122.827 30.3264 123.507 30.5827 124.108 30.9744C122.655 33.808 124.108 40.3032 126.684 38.776C129.26 37.2488 128.414 33.4952 126.813 31.416C126.04 30.404 125.875 30.68 126.261 30.3856C129.26 28.196 132.664 30.7352 134.1 34.0656C136.16 38.6472 131.744 44.296 128.948 46.0072C128.879 46.0487 128.83 46.1156 128.811 46.1932C128.792 46.2709 128.805 46.3529 128.846 46.4212C128.888 46.4895 128.955 46.5385 129.032 46.5575C129.11 46.5765 129.192 46.5639 129.26 46.5224C132.683 44.5168 137.007 38.6104 135.038 33.6424C133.069 28.6744 128.12 26.7608 124.992 29.7232C124.204 29.1828 123.305 28.826 122.361 28.679C121.417 28.5321 120.453 28.5988 119.538 28.8743C118.623 29.1497 117.782 29.6269 117.077 30.2706C116.371 30.9143 115.819 31.7081 115.46 32.5936C112.038 32.152 109.149 36.1448 109.536 39.7696C109.743 41.3717 110.349 42.8963 111.297 44.2043C112.245 45.5124 113.506 46.5623 114.964 47.2584C116.693 48.0864 122.839 49.5952 125.268 48.896C126.114 50.736 129.187 61.5368 129.739 63.8C121.569 65.64 123.225 66.5048 122.82 65.3088C122.342 63.8184 122.048 61.6288 121.643 61.4816C111.486 59.1816 102.323 57.4888 98.9003 45.4368C97.2259 39.604 96.7843 30.956 99.3603 25.4912ZM116.436 34.5808C117.133 35.0755 117.715 35.7144 118.144 36.4541C118.573 37.1938 118.837 38.0171 118.92 38.868C118.92 39.3648 117.797 40.708 117.08 39.236C116.53 37.7497 116.335 36.1558 116.509 34.5808H116.436ZM125.12 31.7656C126.592 33.2008 127.512 36.5496 125.912 37.5248C125.357 36.6854 124.997 35.7321 124.861 34.7352C124.724 33.7384 124.812 32.7235 125.12 31.7656ZM69.9203 101.998C77.4091 99.6616 86.4803 101.686 89.9763 109.966C96.0299 123.986 80.0219 131.126 80.1875 131.862C80.5555 133.702 81.2179 136.922 81.4939 138.78C81.5159 138.936 81.599 139.077 81.7249 139.172C81.8509 139.267 82.0094 139.308 82.1655 139.286C82.3217 139.264 82.4627 139.181 82.5576 139.055C82.6525 138.929 82.6935 138.771 82.6715 138.614C82.4507 136.774 82.2115 134.125 81.9539 132.211C84.5555 131.168 86.9627 129.693 89.0747 127.85C102.065 112.523 87.5659 93.1848 69.0371 99.2384C66.1032 100.094 63.5083 101.841 61.6124 104.238C59.7166 106.635 58.6138 109.563 58.4571 112.615C57.8683 119.865 63.6459 126.121 72.9747 125.311C73.1154 125.286 73.2427 125.213 73.3345 125.104C73.4263 124.994 73.4766 124.856 73.4766 124.713C73.4766 124.57 73.4263 124.432 73.3345 124.323C73.2427 124.213 73.1154 124.14 72.9747 124.115C64.6947 124.538 60.2603 118.595 61.0515 112.891C61.2348 110.385 62.184 107.996 63.7703 106.048C65.3567 104.1 67.5037 102.686 69.9203 101.998ZM207.35 53.9928C207.506 54.0343 207.672 54.012 207.812 53.9309C207.952 53.8498 208.054 53.7165 208.095 53.5604C208.137 53.4042 208.114 53.238 208.033 53.0982C207.952 52.9585 207.819 52.8567 207.663 52.8152C199.696 50.5704 197.396 43.5232 199.972 38.3528C200.975 36.0436 202.664 34.0988 204.81 32.7822C206.956 31.4656 209.455 30.8409 211.968 30.9928C225.805 31.3424 231.877 44.0752 226.688 53.1648C223.248 59.384 218.648 61.0584 212.76 61.8312C212.574 61.8573 212.401 61.9433 212.268 62.0761C212.136 62.2088 212.05 62.3812 212.024 62.5672C211.821 64.26 211.38 67.5904 211.048 69.5224C211.017 69.6761 211.047 69.8361 211.134 69.9673C211.22 70.0984 211.355 70.1899 211.508 70.2216C211.662 70.2533 211.822 70.2227 211.953 70.1364C212.084 70.0501 212.176 69.9153 212.208 69.7616C212.631 67.7744 213.201 65.4376 213.588 63.4688C216.383 63.3184 219.133 62.6963 221.72 61.6288C227.958 57.9488 231.748 52.1344 231.252 44.7744C230.092 27.4968 204.884 21.3144 197.635 37.4144C194.82 43.9648 198.242 51.932 207.35 53.9928ZM309.58 140.326C309.369 136.915 308.153 133.643 306.084 130.923C304.094 128.684 301.667 126.876 298.952 125.61C296.237 124.344 293.292 123.648 290.297 123.563C287.249 123.422 284.232 124.231 281.665 125.88C279.097 127.528 277.105 129.933 275.964 132.763C273.075 139.442 276.552 147.226 285.624 149.434C285.704 149.47 285.792 149.488 285.881 149.487C285.969 149.486 286.057 149.465 286.137 149.427C286.217 149.388 286.287 149.333 286.343 149.264C286.399 149.195 286.439 149.115 286.461 149.029C286.483 148.943 286.486 148.854 286.469 148.767C286.453 148.68 286.417 148.597 286.366 148.525C286.314 148.453 286.247 148.394 286.17 148.35C286.092 148.307 286.006 148.281 285.918 148.274C278.006 145.882 275.651 139.074 278.245 133.812C279.248 131.503 280.938 129.558 283.084 128.241C285.23 126.925 287.729 126.3 290.242 126.452C292.794 126.523 295.305 127.111 297.623 128.18C299.941 129.249 302.018 130.777 303.729 132.671C305.453 134.921 306.477 137.627 306.673 140.454C307.98 156.683 290.5 156.738 290.334 158.026C290.113 159.866 289.708 163.105 289.359 164.982C289.327 165.135 289.358 165.295 289.444 165.426C289.53 165.558 289.665 165.649 289.819 165.681C289.972 165.713 290.132 165.682 290.264 165.596C290.395 165.509 290.486 165.375 290.518 165.221C290.96 163.252 291.512 160.897 291.898 158.928C294.698 158.771 297.453 158.149 300.049 157.088C306.195 153.482 310.077 147.759 309.58 140.326ZM89.6819 152.727C90.4731 149.452 88.0995 146.011 85.7443 146.287C84.2169 146.122 82.6787 146.079 81.1443 146.158C77.1515 147.115 75.2747 152.341 79.0283 154.898C83.3339 157.769 88.9091 155.782 89.6819 152.727ZM86.8299 152.359C86.1765 152.904 85.3761 153.244 84.5299 153.334C79.5251 154.034 78.4579 149.654 81.8251 148.219L85.7811 147.483C87.4923 147.63 87.8787 151.292 86.8299 152.267V152.359ZM209.521 76.5512C205.234 74.9872 200.597 79.8264 203.633 83.9112C206.669 87.996 212.686 87.996 214.416 85.2728C216.145 82.5496 215.096 78.428 212.778 77.9128C212.576 77.8208 210.975 77.0848 209.521 76.5512ZM211.84 83.9112C211.016 84.1913 210.135 84.2538 209.281 84.0926C208.426 83.9314 207.628 83.552 206.964 82.9912C206.42 82.6007 205.973 82.0909 205.657 81.5008C205.124 80.0104 207.037 78.4832 208.436 78.3912L212.41 78.9616C213.956 79.7896 213.183 83.396 211.84 83.9664V83.9112ZM291.033 173.482C290.665 173.317 288.77 172.526 287.795 172.158C283.489 170.594 278.871 175.433 281.907 179.518C284.943 183.602 290.941 183.602 292.689 180.879C294.437 178.156 293.37 173.998 291.033 173.482ZM290.095 179.573C289.271 179.851 288.39 179.913 287.536 179.752C286.682 179.59 285.884 179.212 285.219 178.653C284.68 178.25 284.234 177.735 283.912 177.144C283.397 175.672 285.292 174.145 286.691 174.053L290.665 174.623C292.211 175.396 291.438 178.984 290.095 179.573Z" fill="#303030"/>
<path fill-rule="evenodd" clip-rule="evenodd" d="M276.003 274.973C272.323 256.867 258.007 228.973 240.822 221.852L237.363 214.621C237.338 214.568 237.302 214.522 237.258 214.484C237.214 214.447 237.162 214.419 237.106 214.403C237.05 214.388 236.992 214.384 236.934 214.393C236.877 214.402 236.822 214.423 236.774 214.455L233.094 216.829C231.925 209.018 228.356 201.765 222.882 196.073C226.709 190.167 232.836 188.364 239.166 188.088C244.41 187.867 248.274 187.554 251.31 183.065C257.327 174.196 255.91 165.548 248.844 157.305C238.08 144.756 233.848 148.509 228.604 141.573C218.631 128.545 216.368 109.281 201.685 99.2526C182.917 86.5382 172.797 96.787 168.859 99.9518C163.1 96.4558 150.257 97.6702 144.737 102.399C140.045 106.41 133.826 111.599 131.415 117.395C126.282 129.631 126.834 144.112 119.327 155.207C117.487 157.967 114.34 159.825 112.114 162.438C109.058 166.27 106.458 170.444 104.367 174.877C101.644 180.029 99.5649 185.751 102.049 191.087C105.379 198.226 112.831 205.034 120.78 204.519C125.38 204.206 131.471 201.446 135.795 203.268C138.371 204.335 139.364 206.819 141.315 208.898C145.731 213.811 156.035 215.301 161.739 211.897C155.464 219.883 145.896 219.607 129.207 228.807C103.595 242.901 94.2473 258.909 91.5057 275.304C90.457 280.404 89.6831 285.558 89.1873 290.741C87.6049 317.477 95.7193 351.369 122.031 356.981C129.244 358.527 137.506 359.521 144.645 357.736C158.169 354.369 174.306 345.261 186.155 337.864C191.675 334.423 212.099 320.641 221.594 318.838C222.165 323.749 223.403 328.559 225.274 333.135C232.873 348.757 245.035 357.993 262.074 353.982C273.114 351.388 276.26 339.63 276.555 328.369C282.093 316.483 277.695 283.621 276.003 274.973ZM212.339 188.824C215.614 189.431 217.859 192.504 220.287 195.006C226.709 201.428 231.125 208.309 232.45 217.086C227.132 220.472 223.673 222.606 223.599 222.717C223.526 222.827 220.968 216.313 219.423 215.522C217.11 214.374 215.013 212.837 213.222 210.977C211.842 209.45 210.149 206.764 210.37 204.74C211.348 204.219 212.415 203.889 213.516 203.765V202.624C207.831 202.789 205.88 207.978 205.365 209.137C204.997 209.965 204.482 210.793 203.304 210.665C202.127 210.536 201.703 209.174 202.145 207.96C202.587 206.745 203.654 201.409 211.179 200.25C211.274 200.237 211.364 200.205 211.446 200.157C211.528 200.108 211.6 200.044 211.657 199.968C211.714 199.892 211.756 199.806 211.78 199.714C211.804 199.622 211.809 199.526 211.796 199.431C211.782 199.337 211.751 199.246 211.702 199.164C211.654 199.082 211.59 199.011 211.514 198.954C211.438 198.896 211.351 198.855 211.259 198.831C211.167 198.807 211.071 198.802 210.977 198.815C209.402 199.015 207.875 199.495 206.469 200.232C205.205 200.849 204.082 201.722 203.173 202.796C202.264 203.87 201.588 205.121 201.188 206.469C200.305 208.99 197.214 207.868 197.95 205.697C198.69 203.584 199.792 201.617 201.207 199.882C202.777 198.385 204.663 197.26 206.727 196.589C208.346 195.926 209.726 196.239 210.094 195.705C210.462 195.172 209.597 193.387 209.155 192.853C206.782 190.02 199.955 192.467 197.343 189.302C195.668 187.223 199.183 187.149 200.599 186.965C204.574 186.524 208.346 188.069 212.339 188.824ZM219.091 234.419C213.831 236.133 208.466 237.504 203.028 238.522C204.868 228.053 206.119 219.073 205.935 215.817C210.223 216.645 215.135 217.233 220.508 218.117C221.962 220.527 222.753 222.551 223.103 223.121L219.533 225.385C219.349 225.624 219.386 224.63 219.091 234.419ZM199.109 287.577C199.924 291.11 200.502 294.693 200.839 298.304C193.295 297.825 187.535 297.917 184.702 297.807C184.812 292.637 184.867 291.036 184.959 289.95C189.603 288.773 194.335 287.979 199.109 287.577ZM170.166 242.257C180.604 242.332 191.028 241.482 201.317 239.718C198.042 257.382 193.055 278.616 190.7 282.866C185.291 268.109 185.843 268.054 170.166 242.257ZM192.246 282.627C195.227 275.948 199.753 256.021 202.771 239.424C208.263 238.394 213.679 236.993 218.981 235.229C218.411 255.101 218.245 279.904 219.441 299.831C215.945 299.518 210.867 299.077 205.935 298.69C205.623 295.709 204.39 285.332 203.341 282.609C203.065 281.873 202.734 281.578 201.501 281.541C198.424 281.676 195.361 282.039 192.338 282.627H192.246ZM198.815 212.431C196.951 211.342 195.462 209.712 194.546 207.757C195.398 208.117 196.286 208.382 197.195 208.549C197.54 208.937 197.985 209.223 198.482 209.375C198.978 209.528 199.507 209.541 200.011 209.413C200.839 209.156 200.305 209.045 200.747 210.205C200.916 210.672 201.202 211.088 201.577 211.414C201.952 211.74 202.403 211.965 202.889 212.068C203.375 212.171 203.88 212.149 204.355 212.003C204.83 211.857 205.26 211.593 205.604 211.235C206.322 210.591 206.377 209.818 207.242 208.162C208.088 207.997 208.916 207.776 209.726 207.537C211.915 213.277 218.779 216.056 219.257 216.479C211.179 215.283 204.022 214.529 198.907 212.431H198.815ZM163.542 210.223C167.958 205.108 167.056 201.446 162.511 197.821C153.311 190.609 154.452 192.541 150.588 184.481C146.043 171.399 149.963 150.791 153.33 137.377C154.25 133.697 160.524 129.76 165.087 130.349C171.417 131.158 168.767 134.489 174.177 136.384C175.116 136.658 176.087 136.807 177.066 136.825C177.124 136.843 177.185 136.85 177.245 136.845C177.306 136.839 177.365 136.822 177.418 136.794C177.472 136.765 177.52 136.727 177.559 136.68C177.598 136.634 177.627 136.58 177.645 136.522C177.663 136.464 177.67 136.403 177.665 136.342C177.659 136.282 177.642 136.223 177.614 136.169C177.585 136.115 177.547 136.068 177.5 136.029C177.454 135.99 177.4 135.96 177.342 135.942C174.472 134.221 171.827 132.15 169.467 129.778C170.589 125.197 173.441 122.694 178.795 122.657C182.475 122.657 185.383 125.454 187.995 127.846C191.16 130.735 194.564 138.537 194.307 142.824C193.725 147.792 194.889 152.807 197.6 157.01C199.44 160.212 202.899 162.99 204.96 165.695C206.101 167.204 205.439 173.938 204.776 176.901C203.911 179.495 202.071 184.445 201.648 185.567C193.957 185.843 194.288 189.965 197.968 191.731C194.527 195.853 186.119 200.434 192.135 206.212C193.423 208.917 195.484 212.615 198.244 213.737C200.203 214.531 202.229 215.147 204.298 215.577C204.703 218.429 203.378 227.869 201.354 238.853C190.794 240.61 180.097 241.417 169.393 241.264C162.751 230.389 156.145 220.085 154.471 218.429C158.188 216.539 161.347 213.71 163.634 210.223H163.542ZM150.993 219.92C154.673 218.54 152.833 218.779 153.716 219.46C154.599 220.141 160.671 229.764 167.719 241.19C159.365 241.061 149.963 240.436 146.411 240.031C147.479 239.185 144.719 224.649 143.651 222.809C146.319 221.741 148.785 220.803 151.085 219.92H150.993ZM142.29 223.379C143.803 228.797 144.831 234.339 145.363 239.939C137.423 238.801 129.635 236.783 122.142 233.922C128.563 229.815 135.336 226.287 142.382 223.379H142.29ZM143.964 356.411C137.064 358.141 128.987 357.129 122.031 355.638C111.157 353.301 103.631 346.033 98.7369 336.723C90.9537 322.003 88.6353 300.125 91.0089 284.798C91.4873 281.725 92.0945 278.689 92.6097 275.598C95.5353 258.063 106.189 244.852 121.056 234.861C135.647 240.215 145.455 242.092 168.381 242.221C184.26 267.981 184.61 270.557 189.155 283.161C187.756 283.418 181.279 284.725 180.175 285.626C179.734 285.976 179.734 286.675 180.175 297.733C163.431 298.065 147.055 300.677 131.655 310.613C129.815 297.347 131.931 293.336 136.218 285.737C142.952 273.795 141.738 271.587 137.487 264.797C136.787 263.881 136.285 262.828 136.015 261.706C136.015 261.265 134.175 260.657 136.77 265.221C140.45 271.918 141.443 273.501 134.93 285.001C130.164 293.428 128.214 297.752 131.084 311C129.796 311.865 128.324 312.84 126.907 313.981C124.743 315.505 122.712 317.21 120.835 319.077C120.799 319.148 120.792 319.231 120.816 319.306C120.84 319.382 120.893 319.446 120.964 319.482C121.035 319.519 121.117 319.526 121.193 319.502C121.269 319.477 121.332 319.424 121.369 319.353C121.939 318.341 131.452 311.993 134.01 310.687C148.288 303.493 164.075 297.273 189.927 298.985C189.602 309.924 190.734 320.857 193.295 331.497C180.01 339.888 161.131 352.142 144.056 356.411H143.964ZM194.435 330.761C192.071 320.385 191.027 309.751 191.326 299.113C219.257 300.953 210.499 300.365 219.515 300.953C219.846 306.326 220.343 312.159 221.079 317.513C213.866 318.857 200.894 326.769 194.527 330.761H194.435ZM261.301 352.657C245.054 356.503 233.517 347.634 226.194 332.62C218.098 316.06 219.441 244.134 219.901 225.808L236.719 215.393C259.424 264.429 262.147 269.066 267.244 285.313C273.831 306.013 282.516 347.763 261.393 352.657H261.301ZM276.131 324.505C275.705 314.653 274.187 304.878 271.605 295.36C265.772 272.673 259.461 261.301 241.999 224.593L242.515 224.317C257.934 232.561 270.998 258.155 274.42 275.249C276.297 284.173 279.885 313.355 276.223 324.505H276.131Z" fill="#303030"/>
</svg>
